%FSLAX45Y45*%
G04 Gerber Fmt 4.5, Leading zero omitted, Abs format (unit mm)*
G04 Created by KiCad (PCBNEW 4.0.2-stable) date 11/9/2017 2:12:24 PM*
%MOMM*%
G01*
G04 APERTURE LIST*
%ADD10C,0.127000*%
%ADD11C,0.150000*%
%ADD12C,0.200000*%
%ADD13C,0.300000*%
G04 APERTURE END LIST*
D10*
D11*
X15000000Y-15000000D02*
X15000000Y-12500000D01*
X12500000Y-12500000D02*
X15000000Y-12500000D01*
X15000000Y-12500000D02*
X15000000Y-15000000D01*
X15000000Y-15000000D02*
X12500000Y-15000000D01*
X10000000Y-15000000D02*
X10000000Y-12500000D01*
X10000000Y-12500000D02*
X12500000Y-12500000D01*
X12500000Y-15000000D02*
X12500000Y-12500000D01*
X12500000Y-15000000D02*
X10000000Y-15000000D01*
X12500000Y-12500000D02*
X12500000Y-15000000D01*
X17500000Y-15000000D02*
X17500000Y-12500000D01*
X20000000Y-15000000D02*
X17500000Y-15000000D01*
X17500000Y-15000000D02*
X15000000Y-15000000D01*
X17500000Y-12500000D02*
X20000000Y-12500000D01*
X20000000Y-12500000D02*
X20000000Y-15000000D01*
X17500000Y-12500000D02*
X17500000Y-15000000D01*
X15000000Y-12500000D02*
X17500000Y-12500000D01*
X15000000Y-12500000D02*
X15000000Y-10000000D01*
X12500000Y-10000000D02*
X15000000Y-10000000D01*
X15000000Y-10000000D02*
X15000000Y-12500000D01*
X15000000Y-12500000D02*
X12500000Y-12500000D01*
X10000000Y-12500000D02*
X10000000Y-10000000D01*
X10000000Y-10000000D02*
X12500000Y-10000000D01*
X12500000Y-12500000D02*
X12500000Y-10000000D01*
X12500000Y-12500000D02*
X10000000Y-12500000D01*
X12500000Y-10000000D02*
X12500000Y-12500000D01*
X17500000Y-12500000D02*
X17500000Y-10000000D01*
X20000000Y-12500000D02*
X17500000Y-12500000D01*
X17500000Y-12500000D02*
X15000000Y-12500000D01*
X17500000Y-10000000D02*
X20000000Y-10000000D01*
X20000000Y-10000000D02*
X20000000Y-12500000D01*
X17500000Y-10000000D02*
X17500000Y-12500000D01*
X15000000Y-10000000D02*
X17500000Y-10000000D01*
X15000000Y-10000000D02*
X15000000Y-7500000D01*
X12500000Y-7500000D02*
X15000000Y-7500000D01*
X15000000Y-7500000D02*
X15000000Y-10000000D01*
X15000000Y-10000000D02*
X12500000Y-10000000D01*
X10000000Y-10000000D02*
X10000000Y-7500000D01*
X10000000Y-7500000D02*
X12500000Y-7500000D01*
X12500000Y-10000000D02*
X12500000Y-7500000D01*
X12500000Y-10000000D02*
X10000000Y-10000000D01*
X12500000Y-7500000D02*
X12500000Y-10000000D01*
X17500000Y-10000000D02*
X17500000Y-7500000D01*
X20000000Y-10000000D02*
X17500000Y-10000000D01*
X17500000Y-10000000D02*
X15000000Y-10000000D01*
X17500000Y-7500000D02*
X20000000Y-7500000D01*
X20000000Y-7500000D02*
X20000000Y-10000000D01*
X17500000Y-7500000D02*
X17500000Y-10000000D01*
X15000000Y-7500000D02*
X17500000Y-7500000D01*
X17500000Y-5000000D02*
X20000000Y-5000000D01*
X20000000Y-5000000D02*
X20000000Y-7500000D01*
X20000000Y-7500000D02*
X17500000Y-7500000D01*
X17500000Y-7500000D02*
X17500000Y-5000000D01*
X15000000Y-5000000D02*
X17500000Y-5000000D01*
X17500000Y-5000000D02*
X17500000Y-7500000D01*
X17500000Y-7500000D02*
X15000000Y-7500000D01*
X15000000Y-7500000D02*
X15000000Y-5000000D01*
X12500000Y-5000000D02*
X15000000Y-5000000D01*
X15000000Y-5000000D02*
X15000000Y-7500000D01*
X15000000Y-7500000D02*
X12500000Y-7500000D01*
X12500000Y-7500000D02*
X12500000Y-5000000D01*
X10000000Y-7500000D02*
X10000000Y-5000000D01*
X12500000Y-7500000D02*
X10000000Y-7500000D01*
X12500000Y-5000000D02*
X12500000Y-7500000D01*
X10000000Y-5000000D02*
X12500000Y-5000000D01*
D12*
X10094280Y-5208580D02*
X10134280Y-5248580D01*
X10134280Y-5208580D02*
X10094280Y-5248580D01*
X10094280Y-7708580D02*
X10134280Y-7748580D01*
X10134280Y-7708580D02*
X10094280Y-7748580D01*
X10094280Y-10208580D02*
X10134280Y-10248580D01*
X10134280Y-10208580D02*
X10094280Y-10248580D01*
X10094280Y-12708580D02*
X10134280Y-12748580D01*
X10134280Y-12708580D02*
X10094280Y-12748580D01*
X10106980Y-5099360D02*
X10146980Y-5139360D01*
X10146980Y-5099360D02*
X10106980Y-5139360D01*
X10106980Y-7599360D02*
X10146980Y-7639360D01*
X10146980Y-7599360D02*
X10106980Y-7639360D01*
X10106980Y-10099360D02*
X10146980Y-10139360D01*
X10146980Y-10099360D02*
X10106980Y-10139360D01*
X10106980Y-12599360D02*
X10146980Y-12639360D01*
X10146980Y-12599360D02*
X10106980Y-12639360D01*
X10140000Y-5540000D02*
X10180000Y-5580000D01*
X10180000Y-5540000D02*
X10140000Y-5580000D01*
X10140000Y-6900220D02*
X10180000Y-6940220D01*
X10180000Y-6900220D02*
X10140000Y-6940220D01*
X10140000Y-8040000D02*
X10180000Y-8080000D01*
X10180000Y-8040000D02*
X10140000Y-8080000D01*
X10140000Y-9400220D02*
X10180000Y-9440220D01*
X10180000Y-9400220D02*
X10140000Y-9440220D01*
X10140000Y-10540000D02*
X10180000Y-10580000D01*
X10180000Y-10540000D02*
X10140000Y-10580000D01*
X10140000Y-11900220D02*
X10180000Y-11940220D01*
X10180000Y-11900220D02*
X10140000Y-11940220D01*
X10140000Y-13040000D02*
X10180000Y-13080000D01*
X10180000Y-13040000D02*
X10140000Y-13080000D01*
X10140000Y-14400220D02*
X10180000Y-14440220D01*
X10180000Y-14400220D02*
X10140000Y-14440220D01*
X10432100Y-7022140D02*
X10472100Y-7062140D01*
X10472100Y-7022140D02*
X10432100Y-7062140D01*
X10432100Y-9522140D02*
X10472100Y-9562140D01*
X10472100Y-9522140D02*
X10432100Y-9562140D01*
X10432100Y-12022140D02*
X10472100Y-12062140D01*
X10472100Y-12022140D02*
X10432100Y-12062140D01*
X10432100Y-14522140D02*
X10472100Y-14562140D01*
X10472100Y-14522140D02*
X10432100Y-14562140D01*
X10434640Y-6084880D02*
X10474640Y-6124880D01*
X10474640Y-6084880D02*
X10434640Y-6124880D01*
X10434640Y-6410000D02*
X10474640Y-6450000D01*
X10474640Y-6410000D02*
X10434640Y-6450000D01*
X10434640Y-8584880D02*
X10474640Y-8624880D01*
X10474640Y-8584880D02*
X10434640Y-8624880D01*
X10434640Y-8910000D02*
X10474640Y-8950000D01*
X10474640Y-8910000D02*
X10434640Y-8950000D01*
X10434640Y-11084880D02*
X10474640Y-11124880D01*
X10474640Y-11084880D02*
X10434640Y-11124880D01*
X10434640Y-11410000D02*
X10474640Y-11450000D01*
X10474640Y-11410000D02*
X10434640Y-11450000D01*
X10434640Y-13584880D02*
X10474640Y-13624880D01*
X10474640Y-13584880D02*
X10434640Y-13624880D01*
X10434640Y-13910000D02*
X10474640Y-13950000D01*
X10474640Y-13910000D02*
X10434640Y-13950000D01*
X10434840Y-5757020D02*
X10474840Y-5797020D01*
X10474840Y-5757020D02*
X10434840Y-5797020D01*
X10434840Y-8257020D02*
X10474840Y-8297020D01*
X10474840Y-8257020D02*
X10434840Y-8297020D01*
X10434840Y-10757020D02*
X10474840Y-10797020D01*
X10474840Y-10757020D02*
X10434840Y-10797020D01*
X10434840Y-13257020D02*
X10474840Y-13297020D01*
X10474840Y-13257020D02*
X10434840Y-13297020D01*
X10599740Y-5617520D02*
X10639740Y-5657520D01*
X10639740Y-5617520D02*
X10599740Y-5657520D01*
X10599740Y-8117520D02*
X10639740Y-8157520D01*
X10639740Y-8117520D02*
X10599740Y-8157520D01*
X10599740Y-10617520D02*
X10639740Y-10657520D01*
X10639740Y-10617520D02*
X10599740Y-10657520D01*
X10599740Y-13117520D02*
X10639740Y-13157520D01*
X10639740Y-13117520D02*
X10599740Y-13157520D01*
X10748139Y-7277475D02*
X10788139Y-7317475D01*
X10788139Y-7277475D02*
X10748139Y-7317475D01*
X10748139Y-9777475D02*
X10788139Y-9817475D01*
X10788139Y-9777475D02*
X10748139Y-9817475D01*
X10748139Y-12277475D02*
X10788139Y-12317475D01*
X10788139Y-12277475D02*
X10748139Y-12317475D01*
X10748139Y-14777475D02*
X10788139Y-14817475D01*
X10788139Y-14777475D02*
X10748139Y-14817475D01*
X10757220Y-6305860D02*
X10797220Y-6345860D01*
X10797220Y-6305860D02*
X10757220Y-6345860D01*
X10757220Y-8805860D02*
X10797220Y-8845860D01*
X10797220Y-8805860D02*
X10757220Y-8845860D01*
X10757220Y-11305860D02*
X10797220Y-11345860D01*
X10797220Y-11305860D02*
X10757220Y-11345860D01*
X10757220Y-13805860D02*
X10797220Y-13845860D01*
X10797220Y-13805860D02*
X10757220Y-13845860D01*
X10762300Y-5373680D02*
X10802300Y-5413680D01*
X10802300Y-5373680D02*
X10762300Y-5413680D01*
X10762300Y-7873680D02*
X10802300Y-7913680D01*
X10802300Y-7873680D02*
X10762300Y-7913680D01*
X10762300Y-10373680D02*
X10802300Y-10413680D01*
X10802300Y-10373680D02*
X10762300Y-10413680D01*
X10762300Y-12873680D02*
X10802300Y-12913680D01*
X10802300Y-12873680D02*
X10762300Y-12913680D01*
X10823260Y-6587800D02*
X10863260Y-6627800D01*
X10863260Y-6587800D02*
X10823260Y-6627800D01*
X10823260Y-6816400D02*
X10863260Y-6856400D01*
X10863260Y-6816400D02*
X10823260Y-6856400D01*
X10823260Y-9087800D02*
X10863260Y-9127800D01*
X10863260Y-9087800D02*
X10823260Y-9127800D01*
X10823260Y-9316400D02*
X10863260Y-9356400D01*
X10863260Y-9316400D02*
X10823260Y-9356400D01*
X10823260Y-11587800D02*
X10863260Y-11627800D01*
X10863260Y-11587800D02*
X10823260Y-11627800D01*
X10823260Y-11816400D02*
X10863260Y-11856400D01*
X10863260Y-11816400D02*
X10823260Y-11856400D01*
X10823260Y-14087800D02*
X10863260Y-14127800D01*
X10863260Y-14087800D02*
X10823260Y-14127800D01*
X10823260Y-14316400D02*
X10863260Y-14356400D01*
X10863260Y-14316400D02*
X10823260Y-14356400D01*
X10983280Y-6503980D02*
X11023280Y-6543980D01*
X11023280Y-6503980D02*
X10983280Y-6543980D01*
X10983280Y-6844340D02*
X11023280Y-6884340D01*
X11023280Y-6844340D02*
X10983280Y-6884340D01*
X10983280Y-9003980D02*
X11023280Y-9043980D01*
X11023280Y-9003980D02*
X10983280Y-9043980D01*
X10983280Y-9344340D02*
X11023280Y-9384340D01*
X11023280Y-9344340D02*
X10983280Y-9384340D01*
X10983280Y-11503980D02*
X11023280Y-11543980D01*
X11023280Y-11503980D02*
X10983280Y-11543980D01*
X10983280Y-11844340D02*
X11023280Y-11884340D01*
X11023280Y-11844340D02*
X10983280Y-11884340D01*
X10983280Y-14003980D02*
X11023280Y-14043980D01*
X11023280Y-14003980D02*
X10983280Y-14043980D01*
X10983280Y-14344340D02*
X11023280Y-14384340D01*
X11023280Y-14344340D02*
X10983280Y-14384340D01*
X10995980Y-5162860D02*
X11035980Y-5202860D01*
X11035980Y-5162860D02*
X10995980Y-5202860D01*
X10995980Y-7662860D02*
X11035980Y-7702860D01*
X11035980Y-7662860D02*
X10995980Y-7702860D01*
X10995980Y-10162860D02*
X11035980Y-10202860D01*
X11035980Y-10162860D02*
X10995980Y-10202860D01*
X10995980Y-12662860D02*
X11035980Y-12702860D01*
X11035980Y-12662860D02*
X10995980Y-12702860D01*
X11011220Y-7009440D02*
X11051220Y-7049440D01*
X11051220Y-7009440D02*
X11011220Y-7049440D01*
X11011220Y-9509440D02*
X11051220Y-9549440D01*
X11051220Y-9509440D02*
X11011220Y-9549440D01*
X11011220Y-12009440D02*
X11051220Y-12049440D01*
X11051220Y-12009440D02*
X11011220Y-12049440D01*
X11011220Y-14509440D02*
X11051220Y-14549440D01*
X11051220Y-14509440D02*
X11011220Y-14549440D01*
X11034903Y-5823260D02*
X11074903Y-5863260D01*
X11074903Y-5823260D02*
X11034903Y-5863260D01*
X11034903Y-8323260D02*
X11074903Y-8363260D01*
X11074903Y-8323260D02*
X11034903Y-8363260D01*
X11034903Y-10823260D02*
X11074903Y-10863260D01*
X11074903Y-10823260D02*
X11034903Y-10863260D01*
X11034903Y-13323260D02*
X11074903Y-13363260D01*
X11074903Y-13323260D02*
X11034903Y-13363260D01*
X11178860Y-6272840D02*
X11218860Y-6312840D01*
X11218860Y-6272840D02*
X11178860Y-6312840D01*
X11178860Y-8772840D02*
X11218860Y-8812840D01*
X11218860Y-8772840D02*
X11178860Y-8812840D01*
X11178860Y-11272840D02*
X11218860Y-11312840D01*
X11218860Y-11272840D02*
X11178860Y-11312840D01*
X11178860Y-13772840D02*
X11218860Y-13812840D01*
X11218860Y-13772840D02*
X11178860Y-13812840D01*
X11314725Y-5831754D02*
X11354725Y-5871754D01*
X11354725Y-5831754D02*
X11314725Y-5871754D01*
X11314725Y-8331754D02*
X11354725Y-8371754D01*
X11354725Y-8331754D02*
X11314725Y-8371754D01*
X11314725Y-10831754D02*
X11354725Y-10871754D01*
X11354725Y-10831754D02*
X11314725Y-10871754D01*
X11314725Y-13331754D02*
X11354725Y-13371754D01*
X11354725Y-13331754D02*
X11314725Y-13371754D01*
X11389680Y-6595680D02*
X11429680Y-6635680D01*
X11429680Y-6595680D02*
X11389680Y-6635680D01*
X11389680Y-9095680D02*
X11429680Y-9135680D01*
X11429680Y-9095680D02*
X11389680Y-9135680D01*
X11389680Y-11595680D02*
X11429680Y-11635680D01*
X11429680Y-11595680D02*
X11389680Y-11635680D01*
X11389680Y-14095680D02*
X11429680Y-14135680D01*
X11429680Y-14095680D02*
X11389680Y-14135680D01*
X11392220Y-5374140D02*
X11432220Y-5414140D01*
X11432220Y-5374140D02*
X11392220Y-5414140D01*
X11392220Y-7874140D02*
X11432220Y-7914140D01*
X11432220Y-7874140D02*
X11392220Y-7914140D01*
X11392220Y-10374140D02*
X11432220Y-10414140D01*
X11432220Y-10374140D02*
X11392220Y-10414140D01*
X11392220Y-12874140D02*
X11432220Y-12914140D01*
X11432220Y-12874140D02*
X11392220Y-12914140D01*
X11405180Y-6173780D02*
X11445180Y-6213780D01*
X11445180Y-6173780D02*
X11405180Y-6213780D01*
X11405180Y-8673780D02*
X11445180Y-8713780D01*
X11445180Y-8673780D02*
X11405180Y-8713780D01*
X11405180Y-11173780D02*
X11445180Y-11213780D01*
X11445180Y-11173780D02*
X11405180Y-11213780D01*
X11405180Y-13673780D02*
X11445180Y-13713780D01*
X11445180Y-13673780D02*
X11405180Y-13713780D01*
X11412540Y-5708960D02*
X11452540Y-5748960D01*
X11452540Y-5708960D02*
X11412540Y-5748960D01*
X11412540Y-8208960D02*
X11452540Y-8248960D01*
X11452540Y-8208960D02*
X11412540Y-8248960D01*
X11412540Y-10708960D02*
X11452540Y-10748960D01*
X11452540Y-10708960D02*
X11412540Y-10748960D01*
X11412540Y-13208960D02*
X11452540Y-13248960D01*
X11452540Y-13208960D02*
X11412540Y-13248960D01*
X11435400Y-6999280D02*
X11475400Y-7039280D01*
X11475400Y-6999280D02*
X11435400Y-7039280D01*
X11435400Y-9499280D02*
X11475400Y-9539280D01*
X11475400Y-9499280D02*
X11435400Y-9539280D01*
X11435400Y-11999280D02*
X11475400Y-12039280D01*
X11475400Y-11999280D02*
X11435400Y-12039280D01*
X11435400Y-14499280D02*
X11475400Y-14539280D01*
X11475400Y-14499280D02*
X11435400Y-14539280D01*
X11636060Y-7354880D02*
X11676060Y-7394880D01*
X11676060Y-7354880D02*
X11636060Y-7394880D01*
X11636060Y-9854880D02*
X11676060Y-9894880D01*
X11676060Y-9854880D02*
X11636060Y-9894880D01*
X11636060Y-12354880D02*
X11676060Y-12394880D01*
X11676060Y-12354880D02*
X11636060Y-12394880D01*
X11636060Y-14854880D02*
X11676060Y-14894880D01*
X11676060Y-14854880D02*
X11636060Y-14894880D01*
X12004360Y-7060240D02*
X12044360Y-7100240D01*
X12044360Y-7060240D02*
X12004360Y-7100240D01*
X12004360Y-9560240D02*
X12044360Y-9600240D01*
X12044360Y-9560240D02*
X12004360Y-9600240D01*
X12004360Y-12060240D02*
X12044360Y-12100240D01*
X12044360Y-12060240D02*
X12004360Y-12100240D01*
X12004360Y-14560240D02*
X12044360Y-14600240D01*
X12044360Y-14560240D02*
X12004360Y-14600240D01*
X12022140Y-5838500D02*
X12062140Y-5878500D01*
X12062140Y-5838500D02*
X12022140Y-5878500D01*
X12022140Y-8338500D02*
X12062140Y-8378500D01*
X12062140Y-8338500D02*
X12022140Y-8378500D01*
X12022140Y-10838500D02*
X12062140Y-10878500D01*
X12062140Y-10838500D02*
X12022140Y-10878500D01*
X12022140Y-13338500D02*
X12062140Y-13378500D01*
X12062140Y-13338500D02*
X12022140Y-13378500D01*
X12594280Y-5208580D02*
X12634280Y-5248580D01*
X12634280Y-5208580D02*
X12594280Y-5248580D01*
X12594280Y-7708580D02*
X12634280Y-7748580D01*
X12634280Y-7708580D02*
X12594280Y-7748580D01*
X12594280Y-10208580D02*
X12634280Y-10248580D01*
X12634280Y-10208580D02*
X12594280Y-10248580D01*
X12594280Y-12708580D02*
X12634280Y-12748580D01*
X12634280Y-12708580D02*
X12594280Y-12748580D01*
X12606980Y-5099360D02*
X12646980Y-5139360D01*
X12646980Y-5099360D02*
X12606980Y-5139360D01*
X12606980Y-7599360D02*
X12646980Y-7639360D01*
X12646980Y-7599360D02*
X12606980Y-7639360D01*
X12606980Y-10099360D02*
X12646980Y-10139360D01*
X12646980Y-10099360D02*
X12606980Y-10139360D01*
X12606980Y-12599360D02*
X12646980Y-12639360D01*
X12646980Y-12599360D02*
X12606980Y-12639360D01*
X12640000Y-5540000D02*
X12680000Y-5580000D01*
X12680000Y-5540000D02*
X12640000Y-5580000D01*
X12640000Y-6900220D02*
X12680000Y-6940220D01*
X12680000Y-6900220D02*
X12640000Y-6940220D01*
X12640000Y-8040000D02*
X12680000Y-8080000D01*
X12680000Y-8040000D02*
X12640000Y-8080000D01*
X12640000Y-9400220D02*
X12680000Y-9440220D01*
X12680000Y-9400220D02*
X12640000Y-9440220D01*
X12640000Y-10540000D02*
X12680000Y-10580000D01*
X12680000Y-10540000D02*
X12640000Y-10580000D01*
X12640000Y-11900220D02*
X12680000Y-11940220D01*
X12680000Y-11900220D02*
X12640000Y-11940220D01*
X12640000Y-13040000D02*
X12680000Y-13080000D01*
X12680000Y-13040000D02*
X12640000Y-13080000D01*
X12640000Y-14400220D02*
X12680000Y-14440220D01*
X12680000Y-14400220D02*
X12640000Y-14440220D01*
X12932100Y-7022140D02*
X12972100Y-7062140D01*
X12972100Y-7022140D02*
X12932100Y-7062140D01*
X12932100Y-9522140D02*
X12972100Y-9562140D01*
X12972100Y-9522140D02*
X12932100Y-9562140D01*
X12932100Y-12022140D02*
X12972100Y-12062140D01*
X12972100Y-12022140D02*
X12932100Y-12062140D01*
X12932100Y-14522140D02*
X12972100Y-14562140D01*
X12972100Y-14522140D02*
X12932100Y-14562140D01*
X12934640Y-6084880D02*
X12974640Y-6124880D01*
X12974640Y-6084880D02*
X12934640Y-6124880D01*
X12934640Y-6410000D02*
X12974640Y-6450000D01*
X12974640Y-6410000D02*
X12934640Y-6450000D01*
X12934640Y-8584880D02*
X12974640Y-8624880D01*
X12974640Y-8584880D02*
X12934640Y-8624880D01*
X12934640Y-8910000D02*
X12974640Y-8950000D01*
X12974640Y-8910000D02*
X12934640Y-8950000D01*
X12934640Y-11084880D02*
X12974640Y-11124880D01*
X12974640Y-11084880D02*
X12934640Y-11124880D01*
X12934640Y-11410000D02*
X12974640Y-11450000D01*
X12974640Y-11410000D02*
X12934640Y-11450000D01*
X12934640Y-13584880D02*
X12974640Y-13624880D01*
X12974640Y-13584880D02*
X12934640Y-13624880D01*
X12934640Y-13910000D02*
X12974640Y-13950000D01*
X12974640Y-13910000D02*
X12934640Y-13950000D01*
X12934840Y-5757020D02*
X12974840Y-5797020D01*
X12974840Y-5757020D02*
X12934840Y-5797020D01*
X12934840Y-8257020D02*
X12974840Y-8297020D01*
X12974840Y-8257020D02*
X12934840Y-8297020D01*
X12934840Y-10757020D02*
X12974840Y-10797020D01*
X12974840Y-10757020D02*
X12934840Y-10797020D01*
X12934840Y-13257020D02*
X12974840Y-13297020D01*
X12974840Y-13257020D02*
X12934840Y-13297020D01*
X13099740Y-5617520D02*
X13139740Y-5657520D01*
X13139740Y-5617520D02*
X13099740Y-5657520D01*
X13099740Y-8117520D02*
X13139740Y-8157520D01*
X13139740Y-8117520D02*
X13099740Y-8157520D01*
X13099740Y-10617520D02*
X13139740Y-10657520D01*
X13139740Y-10617520D02*
X13099740Y-10657520D01*
X13099740Y-13117520D02*
X13139740Y-13157520D01*
X13139740Y-13117520D02*
X13099740Y-13157520D01*
X13248139Y-7277475D02*
X13288139Y-7317475D01*
X13288139Y-7277475D02*
X13248139Y-7317475D01*
X13248139Y-9777475D02*
X13288139Y-9817475D01*
X13288139Y-9777475D02*
X13248139Y-9817475D01*
X13248139Y-12277475D02*
X13288139Y-12317475D01*
X13288139Y-12277475D02*
X13248139Y-12317475D01*
X13248139Y-14777475D02*
X13288139Y-14817475D01*
X13288139Y-14777475D02*
X13248139Y-14817475D01*
X13257220Y-6305860D02*
X13297220Y-6345860D01*
X13297220Y-6305860D02*
X13257220Y-6345860D01*
X13257220Y-8805860D02*
X13297220Y-8845860D01*
X13297220Y-8805860D02*
X13257220Y-8845860D01*
X13257220Y-11305860D02*
X13297220Y-11345860D01*
X13297220Y-11305860D02*
X13257220Y-11345860D01*
X13257220Y-13805860D02*
X13297220Y-13845860D01*
X13297220Y-13805860D02*
X13257220Y-13845860D01*
X13262300Y-5373680D02*
X13302300Y-5413680D01*
X13302300Y-5373680D02*
X13262300Y-5413680D01*
X13262300Y-7873680D02*
X13302300Y-7913680D01*
X13302300Y-7873680D02*
X13262300Y-7913680D01*
X13262300Y-10373680D02*
X13302300Y-10413680D01*
X13302300Y-10373680D02*
X13262300Y-10413680D01*
X13262300Y-12873680D02*
X13302300Y-12913680D01*
X13302300Y-12873680D02*
X13262300Y-12913680D01*
X13323260Y-6587800D02*
X13363260Y-6627800D01*
X13363260Y-6587800D02*
X13323260Y-6627800D01*
X13323260Y-6816400D02*
X13363260Y-6856400D01*
X13363260Y-6816400D02*
X13323260Y-6856400D01*
X13323260Y-9087800D02*
X13363260Y-9127800D01*
X13363260Y-9087800D02*
X13323260Y-9127800D01*
X13323260Y-9316400D02*
X13363260Y-9356400D01*
X13363260Y-9316400D02*
X13323260Y-9356400D01*
X13323260Y-11587800D02*
X13363260Y-11627800D01*
X13363260Y-11587800D02*
X13323260Y-11627800D01*
X13323260Y-11816400D02*
X13363260Y-11856400D01*
X13363260Y-11816400D02*
X13323260Y-11856400D01*
X13323260Y-14087800D02*
X13363260Y-14127800D01*
X13363260Y-14087800D02*
X13323260Y-14127800D01*
X13323260Y-14316400D02*
X13363260Y-14356400D01*
X13363260Y-14316400D02*
X13323260Y-14356400D01*
X13483280Y-6503980D02*
X13523280Y-6543980D01*
X13523280Y-6503980D02*
X13483280Y-6543980D01*
X13483280Y-6844340D02*
X13523280Y-6884340D01*
X13523280Y-6844340D02*
X13483280Y-6884340D01*
X13483280Y-9003980D02*
X13523280Y-9043980D01*
X13523280Y-9003980D02*
X13483280Y-9043980D01*
X13483280Y-9344340D02*
X13523280Y-9384340D01*
X13523280Y-9344340D02*
X13483280Y-9384340D01*
X13483280Y-11503980D02*
X13523280Y-11543980D01*
X13523280Y-11503980D02*
X13483280Y-11543980D01*
X13483280Y-11844340D02*
X13523280Y-11884340D01*
X13523280Y-11844340D02*
X13483280Y-11884340D01*
X13483280Y-14003980D02*
X13523280Y-14043980D01*
X13523280Y-14003980D02*
X13483280Y-14043980D01*
X13483280Y-14344340D02*
X13523280Y-14384340D01*
X13523280Y-14344340D02*
X13483280Y-14384340D01*
X13495980Y-5162860D02*
X13535980Y-5202860D01*
X13535980Y-5162860D02*
X13495980Y-5202860D01*
X13495980Y-7662860D02*
X13535980Y-7702860D01*
X13535980Y-7662860D02*
X13495980Y-7702860D01*
X13495980Y-10162860D02*
X13535980Y-10202860D01*
X13535980Y-10162860D02*
X13495980Y-10202860D01*
X13495980Y-12662860D02*
X13535980Y-12702860D01*
X13535980Y-12662860D02*
X13495980Y-12702860D01*
X13511220Y-7009440D02*
X13551220Y-7049440D01*
X13551220Y-7009440D02*
X13511220Y-7049440D01*
X13511220Y-9509440D02*
X13551220Y-9549440D01*
X13551220Y-9509440D02*
X13511220Y-9549440D01*
X13511220Y-12009440D02*
X13551220Y-12049440D01*
X13551220Y-12009440D02*
X13511220Y-12049440D01*
X13511220Y-14509440D02*
X13551220Y-14549440D01*
X13551220Y-14509440D02*
X13511220Y-14549440D01*
X13534903Y-5823260D02*
X13574903Y-5863260D01*
X13574903Y-5823260D02*
X13534903Y-5863260D01*
X13534903Y-8323260D02*
X13574903Y-8363260D01*
X13574903Y-8323260D02*
X13534903Y-8363260D01*
X13534903Y-10823260D02*
X13574903Y-10863260D01*
X13574903Y-10823260D02*
X13534903Y-10863260D01*
X13534903Y-13323260D02*
X13574903Y-13363260D01*
X13574903Y-13323260D02*
X13534903Y-13363260D01*
X13678860Y-6272840D02*
X13718860Y-6312840D01*
X13718860Y-6272840D02*
X13678860Y-6312840D01*
X13678860Y-8772840D02*
X13718860Y-8812840D01*
X13718860Y-8772840D02*
X13678860Y-8812840D01*
X13678860Y-11272840D02*
X13718860Y-11312840D01*
X13718860Y-11272840D02*
X13678860Y-11312840D01*
X13678860Y-13772840D02*
X13718860Y-13812840D01*
X13718860Y-13772840D02*
X13678860Y-13812840D01*
X13814725Y-5831754D02*
X13854725Y-5871754D01*
X13854725Y-5831754D02*
X13814725Y-5871754D01*
X13814725Y-8331754D02*
X13854725Y-8371754D01*
X13854725Y-8331754D02*
X13814725Y-8371754D01*
X13814725Y-10831754D02*
X13854725Y-10871754D01*
X13854725Y-10831754D02*
X13814725Y-10871754D01*
X13814725Y-13331754D02*
X13854725Y-13371754D01*
X13854725Y-13331754D02*
X13814725Y-13371754D01*
X13889680Y-6595680D02*
X13929680Y-6635680D01*
X13929680Y-6595680D02*
X13889680Y-6635680D01*
X13889680Y-9095680D02*
X13929680Y-9135680D01*
X13929680Y-9095680D02*
X13889680Y-9135680D01*
X13889680Y-11595680D02*
X13929680Y-11635680D01*
X13929680Y-11595680D02*
X13889680Y-11635680D01*
X13889680Y-14095680D02*
X13929680Y-14135680D01*
X13929680Y-14095680D02*
X13889680Y-14135680D01*
X13892220Y-5374140D02*
X13932220Y-5414140D01*
X13932220Y-5374140D02*
X13892220Y-5414140D01*
X13892220Y-7874140D02*
X13932220Y-7914140D01*
X13932220Y-7874140D02*
X13892220Y-7914140D01*
X13892220Y-10374140D02*
X13932220Y-10414140D01*
X13932220Y-10374140D02*
X13892220Y-10414140D01*
X13892220Y-12874140D02*
X13932220Y-12914140D01*
X13932220Y-12874140D02*
X13892220Y-12914140D01*
X13905180Y-6173780D02*
X13945180Y-6213780D01*
X13945180Y-6173780D02*
X13905180Y-6213780D01*
X13905180Y-8673780D02*
X13945180Y-8713780D01*
X13945180Y-8673780D02*
X13905180Y-8713780D01*
X13905180Y-11173780D02*
X13945180Y-11213780D01*
X13945180Y-11173780D02*
X13905180Y-11213780D01*
X13905180Y-13673780D02*
X13945180Y-13713780D01*
X13945180Y-13673780D02*
X13905180Y-13713780D01*
X13912540Y-5708960D02*
X13952540Y-5748960D01*
X13952540Y-5708960D02*
X13912540Y-5748960D01*
X13912540Y-8208960D02*
X13952540Y-8248960D01*
X13952540Y-8208960D02*
X13912540Y-8248960D01*
X13912540Y-10708960D02*
X13952540Y-10748960D01*
X13952540Y-10708960D02*
X13912540Y-10748960D01*
X13912540Y-13208960D02*
X13952540Y-13248960D01*
X13952540Y-13208960D02*
X13912540Y-13248960D01*
X13935400Y-6999280D02*
X13975400Y-7039280D01*
X13975400Y-6999280D02*
X13935400Y-7039280D01*
X13935400Y-9499280D02*
X13975400Y-9539280D01*
X13975400Y-9499280D02*
X13935400Y-9539280D01*
X13935400Y-11999280D02*
X13975400Y-12039280D01*
X13975400Y-11999280D02*
X13935400Y-12039280D01*
X13935400Y-14499280D02*
X13975400Y-14539280D01*
X13975400Y-14499280D02*
X13935400Y-14539280D01*
X14136060Y-7354880D02*
X14176060Y-7394880D01*
X14176060Y-7354880D02*
X14136060Y-7394880D01*
X14136060Y-9854880D02*
X14176060Y-9894880D01*
X14176060Y-9854880D02*
X14136060Y-9894880D01*
X14136060Y-12354880D02*
X14176060Y-12394880D01*
X14176060Y-12354880D02*
X14136060Y-12394880D01*
X14136060Y-14854880D02*
X14176060Y-14894880D01*
X14176060Y-14854880D02*
X14136060Y-14894880D01*
X14504360Y-7060240D02*
X14544360Y-7100240D01*
X14544360Y-7060240D02*
X14504360Y-7100240D01*
X14504360Y-9560240D02*
X14544360Y-9600240D01*
X14544360Y-9560240D02*
X14504360Y-9600240D01*
X14504360Y-12060240D02*
X14544360Y-12100240D01*
X14544360Y-12060240D02*
X14504360Y-12100240D01*
X14504360Y-14560240D02*
X14544360Y-14600240D01*
X14544360Y-14560240D02*
X14504360Y-14600240D01*
X14522140Y-5838500D02*
X14562140Y-5878500D01*
X14562140Y-5838500D02*
X14522140Y-5878500D01*
X14522140Y-8338500D02*
X14562140Y-8378500D01*
X14562140Y-8338500D02*
X14522140Y-8378500D01*
X14522140Y-10838500D02*
X14562140Y-10878500D01*
X14562140Y-10838500D02*
X14522140Y-10878500D01*
X14522140Y-13338500D02*
X14562140Y-13378500D01*
X14562140Y-13338500D02*
X14522140Y-13378500D01*
X15094280Y-5208580D02*
X15134280Y-5248580D01*
X15134280Y-5208580D02*
X15094280Y-5248580D01*
X15094280Y-7708580D02*
X15134280Y-7748580D01*
X15134280Y-7708580D02*
X15094280Y-7748580D01*
X15094280Y-10208580D02*
X15134280Y-10248580D01*
X15134280Y-10208580D02*
X15094280Y-10248580D01*
X15094280Y-12708580D02*
X15134280Y-12748580D01*
X15134280Y-12708580D02*
X15094280Y-12748580D01*
X15106980Y-5099360D02*
X15146980Y-5139360D01*
X15146980Y-5099360D02*
X15106980Y-5139360D01*
X15106980Y-7599360D02*
X15146980Y-7639360D01*
X15146980Y-7599360D02*
X15106980Y-7639360D01*
X15106980Y-10099360D02*
X15146980Y-10139360D01*
X15146980Y-10099360D02*
X15106980Y-10139360D01*
X15106980Y-12599360D02*
X15146980Y-12639360D01*
X15146980Y-12599360D02*
X15106980Y-12639360D01*
X15140000Y-5540000D02*
X15180000Y-5580000D01*
X15180000Y-5540000D02*
X15140000Y-5580000D01*
X15140000Y-6900220D02*
X15180000Y-6940220D01*
X15180000Y-6900220D02*
X15140000Y-6940220D01*
X15140000Y-8040000D02*
X15180000Y-8080000D01*
X15180000Y-8040000D02*
X15140000Y-8080000D01*
X15140000Y-9400220D02*
X15180000Y-9440220D01*
X15180000Y-9400220D02*
X15140000Y-9440220D01*
X15140000Y-10540000D02*
X15180000Y-10580000D01*
X15180000Y-10540000D02*
X15140000Y-10580000D01*
X15140000Y-11900220D02*
X15180000Y-11940220D01*
X15180000Y-11900220D02*
X15140000Y-11940220D01*
X15140000Y-13040000D02*
X15180000Y-13080000D01*
X15180000Y-13040000D02*
X15140000Y-13080000D01*
X15140000Y-14400220D02*
X15180000Y-14440220D01*
X15180000Y-14400220D02*
X15140000Y-14440220D01*
X15432100Y-7022140D02*
X15472100Y-7062140D01*
X15472100Y-7022140D02*
X15432100Y-7062140D01*
X15432100Y-9522140D02*
X15472100Y-9562140D01*
X15472100Y-9522140D02*
X15432100Y-9562140D01*
X15432100Y-12022140D02*
X15472100Y-12062140D01*
X15472100Y-12022140D02*
X15432100Y-12062140D01*
X15432100Y-14522140D02*
X15472100Y-14562140D01*
X15472100Y-14522140D02*
X15432100Y-14562140D01*
X15434640Y-6084880D02*
X15474640Y-6124880D01*
X15474640Y-6084880D02*
X15434640Y-6124880D01*
X15434640Y-6410000D02*
X15474640Y-6450000D01*
X15474640Y-6410000D02*
X15434640Y-6450000D01*
X15434640Y-8584880D02*
X15474640Y-8624880D01*
X15474640Y-8584880D02*
X15434640Y-8624880D01*
X15434640Y-8910000D02*
X15474640Y-8950000D01*
X15474640Y-8910000D02*
X15434640Y-8950000D01*
X15434640Y-11084880D02*
X15474640Y-11124880D01*
X15474640Y-11084880D02*
X15434640Y-11124880D01*
X15434640Y-11410000D02*
X15474640Y-11450000D01*
X15474640Y-11410000D02*
X15434640Y-11450000D01*
X15434640Y-13584880D02*
X15474640Y-13624880D01*
X15474640Y-13584880D02*
X15434640Y-13624880D01*
X15434640Y-13910000D02*
X15474640Y-13950000D01*
X15474640Y-13910000D02*
X15434640Y-13950000D01*
X15434840Y-5757020D02*
X15474840Y-5797020D01*
X15474840Y-5757020D02*
X15434840Y-5797020D01*
X15434840Y-8257020D02*
X15474840Y-8297020D01*
X15474840Y-8257020D02*
X15434840Y-8297020D01*
X15434840Y-10757020D02*
X15474840Y-10797020D01*
X15474840Y-10757020D02*
X15434840Y-10797020D01*
X15434840Y-13257020D02*
X15474840Y-13297020D01*
X15474840Y-13257020D02*
X15434840Y-13297020D01*
X15599740Y-5617520D02*
X15639740Y-5657520D01*
X15639740Y-5617520D02*
X15599740Y-5657520D01*
X15599740Y-8117520D02*
X15639740Y-8157520D01*
X15639740Y-8117520D02*
X15599740Y-8157520D01*
X15599740Y-10617520D02*
X15639740Y-10657520D01*
X15639740Y-10617520D02*
X15599740Y-10657520D01*
X15599740Y-13117520D02*
X15639740Y-13157520D01*
X15639740Y-13117520D02*
X15599740Y-13157520D01*
X15748139Y-7277475D02*
X15788139Y-7317475D01*
X15788139Y-7277475D02*
X15748139Y-7317475D01*
X15748139Y-9777475D02*
X15788139Y-9817475D01*
X15788139Y-9777475D02*
X15748139Y-9817475D01*
X15748139Y-12277475D02*
X15788139Y-12317475D01*
X15788139Y-12277475D02*
X15748139Y-12317475D01*
X15748139Y-14777475D02*
X15788139Y-14817475D01*
X15788139Y-14777475D02*
X15748139Y-14817475D01*
X15757220Y-6305860D02*
X15797220Y-6345860D01*
X15797220Y-6305860D02*
X15757220Y-6345860D01*
X15757220Y-8805860D02*
X15797220Y-8845860D01*
X15797220Y-8805860D02*
X15757220Y-8845860D01*
X15757220Y-11305860D02*
X15797220Y-11345860D01*
X15797220Y-11305860D02*
X15757220Y-11345860D01*
X15757220Y-13805860D02*
X15797220Y-13845860D01*
X15797220Y-13805860D02*
X15757220Y-13845860D01*
X15762300Y-5373680D02*
X15802300Y-5413680D01*
X15802300Y-5373680D02*
X15762300Y-5413680D01*
X15762300Y-7873680D02*
X15802300Y-7913680D01*
X15802300Y-7873680D02*
X15762300Y-7913680D01*
X15762300Y-10373680D02*
X15802300Y-10413680D01*
X15802300Y-10373680D02*
X15762300Y-10413680D01*
X15762300Y-12873680D02*
X15802300Y-12913680D01*
X15802300Y-12873680D02*
X15762300Y-12913680D01*
X15823260Y-6587800D02*
X15863260Y-6627800D01*
X15863260Y-6587800D02*
X15823260Y-6627800D01*
X15823260Y-6816400D02*
X15863260Y-6856400D01*
X15863260Y-6816400D02*
X15823260Y-6856400D01*
X15823260Y-9087800D02*
X15863260Y-9127800D01*
X15863260Y-9087800D02*
X15823260Y-9127800D01*
X15823260Y-9316400D02*
X15863260Y-9356400D01*
X15863260Y-9316400D02*
X15823260Y-9356400D01*
X15823260Y-11587800D02*
X15863260Y-11627800D01*
X15863260Y-11587800D02*
X15823260Y-11627800D01*
X15823260Y-11816400D02*
X15863260Y-11856400D01*
X15863260Y-11816400D02*
X15823260Y-11856400D01*
X15823260Y-14087800D02*
X15863260Y-14127800D01*
X15863260Y-14087800D02*
X15823260Y-14127800D01*
X15823260Y-14316400D02*
X15863260Y-14356400D01*
X15863260Y-14316400D02*
X15823260Y-14356400D01*
X15983280Y-6503980D02*
X16023280Y-6543980D01*
X16023280Y-6503980D02*
X15983280Y-6543980D01*
X15983280Y-6844340D02*
X16023280Y-6884340D01*
X16023280Y-6844340D02*
X15983280Y-6884340D01*
X15983280Y-9003980D02*
X16023280Y-9043980D01*
X16023280Y-9003980D02*
X15983280Y-9043980D01*
X15983280Y-9344340D02*
X16023280Y-9384340D01*
X16023280Y-9344340D02*
X15983280Y-9384340D01*
X15983280Y-11503980D02*
X16023280Y-11543980D01*
X16023280Y-11503980D02*
X15983280Y-11543980D01*
X15983280Y-11844340D02*
X16023280Y-11884340D01*
X16023280Y-11844340D02*
X15983280Y-11884340D01*
X15983280Y-14003980D02*
X16023280Y-14043980D01*
X16023280Y-14003980D02*
X15983280Y-14043980D01*
X15983280Y-14344340D02*
X16023280Y-14384340D01*
X16023280Y-14344340D02*
X15983280Y-14384340D01*
X15995980Y-5162860D02*
X16035980Y-5202860D01*
X16035980Y-5162860D02*
X15995980Y-5202860D01*
X15995980Y-7662860D02*
X16035980Y-7702860D01*
X16035980Y-7662860D02*
X15995980Y-7702860D01*
X15995980Y-10162860D02*
X16035980Y-10202860D01*
X16035980Y-10162860D02*
X15995980Y-10202860D01*
X15995980Y-12662860D02*
X16035980Y-12702860D01*
X16035980Y-12662860D02*
X15995980Y-12702860D01*
X16011220Y-7009440D02*
X16051220Y-7049440D01*
X16051220Y-7009440D02*
X16011220Y-7049440D01*
X16011220Y-9509440D02*
X16051220Y-9549440D01*
X16051220Y-9509440D02*
X16011220Y-9549440D01*
X16011220Y-12009440D02*
X16051220Y-12049440D01*
X16051220Y-12009440D02*
X16011220Y-12049440D01*
X16011220Y-14509440D02*
X16051220Y-14549440D01*
X16051220Y-14509440D02*
X16011220Y-14549440D01*
X16034903Y-5823260D02*
X16074903Y-5863260D01*
X16074903Y-5823260D02*
X16034903Y-5863260D01*
X16034903Y-8323260D02*
X16074903Y-8363260D01*
X16074903Y-8323260D02*
X16034903Y-8363260D01*
X16034903Y-10823260D02*
X16074903Y-10863260D01*
X16074903Y-10823260D02*
X16034903Y-10863260D01*
X16034903Y-13323260D02*
X16074903Y-13363260D01*
X16074903Y-13323260D02*
X16034903Y-13363260D01*
X16178860Y-6272840D02*
X16218860Y-6312840D01*
X16218860Y-6272840D02*
X16178860Y-6312840D01*
X16178860Y-8772840D02*
X16218860Y-8812840D01*
X16218860Y-8772840D02*
X16178860Y-8812840D01*
X16178860Y-11272840D02*
X16218860Y-11312840D01*
X16218860Y-11272840D02*
X16178860Y-11312840D01*
X16178860Y-13772840D02*
X16218860Y-13812840D01*
X16218860Y-13772840D02*
X16178860Y-13812840D01*
X16314725Y-5831754D02*
X16354725Y-5871754D01*
X16354725Y-5831754D02*
X16314725Y-5871754D01*
X16314725Y-8331754D02*
X16354725Y-8371754D01*
X16354725Y-8331754D02*
X16314725Y-8371754D01*
X16314725Y-10831754D02*
X16354725Y-10871754D01*
X16354725Y-10831754D02*
X16314725Y-10871754D01*
X16314725Y-13331754D02*
X16354725Y-13371754D01*
X16354725Y-13331754D02*
X16314725Y-13371754D01*
X16389680Y-6595680D02*
X16429680Y-6635680D01*
X16429680Y-6595680D02*
X16389680Y-6635680D01*
X16389680Y-9095680D02*
X16429680Y-9135680D01*
X16429680Y-9095680D02*
X16389680Y-9135680D01*
X16389680Y-11595680D02*
X16429680Y-11635680D01*
X16429680Y-11595680D02*
X16389680Y-11635680D01*
X16389680Y-14095680D02*
X16429680Y-14135680D01*
X16429680Y-14095680D02*
X16389680Y-14135680D01*
X16392220Y-5374140D02*
X16432220Y-5414140D01*
X16432220Y-5374140D02*
X16392220Y-5414140D01*
X16392220Y-7874140D02*
X16432220Y-7914140D01*
X16432220Y-7874140D02*
X16392220Y-7914140D01*
X16392220Y-10374140D02*
X16432220Y-10414140D01*
X16432220Y-10374140D02*
X16392220Y-10414140D01*
X16392220Y-12874140D02*
X16432220Y-12914140D01*
X16432220Y-12874140D02*
X16392220Y-12914140D01*
X16405180Y-6173780D02*
X16445180Y-6213780D01*
X16445180Y-6173780D02*
X16405180Y-6213780D01*
X16405180Y-8673780D02*
X16445180Y-8713780D01*
X16445180Y-8673780D02*
X16405180Y-8713780D01*
X16405180Y-11173780D02*
X16445180Y-11213780D01*
X16445180Y-11173780D02*
X16405180Y-11213780D01*
X16405180Y-13673780D02*
X16445180Y-13713780D01*
X16445180Y-13673780D02*
X16405180Y-13713780D01*
X16412540Y-5708960D02*
X16452540Y-5748960D01*
X16452540Y-5708960D02*
X16412540Y-5748960D01*
X16412540Y-8208960D02*
X16452540Y-8248960D01*
X16452540Y-8208960D02*
X16412540Y-8248960D01*
X16412540Y-10708960D02*
X16452540Y-10748960D01*
X16452540Y-10708960D02*
X16412540Y-10748960D01*
X16412540Y-13208960D02*
X16452540Y-13248960D01*
X16452540Y-13208960D02*
X16412540Y-13248960D01*
X16435400Y-6999280D02*
X16475400Y-7039280D01*
X16475400Y-6999280D02*
X16435400Y-7039280D01*
X16435400Y-9499280D02*
X16475400Y-9539280D01*
X16475400Y-9499280D02*
X16435400Y-9539280D01*
X16435400Y-11999280D02*
X16475400Y-12039280D01*
X16475400Y-11999280D02*
X16435400Y-12039280D01*
X16435400Y-14499280D02*
X16475400Y-14539280D01*
X16475400Y-14499280D02*
X16435400Y-14539280D01*
X16636060Y-7354880D02*
X16676060Y-7394880D01*
X16676060Y-7354880D02*
X16636060Y-7394880D01*
X16636060Y-9854880D02*
X16676060Y-9894880D01*
X16676060Y-9854880D02*
X16636060Y-9894880D01*
X16636060Y-12354880D02*
X16676060Y-12394880D01*
X16676060Y-12354880D02*
X16636060Y-12394880D01*
X16636060Y-14854880D02*
X16676060Y-14894880D01*
X16676060Y-14854880D02*
X16636060Y-14894880D01*
X17004360Y-7060240D02*
X17044360Y-7100240D01*
X17044360Y-7060240D02*
X17004360Y-7100240D01*
X17004360Y-9560240D02*
X17044360Y-9600240D01*
X17044360Y-9560240D02*
X17004360Y-9600240D01*
X17004360Y-12060240D02*
X17044360Y-12100240D01*
X17044360Y-12060240D02*
X17004360Y-12100240D01*
X17004360Y-14560240D02*
X17044360Y-14600240D01*
X17044360Y-14560240D02*
X17004360Y-14600240D01*
X17022140Y-5838500D02*
X17062140Y-5878500D01*
X17062140Y-5838500D02*
X17022140Y-5878500D01*
X17022140Y-8338500D02*
X17062140Y-8378500D01*
X17062140Y-8338500D02*
X17022140Y-8378500D01*
X17022140Y-10838500D02*
X17062140Y-10878500D01*
X17062140Y-10838500D02*
X17022140Y-10878500D01*
X17022140Y-13338500D02*
X17062140Y-13378500D01*
X17062140Y-13338500D02*
X17022140Y-13378500D01*
X17594280Y-5208580D02*
X17634280Y-5248580D01*
X17634280Y-5208580D02*
X17594280Y-5248580D01*
X17594280Y-7708580D02*
X17634280Y-7748580D01*
X17634280Y-7708580D02*
X17594280Y-7748580D01*
X17594280Y-10208580D02*
X17634280Y-10248580D01*
X17634280Y-10208580D02*
X17594280Y-10248580D01*
X17594280Y-12708580D02*
X17634280Y-12748580D01*
X17634280Y-12708580D02*
X17594280Y-12748580D01*
X17606980Y-5099360D02*
X17646980Y-5139360D01*
X17646980Y-5099360D02*
X17606980Y-5139360D01*
X17606980Y-7599360D02*
X17646980Y-7639360D01*
X17646980Y-7599360D02*
X17606980Y-7639360D01*
X17606980Y-10099360D02*
X17646980Y-10139360D01*
X17646980Y-10099360D02*
X17606980Y-10139360D01*
X17606980Y-12599360D02*
X17646980Y-12639360D01*
X17646980Y-12599360D02*
X17606980Y-12639360D01*
X17640000Y-5540000D02*
X17680000Y-5580000D01*
X17680000Y-5540000D02*
X17640000Y-5580000D01*
X17640000Y-6900220D02*
X17680000Y-6940220D01*
X17680000Y-6900220D02*
X17640000Y-6940220D01*
X17640000Y-8040000D02*
X17680000Y-8080000D01*
X17680000Y-8040000D02*
X17640000Y-8080000D01*
X17640000Y-9400220D02*
X17680000Y-9440220D01*
X17680000Y-9400220D02*
X17640000Y-9440220D01*
X17640000Y-10540000D02*
X17680000Y-10580000D01*
X17680000Y-10540000D02*
X17640000Y-10580000D01*
X17640000Y-11900220D02*
X17680000Y-11940220D01*
X17680000Y-11900220D02*
X17640000Y-11940220D01*
X17640000Y-13040000D02*
X17680000Y-13080000D01*
X17680000Y-13040000D02*
X17640000Y-13080000D01*
X17640000Y-14400220D02*
X17680000Y-14440220D01*
X17680000Y-14400220D02*
X17640000Y-14440220D01*
X17932100Y-7022140D02*
X17972100Y-7062140D01*
X17972100Y-7022140D02*
X17932100Y-7062140D01*
X17932100Y-9522140D02*
X17972100Y-9562140D01*
X17972100Y-9522140D02*
X17932100Y-9562140D01*
X17932100Y-12022140D02*
X17972100Y-12062140D01*
X17972100Y-12022140D02*
X17932100Y-12062140D01*
X17932100Y-14522140D02*
X17972100Y-14562140D01*
X17972100Y-14522140D02*
X17932100Y-14562140D01*
X17934640Y-6084880D02*
X17974640Y-6124880D01*
X17974640Y-6084880D02*
X17934640Y-6124880D01*
X17934640Y-6410000D02*
X17974640Y-6450000D01*
X17974640Y-6410000D02*
X17934640Y-6450000D01*
X17934640Y-8584880D02*
X17974640Y-8624880D01*
X17974640Y-8584880D02*
X17934640Y-8624880D01*
X17934640Y-8910000D02*
X17974640Y-8950000D01*
X17974640Y-8910000D02*
X17934640Y-8950000D01*
X17934640Y-11084880D02*
X17974640Y-11124880D01*
X17974640Y-11084880D02*
X17934640Y-11124880D01*
X17934640Y-11410000D02*
X17974640Y-11450000D01*
X17974640Y-11410000D02*
X17934640Y-11450000D01*
X17934640Y-13584880D02*
X17974640Y-13624880D01*
X17974640Y-13584880D02*
X17934640Y-13624880D01*
X17934640Y-13910000D02*
X17974640Y-13950000D01*
X17974640Y-13910000D02*
X17934640Y-13950000D01*
X17934840Y-5757020D02*
X17974840Y-5797020D01*
X17974840Y-5757020D02*
X17934840Y-5797020D01*
X17934840Y-8257020D02*
X17974840Y-8297020D01*
X17974840Y-8257020D02*
X17934840Y-8297020D01*
X17934840Y-10757020D02*
X17974840Y-10797020D01*
X17974840Y-10757020D02*
X17934840Y-10797020D01*
X17934840Y-13257020D02*
X17974840Y-13297020D01*
X17974840Y-13257020D02*
X17934840Y-13297020D01*
X18099740Y-5617520D02*
X18139740Y-5657520D01*
X18139740Y-5617520D02*
X18099740Y-5657520D01*
X18099740Y-8117520D02*
X18139740Y-8157520D01*
X18139740Y-8117520D02*
X18099740Y-8157520D01*
X18099740Y-10617520D02*
X18139740Y-10657520D01*
X18139740Y-10617520D02*
X18099740Y-10657520D01*
X18099740Y-13117520D02*
X18139740Y-13157520D01*
X18139740Y-13117520D02*
X18099740Y-13157520D01*
X18248139Y-7277475D02*
X18288139Y-7317475D01*
X18288139Y-7277475D02*
X18248139Y-7317475D01*
X18248139Y-9777475D02*
X18288139Y-9817475D01*
X18288139Y-9777475D02*
X18248139Y-9817475D01*
X18248139Y-12277475D02*
X18288139Y-12317475D01*
X18288139Y-12277475D02*
X18248139Y-12317475D01*
X18248139Y-14777475D02*
X18288139Y-14817475D01*
X18288139Y-14777475D02*
X18248139Y-14817475D01*
X18257220Y-6305860D02*
X18297220Y-6345860D01*
X18297220Y-6305860D02*
X18257220Y-6345860D01*
X18257220Y-8805860D02*
X18297220Y-8845860D01*
X18297220Y-8805860D02*
X18257220Y-8845860D01*
X18257220Y-11305860D02*
X18297220Y-11345860D01*
X18297220Y-11305860D02*
X18257220Y-11345860D01*
X18257220Y-13805860D02*
X18297220Y-13845860D01*
X18297220Y-13805860D02*
X18257220Y-13845860D01*
X18262300Y-5373680D02*
X18302300Y-5413680D01*
X18302300Y-5373680D02*
X18262300Y-5413680D01*
X18262300Y-7873680D02*
X18302300Y-7913680D01*
X18302300Y-7873680D02*
X18262300Y-7913680D01*
X18262300Y-10373680D02*
X18302300Y-10413680D01*
X18302300Y-10373680D02*
X18262300Y-10413680D01*
X18262300Y-12873680D02*
X18302300Y-12913680D01*
X18302300Y-12873680D02*
X18262300Y-12913680D01*
X18323260Y-6587800D02*
X18363260Y-6627800D01*
X18363260Y-6587800D02*
X18323260Y-6627800D01*
X18323260Y-6816400D02*
X18363260Y-6856400D01*
X18363260Y-6816400D02*
X18323260Y-6856400D01*
X18323260Y-9087800D02*
X18363260Y-9127800D01*
X18363260Y-9087800D02*
X18323260Y-9127800D01*
X18323260Y-9316400D02*
X18363260Y-9356400D01*
X18363260Y-9316400D02*
X18323260Y-9356400D01*
X18323260Y-11587800D02*
X18363260Y-11627800D01*
X18363260Y-11587800D02*
X18323260Y-11627800D01*
X18323260Y-11816400D02*
X18363260Y-11856400D01*
X18363260Y-11816400D02*
X18323260Y-11856400D01*
X18323260Y-14087800D02*
X18363260Y-14127800D01*
X18363260Y-14087800D02*
X18323260Y-14127800D01*
X18323260Y-14316400D02*
X18363260Y-14356400D01*
X18363260Y-14316400D02*
X18323260Y-14356400D01*
X18483280Y-6503980D02*
X18523280Y-6543980D01*
X18523280Y-6503980D02*
X18483280Y-6543980D01*
X18483280Y-6844340D02*
X18523280Y-6884340D01*
X18523280Y-6844340D02*
X18483280Y-6884340D01*
X18483280Y-9003980D02*
X18523280Y-9043980D01*
X18523280Y-9003980D02*
X18483280Y-9043980D01*
X18483280Y-9344340D02*
X18523280Y-9384340D01*
X18523280Y-9344340D02*
X18483280Y-9384340D01*
X18483280Y-11503980D02*
X18523280Y-11543980D01*
X18523280Y-11503980D02*
X18483280Y-11543980D01*
X18483280Y-11844340D02*
X18523280Y-11884340D01*
X18523280Y-11844340D02*
X18483280Y-11884340D01*
X18483280Y-14003980D02*
X18523280Y-14043980D01*
X18523280Y-14003980D02*
X18483280Y-14043980D01*
X18483280Y-14344340D02*
X18523280Y-14384340D01*
X18523280Y-14344340D02*
X18483280Y-14384340D01*
X18495980Y-5162860D02*
X18535980Y-5202860D01*
X18535980Y-5162860D02*
X18495980Y-5202860D01*
X18495980Y-7662860D02*
X18535980Y-7702860D01*
X18535980Y-7662860D02*
X18495980Y-7702860D01*
X18495980Y-10162860D02*
X18535980Y-10202860D01*
X18535980Y-10162860D02*
X18495980Y-10202860D01*
X18495980Y-12662860D02*
X18535980Y-12702860D01*
X18535980Y-12662860D02*
X18495980Y-12702860D01*
X18511220Y-7009440D02*
X18551220Y-7049440D01*
X18551220Y-7009440D02*
X18511220Y-7049440D01*
X18511220Y-9509440D02*
X18551220Y-9549440D01*
X18551220Y-9509440D02*
X18511220Y-9549440D01*
X18511220Y-12009440D02*
X18551220Y-12049440D01*
X18551220Y-12009440D02*
X18511220Y-12049440D01*
X18511220Y-14509440D02*
X18551220Y-14549440D01*
X18551220Y-14509440D02*
X18511220Y-14549440D01*
X18534903Y-5823260D02*
X18574903Y-5863260D01*
X18574903Y-5823260D02*
X18534903Y-5863260D01*
X18534903Y-8323260D02*
X18574903Y-8363260D01*
X18574903Y-8323260D02*
X18534903Y-8363260D01*
X18534903Y-10823260D02*
X18574903Y-10863260D01*
X18574903Y-10823260D02*
X18534903Y-10863260D01*
X18534903Y-13323260D02*
X18574903Y-13363260D01*
X18574903Y-13323260D02*
X18534903Y-13363260D01*
X18678860Y-6272840D02*
X18718860Y-6312840D01*
X18718860Y-6272840D02*
X18678860Y-6312840D01*
X18678860Y-8772840D02*
X18718860Y-8812840D01*
X18718860Y-8772840D02*
X18678860Y-8812840D01*
X18678860Y-11272840D02*
X18718860Y-11312840D01*
X18718860Y-11272840D02*
X18678860Y-11312840D01*
X18678860Y-13772840D02*
X18718860Y-13812840D01*
X18718860Y-13772840D02*
X18678860Y-13812840D01*
X18814725Y-5831754D02*
X18854725Y-5871754D01*
X18854725Y-5831754D02*
X18814725Y-5871754D01*
X18814725Y-8331754D02*
X18854725Y-8371754D01*
X18854725Y-8331754D02*
X18814725Y-8371754D01*
X18814725Y-10831754D02*
X18854725Y-10871754D01*
X18854725Y-10831754D02*
X18814725Y-10871754D01*
X18814725Y-13331754D02*
X18854725Y-13371754D01*
X18854725Y-13331754D02*
X18814725Y-13371754D01*
X18889680Y-6595680D02*
X18929680Y-6635680D01*
X18929680Y-6595680D02*
X18889680Y-6635680D01*
X18889680Y-9095680D02*
X18929680Y-9135680D01*
X18929680Y-9095680D02*
X18889680Y-9135680D01*
X18889680Y-11595680D02*
X18929680Y-11635680D01*
X18929680Y-11595680D02*
X18889680Y-11635680D01*
X18889680Y-14095680D02*
X18929680Y-14135680D01*
X18929680Y-14095680D02*
X18889680Y-14135680D01*
X18892220Y-5374140D02*
X18932220Y-5414140D01*
X18932220Y-5374140D02*
X18892220Y-5414140D01*
X18892220Y-7874140D02*
X18932220Y-7914140D01*
X18932220Y-7874140D02*
X18892220Y-7914140D01*
X18892220Y-10374140D02*
X18932220Y-10414140D01*
X18932220Y-10374140D02*
X18892220Y-10414140D01*
X18892220Y-12874140D02*
X18932220Y-12914140D01*
X18932220Y-12874140D02*
X18892220Y-12914140D01*
X18905180Y-6173780D02*
X18945180Y-6213780D01*
X18945180Y-6173780D02*
X18905180Y-6213780D01*
X18905180Y-8673780D02*
X18945180Y-8713780D01*
X18945180Y-8673780D02*
X18905180Y-8713780D01*
X18905180Y-11173780D02*
X18945180Y-11213780D01*
X18945180Y-11173780D02*
X18905180Y-11213780D01*
X18905180Y-13673780D02*
X18945180Y-13713780D01*
X18945180Y-13673780D02*
X18905180Y-13713780D01*
X18912540Y-5708960D02*
X18952540Y-5748960D01*
X18952540Y-5708960D02*
X18912540Y-5748960D01*
X18912540Y-8208960D02*
X18952540Y-8248960D01*
X18952540Y-8208960D02*
X18912540Y-8248960D01*
X18912540Y-10708960D02*
X18952540Y-10748960D01*
X18952540Y-10708960D02*
X18912540Y-10748960D01*
X18912540Y-13208960D02*
X18952540Y-13248960D01*
X18952540Y-13208960D02*
X18912540Y-13248960D01*
X18935400Y-6999280D02*
X18975400Y-7039280D01*
X18975400Y-6999280D02*
X18935400Y-7039280D01*
X18935400Y-9499280D02*
X18975400Y-9539280D01*
X18975400Y-9499280D02*
X18935400Y-9539280D01*
X18935400Y-11999280D02*
X18975400Y-12039280D01*
X18975400Y-11999280D02*
X18935400Y-12039280D01*
X18935400Y-14499280D02*
X18975400Y-14539280D01*
X18975400Y-14499280D02*
X18935400Y-14539280D01*
X19136060Y-7354880D02*
X19176060Y-7394880D01*
X19176060Y-7354880D02*
X19136060Y-7394880D01*
X19136060Y-9854880D02*
X19176060Y-9894880D01*
X19176060Y-9854880D02*
X19136060Y-9894880D01*
X19136060Y-12354880D02*
X19176060Y-12394880D01*
X19176060Y-12354880D02*
X19136060Y-12394880D01*
X19136060Y-14854880D02*
X19176060Y-14894880D01*
X19176060Y-14854880D02*
X19136060Y-14894880D01*
X19504360Y-7060240D02*
X19544360Y-7100240D01*
X19544360Y-7060240D02*
X19504360Y-7100240D01*
X19504360Y-9560240D02*
X19544360Y-9600240D01*
X19544360Y-9560240D02*
X19504360Y-9600240D01*
X19504360Y-12060240D02*
X19544360Y-12100240D01*
X19544360Y-12060240D02*
X19504360Y-12100240D01*
X19504360Y-14560240D02*
X19544360Y-14600240D01*
X19544360Y-14560240D02*
X19504360Y-14600240D01*
X19522140Y-5838500D02*
X19562140Y-5878500D01*
X19562140Y-5838500D02*
X19522140Y-5878500D01*
X19522140Y-8338500D02*
X19562140Y-8378500D01*
X19562140Y-8338500D02*
X19522140Y-8378500D01*
X19522140Y-10838500D02*
X19562140Y-10878500D01*
X19562140Y-10838500D02*
X19522140Y-10878500D01*
X19522140Y-13338500D02*
X19562140Y-13378500D01*
X19562140Y-13338500D02*
X19522140Y-13378500D01*
D13*
X10263929Y-15473214D02*
X10263929Y-15173214D01*
X10335357Y-15173214D01*
X10378214Y-15187500D01*
X10406786Y-15216071D01*
X10421071Y-15244643D01*
X10435357Y-15301786D01*
X10435357Y-15344643D01*
X10421071Y-15401786D01*
X10406786Y-15430357D01*
X10378214Y-15458929D01*
X10335357Y-15473214D01*
X10263929Y-15473214D01*
X10563929Y-15473214D02*
X10563929Y-15273214D01*
X10563929Y-15330357D02*
X10578214Y-15301786D01*
X10592500Y-15287500D01*
X10621071Y-15273214D01*
X10649643Y-15273214D01*
X10749643Y-15473214D02*
X10749643Y-15273214D01*
X10749643Y-15173214D02*
X10735357Y-15187500D01*
X10749643Y-15201786D01*
X10763929Y-15187500D01*
X10749643Y-15173214D01*
X10749643Y-15201786D01*
X10935357Y-15473214D02*
X10906786Y-15458929D01*
X10892500Y-15430357D01*
X10892500Y-15173214D01*
X11092500Y-15473214D02*
X11063929Y-15458929D01*
X11049643Y-15430357D01*
X11049643Y-15173214D01*
X11435357Y-15473214D02*
X11435357Y-15173214D01*
X11535357Y-15387500D01*
X11635357Y-15173214D01*
X11635357Y-15473214D01*
X11906786Y-15473214D02*
X11906786Y-15316071D01*
X11892500Y-15287500D01*
X11863928Y-15273214D01*
X11806786Y-15273214D01*
X11778214Y-15287500D01*
X11906786Y-15458929D02*
X11878214Y-15473214D01*
X11806786Y-15473214D01*
X11778214Y-15458929D01*
X11763928Y-15430357D01*
X11763928Y-15401786D01*
X11778214Y-15373214D01*
X11806786Y-15358929D01*
X11878214Y-15358929D01*
X11906786Y-15344643D01*
X12049643Y-15273214D02*
X12049643Y-15573214D01*
X12049643Y-15287500D02*
X12078214Y-15273214D01*
X12135357Y-15273214D01*
X12163928Y-15287500D01*
X12178214Y-15301786D01*
X12192500Y-15330357D01*
X12192500Y-15416071D01*
X12178214Y-15444643D01*
X12163928Y-15458929D01*
X12135357Y-15473214D01*
X12078214Y-15473214D01*
X12049643Y-15458929D01*
X12321071Y-15444643D02*
X12335357Y-15458929D01*
X12321071Y-15473214D01*
X12306786Y-15458929D01*
X12321071Y-15444643D01*
X12321071Y-15473214D01*
X12321071Y-15287500D02*
X12335357Y-15301786D01*
X12321071Y-15316071D01*
X12306786Y-15301786D01*
X12321071Y-15287500D01*
X12321071Y-15316071D01*
X9952500Y-15947500D02*
X9992500Y-15987500D01*
X9992500Y-15947500D02*
X9952500Y-15987500D01*
X10321071Y-15803214D02*
X10349643Y-15803214D01*
X10378214Y-15817500D01*
X10392500Y-15831786D01*
X10406786Y-15860357D01*
X10421071Y-15917500D01*
X10421071Y-15988929D01*
X10406786Y-16046071D01*
X10392500Y-16074643D01*
X10378214Y-16088929D01*
X10349643Y-16103214D01*
X10321071Y-16103214D01*
X10292500Y-16088929D01*
X10278214Y-16074643D01*
X10263929Y-16046071D01*
X10249643Y-15988929D01*
X10249643Y-15917500D01*
X10263929Y-15860357D01*
X10278214Y-15831786D01*
X10292500Y-15817500D01*
X10321071Y-15803214D01*
X10549643Y-16074643D02*
X10563929Y-16088929D01*
X10549643Y-16103214D01*
X10535357Y-16088929D01*
X10549643Y-16074643D01*
X10549643Y-16103214D01*
X10821071Y-15903214D02*
X10821071Y-16103214D01*
X10749643Y-15788929D02*
X10678214Y-16003214D01*
X10863928Y-16003214D01*
X11035357Y-15803214D02*
X11063929Y-15803214D01*
X11092500Y-15817500D01*
X11106786Y-15831786D01*
X11121071Y-15860357D01*
X11135357Y-15917500D01*
X11135357Y-15988929D01*
X11121071Y-16046071D01*
X11106786Y-16074643D01*
X11092500Y-16088929D01*
X11063929Y-16103214D01*
X11035357Y-16103214D01*
X11006786Y-16088929D01*
X10992500Y-16074643D01*
X10978214Y-16046071D01*
X10963929Y-15988929D01*
X10963929Y-15917500D01*
X10978214Y-15860357D01*
X10992500Y-15831786D01*
X11006786Y-15817500D01*
X11035357Y-15803214D01*
X11263928Y-16103214D02*
X11263928Y-15903214D01*
X11263928Y-15931786D02*
X11278214Y-15917500D01*
X11306786Y-15903214D01*
X11349643Y-15903214D01*
X11378214Y-15917500D01*
X11392500Y-15946071D01*
X11392500Y-16103214D01*
X11392500Y-15946071D02*
X11406786Y-15917500D01*
X11435357Y-15903214D01*
X11478214Y-15903214D01*
X11506786Y-15917500D01*
X11521071Y-15946071D01*
X11521071Y-16103214D01*
X11663928Y-16103214D02*
X11663928Y-15903214D01*
X11663928Y-15931786D02*
X11678214Y-15917500D01*
X11706786Y-15903214D01*
X11749643Y-15903214D01*
X11778214Y-15917500D01*
X11792500Y-15946071D01*
X11792500Y-16103214D01*
X11792500Y-15946071D02*
X11806786Y-15917500D01*
X11835357Y-15903214D01*
X11878214Y-15903214D01*
X11906786Y-15917500D01*
X11921071Y-15946071D01*
X11921071Y-16103214D01*
X12506786Y-15788929D02*
X12249643Y-16174643D01*
X12892500Y-15803214D02*
X12921071Y-15803214D01*
X12949643Y-15817500D01*
X12963928Y-15831786D01*
X12978214Y-15860357D01*
X12992500Y-15917500D01*
X12992500Y-15988929D01*
X12978214Y-16046071D01*
X12963928Y-16074643D01*
X12949643Y-16088929D01*
X12921071Y-16103214D01*
X12892500Y-16103214D01*
X12863928Y-16088929D01*
X12849643Y-16074643D01*
X12835357Y-16046071D01*
X12821071Y-15988929D01*
X12821071Y-15917500D01*
X12835357Y-15860357D01*
X12849643Y-15831786D01*
X12863928Y-15817500D01*
X12892500Y-15803214D01*
X13121071Y-16074643D02*
X13135357Y-16088929D01*
X13121071Y-16103214D01*
X13106786Y-16088929D01*
X13121071Y-16074643D01*
X13121071Y-16103214D01*
X13321071Y-15803214D02*
X13349643Y-15803214D01*
X13378214Y-15817500D01*
X13392500Y-15831786D01*
X13406785Y-15860357D01*
X13421071Y-15917500D01*
X13421071Y-15988929D01*
X13406785Y-16046071D01*
X13392500Y-16074643D01*
X13378214Y-16088929D01*
X13349643Y-16103214D01*
X13321071Y-16103214D01*
X13292500Y-16088929D01*
X13278214Y-16074643D01*
X13263928Y-16046071D01*
X13249643Y-15988929D01*
X13249643Y-15917500D01*
X13263928Y-15860357D01*
X13278214Y-15831786D01*
X13292500Y-15817500D01*
X13321071Y-15803214D01*
X13706785Y-16103214D02*
X13535357Y-16103214D01*
X13621071Y-16103214D02*
X13621071Y-15803214D01*
X13592500Y-15846071D01*
X13563928Y-15874643D01*
X13535357Y-15888929D01*
X13963928Y-15803214D02*
X13906785Y-15803214D01*
X13878214Y-15817500D01*
X13863928Y-15831786D01*
X13835357Y-15874643D01*
X13821071Y-15931786D01*
X13821071Y-16046071D01*
X13835357Y-16074643D01*
X13849643Y-16088929D01*
X13878214Y-16103214D01*
X13935357Y-16103214D01*
X13963928Y-16088929D01*
X13978214Y-16074643D01*
X13992500Y-16046071D01*
X13992500Y-15974643D01*
X13978214Y-15946071D01*
X13963928Y-15931786D01*
X13935357Y-15917500D01*
X13878214Y-15917500D01*
X13849643Y-15931786D01*
X13835357Y-15946071D01*
X13821071Y-15974643D01*
X14106786Y-15803214D02*
X14106786Y-15860357D01*
X14221071Y-15803214D02*
X14221071Y-15860357D01*
X14663928Y-16217500D02*
X14649643Y-16203214D01*
X14621071Y-16160357D01*
X14606785Y-16131786D01*
X14592500Y-16088929D01*
X14578214Y-16017500D01*
X14578214Y-15960357D01*
X14592500Y-15888929D01*
X14606785Y-15846071D01*
X14621071Y-15817500D01*
X14649643Y-15774643D01*
X14663928Y-15760357D01*
X14906785Y-15903214D02*
X14906785Y-16103214D01*
X14835357Y-15788929D02*
X14763928Y-16003214D01*
X14949643Y-16003214D01*
X15192500Y-15803214D02*
X15135357Y-15803214D01*
X15106785Y-15817500D01*
X15092500Y-15831786D01*
X15063928Y-15874643D01*
X15049643Y-15931786D01*
X15049643Y-16046071D01*
X15063928Y-16074643D01*
X15078214Y-16088929D01*
X15106785Y-16103214D01*
X15163928Y-16103214D01*
X15192500Y-16088929D01*
X15206785Y-16074643D01*
X15221071Y-16046071D01*
X15221071Y-15974643D01*
X15206785Y-15946071D01*
X15192500Y-15931786D01*
X15163928Y-15917500D01*
X15106785Y-15917500D01*
X15078214Y-15931786D01*
X15063928Y-15946071D01*
X15049643Y-15974643D01*
X15478214Y-15903214D02*
X15478214Y-16103214D01*
X15406785Y-15788929D02*
X15335357Y-16003214D01*
X15521071Y-16003214D01*
X15863928Y-16103214D02*
X15863928Y-15803214D01*
X15992500Y-16103214D02*
X15992500Y-15946071D01*
X15978214Y-15917500D01*
X15949643Y-15903214D01*
X15906785Y-15903214D01*
X15878214Y-15917500D01*
X15863928Y-15931786D01*
X16178214Y-16103214D02*
X16149643Y-16088929D01*
X16135357Y-16074643D01*
X16121071Y-16046071D01*
X16121071Y-15960357D01*
X16135357Y-15931786D01*
X16149643Y-15917500D01*
X16178214Y-15903214D01*
X16221071Y-15903214D01*
X16249643Y-15917500D01*
X16263928Y-15931786D01*
X16278214Y-15960357D01*
X16278214Y-16046071D01*
X16263928Y-16074643D01*
X16249643Y-16088929D01*
X16221071Y-16103214D01*
X16178214Y-16103214D01*
X16449643Y-16103214D02*
X16421071Y-16088929D01*
X16406786Y-16060357D01*
X16406786Y-15803214D01*
X16678214Y-16088929D02*
X16649643Y-16103214D01*
X16592500Y-16103214D01*
X16563928Y-16088929D01*
X16549643Y-16060357D01*
X16549643Y-15946071D01*
X16563928Y-15917500D01*
X16592500Y-15903214D01*
X16649643Y-15903214D01*
X16678214Y-15917500D01*
X16692500Y-15946071D01*
X16692500Y-15974643D01*
X16549643Y-16003214D01*
X16806786Y-16088929D02*
X16835357Y-16103214D01*
X16892500Y-16103214D01*
X16921071Y-16088929D01*
X16935357Y-16060357D01*
X16935357Y-16046071D01*
X16921071Y-16017500D01*
X16892500Y-16003214D01*
X16849643Y-16003214D01*
X16821071Y-15988929D01*
X16806786Y-15960357D01*
X16806786Y-15946071D01*
X16821071Y-15917500D01*
X16849643Y-15903214D01*
X16892500Y-15903214D01*
X16921071Y-15917500D01*
X17035357Y-16217500D02*
X17049643Y-16203214D01*
X17078214Y-16160357D01*
X17092500Y-16131786D01*
X17106786Y-16088929D01*
X17121071Y-16017500D01*
X17121071Y-15960357D01*
X17106786Y-15888929D01*
X17092500Y-15846071D01*
X17078214Y-15817500D01*
X17049643Y-15774643D01*
X17035357Y-15760357D01*
M02*
