G04 #@! TF.FileFunction,Paste,Top*
%FSLAX46Y46*%
G04 Gerber Fmt 4.6, Leading zero omitted, Abs format (unit mm)*
G04 Created by KiCad (PCBNEW 4.0.2-stable) date 11/12/2017 1:18:04 PM*
%MOMM*%
G01*
G04 APERTURE LIST*
%ADD10C,0.100000*%
%ADD11C,0.150000*%
%ADD12R,0.900000X0.500000*%
%ADD13R,0.900000X0.800000*%
%ADD14R,1.550000X0.600000*%
%ADD15R,1.250000X1.000000*%
%ADD16R,1.300000X0.700000*%
%ADD17R,1.700000X1.350000*%
%ADD18O,1.700000X1.350000*%
G04 APERTURE END LIST*
D10*
D11*
X165000000Y-125000000D02*
X190000000Y-125000000D01*
X165000000Y-125000000D02*
X165000000Y-150000000D01*
X190000000Y-150000000D02*
X165000000Y-150000000D01*
X190000000Y-125000000D02*
X190000000Y-150000000D01*
X165000000Y-150000000D02*
X165000000Y-125000000D01*
X90000000Y-150000000D02*
X90000000Y-125000000D01*
X115000000Y-125000000D02*
X115000000Y-150000000D01*
X115000000Y-150000000D02*
X90000000Y-150000000D01*
X90000000Y-125000000D02*
X115000000Y-125000000D01*
X115000000Y-150000000D02*
X115000000Y-125000000D01*
X140000000Y-125000000D02*
X165000000Y-125000000D01*
X140000000Y-125000000D02*
X140000000Y-150000000D01*
X115000000Y-125000000D02*
X140000000Y-125000000D01*
X140000000Y-150000000D02*
X140000000Y-125000000D01*
X140000000Y-150000000D02*
X115000000Y-150000000D01*
X165000000Y-150000000D02*
X140000000Y-150000000D01*
X165000000Y-100000000D02*
X190000000Y-100000000D01*
X165000000Y-100000000D02*
X165000000Y-125000000D01*
X190000000Y-125000000D02*
X165000000Y-125000000D01*
X190000000Y-100000000D02*
X190000000Y-125000000D01*
X165000000Y-125000000D02*
X165000000Y-100000000D01*
X90000000Y-125000000D02*
X90000000Y-100000000D01*
X115000000Y-100000000D02*
X115000000Y-125000000D01*
X115000000Y-125000000D02*
X90000000Y-125000000D01*
X90000000Y-100000000D02*
X115000000Y-100000000D01*
X115000000Y-125000000D02*
X115000000Y-100000000D01*
X140000000Y-100000000D02*
X165000000Y-100000000D01*
X140000000Y-100000000D02*
X140000000Y-125000000D01*
X115000000Y-100000000D02*
X140000000Y-100000000D01*
X140000000Y-125000000D02*
X140000000Y-100000000D01*
X140000000Y-125000000D02*
X115000000Y-125000000D01*
X165000000Y-125000000D02*
X140000000Y-125000000D01*
X165000000Y-75000000D02*
X190000000Y-75000000D01*
X165000000Y-75000000D02*
X165000000Y-100000000D01*
X190000000Y-100000000D02*
X165000000Y-100000000D01*
X190000000Y-75000000D02*
X190000000Y-100000000D01*
X165000000Y-100000000D02*
X165000000Y-75000000D01*
X90000000Y-100000000D02*
X90000000Y-75000000D01*
X115000000Y-75000000D02*
X115000000Y-100000000D01*
X115000000Y-100000000D02*
X90000000Y-100000000D01*
X90000000Y-75000000D02*
X115000000Y-75000000D01*
X115000000Y-100000000D02*
X115000000Y-75000000D01*
X140000000Y-75000000D02*
X165000000Y-75000000D01*
X140000000Y-75000000D02*
X140000000Y-100000000D01*
X115000000Y-75000000D02*
X140000000Y-75000000D01*
X140000000Y-100000000D02*
X140000000Y-75000000D01*
X140000000Y-100000000D02*
X115000000Y-100000000D01*
X165000000Y-100000000D02*
X140000000Y-100000000D01*
X190000000Y-75000000D02*
X165000000Y-75000000D01*
X165000000Y-75000000D02*
X140000000Y-75000000D01*
X140000000Y-75000000D02*
X140000000Y-50000000D01*
X165000000Y-50000000D02*
X165000000Y-75000000D01*
X165000000Y-50000000D02*
X190000000Y-50000000D01*
X190000000Y-50000000D02*
X190000000Y-75000000D01*
X165000000Y-75000000D02*
X165000000Y-50000000D01*
X140000000Y-50000000D02*
X165000000Y-50000000D01*
X115000000Y-50000000D02*
X140000000Y-50000000D01*
X140000000Y-75000000D02*
X115000000Y-75000000D01*
X115000000Y-75000000D02*
X115000000Y-50000000D01*
X140000000Y-50000000D02*
X140000000Y-75000000D01*
X90000000Y-75000000D02*
X90000000Y-50000000D01*
X115000000Y-75000000D02*
X90000000Y-75000000D01*
X115000000Y-50000000D02*
X115000000Y-75000000D01*
X90000000Y-50000000D02*
X115000000Y-50000000D01*
D12*
X153919000Y-142398800D03*
X153919000Y-143898800D03*
X153944400Y-138321400D03*
X153944400Y-139821400D03*
D13*
X155424200Y-138629400D03*
X155424200Y-140529400D03*
X157424200Y-139579400D03*
X155424200Y-134565400D03*
X155424200Y-136465400D03*
X157424200Y-135515400D03*
D14*
X151988600Y-136302800D03*
X151988600Y-135032800D03*
X151988600Y-133762800D03*
X151988600Y-132492800D03*
X146588600Y-132492800D03*
X146588600Y-133762800D03*
X146588600Y-135032800D03*
X146588600Y-136302800D03*
D12*
X153946400Y-126403800D03*
X153946400Y-127903800D03*
D14*
X151988600Y-130206800D03*
X151988600Y-128936800D03*
X151988600Y-127666800D03*
X151988600Y-126396800D03*
X146588600Y-126396800D03*
X146588600Y-127666800D03*
X146588600Y-128936800D03*
X146588600Y-130206800D03*
D12*
X153944400Y-134245400D03*
X153944400Y-135745400D03*
X153946400Y-129959800D03*
X153946400Y-131459800D03*
D15*
X160548400Y-142303800D03*
X160548400Y-144303800D03*
D12*
X158922800Y-142398800D03*
X158922800Y-143898800D03*
X158922800Y-138333400D03*
X158922800Y-139833400D03*
D16*
X167666800Y-146925000D03*
X167666800Y-148825000D03*
D17*
X166600000Y-142773200D03*
D18*
X166600000Y-140773200D03*
X166600000Y-138773200D03*
X166600000Y-136773200D03*
X166600000Y-134773200D03*
X166600000Y-132773200D03*
D17*
X163393200Y-142169200D03*
D18*
X163393200Y-140169200D03*
X163393200Y-138169200D03*
X163393200Y-136169200D03*
X163393200Y-134169200D03*
X163393200Y-132169200D03*
D12*
X158973600Y-134270800D03*
X158973600Y-135770800D03*
X158922800Y-146424000D03*
X158922800Y-147924000D03*
D15*
X160573800Y-130095800D03*
X160573800Y-132095800D03*
D13*
X155426200Y-126437400D03*
X155426200Y-128337400D03*
X157426200Y-127387400D03*
D12*
X158948200Y-126142800D03*
X158948200Y-127642800D03*
D16*
X167668800Y-126219000D03*
X167668800Y-128119000D03*
D12*
X158948200Y-130156000D03*
X158948200Y-131656000D03*
D13*
X155424200Y-130476000D03*
X155424200Y-132376000D03*
X157424200Y-131426000D03*
D15*
X169571800Y-128346000D03*
X169571800Y-126346000D03*
D14*
X151972800Y-148647200D03*
X151972800Y-147377200D03*
X151972800Y-146107200D03*
X151972800Y-144837200D03*
X146572800Y-144837200D03*
X146572800Y-146107200D03*
X146572800Y-147377200D03*
X146572800Y-148647200D03*
D12*
X153868200Y-146551000D03*
X153868200Y-148051000D03*
D13*
X155424200Y-146732000D03*
X155424200Y-148632000D03*
X157424200Y-147682000D03*
D14*
X151988600Y-142424200D03*
X151988600Y-141154200D03*
X151988600Y-139884200D03*
X151988600Y-138614200D03*
X146588600Y-138614200D03*
X146588600Y-139884200D03*
X146588600Y-141154200D03*
X146588600Y-142424200D03*
D13*
X155424200Y-142693400D03*
X155424200Y-144593400D03*
X157424200Y-143643400D03*
D15*
X185573800Y-130095800D03*
X185573800Y-132095800D03*
D12*
X183948200Y-126142800D03*
X183948200Y-127642800D03*
X183948200Y-130156000D03*
X183948200Y-131656000D03*
D13*
X180426200Y-126437400D03*
X180426200Y-128337400D03*
X182426200Y-127387400D03*
X180424200Y-130476000D03*
X180424200Y-132376000D03*
X182424200Y-131426000D03*
D14*
X176988600Y-142424200D03*
X176988600Y-141154200D03*
X176988600Y-139884200D03*
X176988600Y-138614200D03*
X171588600Y-138614200D03*
X171588600Y-139884200D03*
X171588600Y-141154200D03*
X171588600Y-142424200D03*
X176972800Y-148647200D03*
X176972800Y-147377200D03*
X176972800Y-146107200D03*
X176972800Y-144837200D03*
X171572800Y-144837200D03*
X171572800Y-146107200D03*
X171572800Y-147377200D03*
X171572800Y-148647200D03*
D16*
X169548400Y-140156800D03*
X169548400Y-138256800D03*
X169548400Y-141457200D03*
X169548400Y-143357200D03*
D15*
X169546400Y-148672600D03*
X169546400Y-146672600D03*
D12*
X178944400Y-138321400D03*
X178944400Y-139821400D03*
D17*
X188393200Y-142169200D03*
D18*
X188393200Y-140169200D03*
X188393200Y-138169200D03*
X188393200Y-136169200D03*
X188393200Y-134169200D03*
X188393200Y-132169200D03*
D12*
X183973600Y-134270800D03*
X183973600Y-135770800D03*
D13*
X180424200Y-134565400D03*
X180424200Y-136465400D03*
X182424200Y-135515400D03*
X180424200Y-138629400D03*
X180424200Y-140529400D03*
X182424200Y-139579400D03*
D12*
X178944400Y-134245400D03*
X178944400Y-135745400D03*
X183922800Y-138333400D03*
X183922800Y-139833400D03*
D16*
X169548400Y-136956400D03*
X169548400Y-135056400D03*
D14*
X176988600Y-130206800D03*
X176988600Y-128936800D03*
X176988600Y-127666800D03*
X176988600Y-126396800D03*
X171588600Y-126396800D03*
X171588600Y-127666800D03*
X171588600Y-128936800D03*
X171588600Y-130206800D03*
X176988600Y-136302800D03*
X176988600Y-135032800D03*
X176988600Y-133762800D03*
X176988600Y-132492800D03*
X171588600Y-132492800D03*
X171588600Y-133762800D03*
X171588600Y-135032800D03*
X171588600Y-136302800D03*
D12*
X178946400Y-126403800D03*
X178946400Y-127903800D03*
X178946400Y-129959800D03*
X178946400Y-131459800D03*
D16*
X169548400Y-133756000D03*
X169548400Y-131856000D03*
D12*
X183922800Y-146424000D03*
X183922800Y-147924000D03*
D15*
X185548400Y-142303800D03*
X185548400Y-144303800D03*
D12*
X178919000Y-142398800D03*
X178919000Y-143898800D03*
D13*
X180424200Y-146732000D03*
X180424200Y-148632000D03*
X182424200Y-147682000D03*
D12*
X183922800Y-142398800D03*
X183922800Y-143898800D03*
D13*
X180424200Y-142693400D03*
X180424200Y-144593400D03*
X182424200Y-143643400D03*
D12*
X178868200Y-146551000D03*
X178868200Y-148051000D03*
X128919000Y-142398800D03*
X128919000Y-143898800D03*
X133922800Y-146424000D03*
X133922800Y-147924000D03*
D13*
X130424200Y-142693400D03*
X130424200Y-144593400D03*
X132424200Y-143643400D03*
D15*
X135548400Y-142303800D03*
X135548400Y-144303800D03*
D13*
X130424200Y-146732000D03*
X130424200Y-148632000D03*
X132424200Y-147682000D03*
D12*
X133922800Y-142398800D03*
X133922800Y-143898800D03*
X128868200Y-146551000D03*
X128868200Y-148051000D03*
D15*
X144546400Y-148672600D03*
X144546400Y-146672600D03*
D16*
X144548400Y-136956400D03*
X144548400Y-135056400D03*
X144548400Y-140156800D03*
X144548400Y-138256800D03*
D17*
X138393200Y-142169200D03*
D18*
X138393200Y-140169200D03*
X138393200Y-138169200D03*
X138393200Y-136169200D03*
X138393200Y-134169200D03*
X138393200Y-132169200D03*
D16*
X144548400Y-133756000D03*
X144548400Y-131856000D03*
D17*
X141600000Y-142773200D03*
D18*
X141600000Y-140773200D03*
X141600000Y-138773200D03*
X141600000Y-136773200D03*
X141600000Y-134773200D03*
X141600000Y-132773200D03*
D16*
X142666800Y-146925000D03*
X142666800Y-148825000D03*
X144548400Y-141457200D03*
X144548400Y-143357200D03*
D14*
X126988600Y-136302800D03*
X126988600Y-135032800D03*
X126988600Y-133762800D03*
X126988600Y-132492800D03*
X121588600Y-132492800D03*
X121588600Y-133762800D03*
X121588600Y-135032800D03*
X121588600Y-136302800D03*
D16*
X119548400Y-140156800D03*
X119548400Y-138256800D03*
D14*
X126988600Y-142424200D03*
X126988600Y-141154200D03*
X126988600Y-139884200D03*
X126988600Y-138614200D03*
X121588600Y-138614200D03*
X121588600Y-139884200D03*
X121588600Y-141154200D03*
X121588600Y-142424200D03*
D16*
X119548400Y-136956400D03*
X119548400Y-135056400D03*
D17*
X116600000Y-142773200D03*
D18*
X116600000Y-140773200D03*
X116600000Y-138773200D03*
X116600000Y-136773200D03*
X116600000Y-134773200D03*
X116600000Y-132773200D03*
D16*
X119548400Y-133756000D03*
X119548400Y-131856000D03*
D12*
X133948200Y-130156000D03*
X133948200Y-131656000D03*
D13*
X130426200Y-126437400D03*
X130426200Y-128337400D03*
X132426200Y-127387400D03*
D12*
X133948200Y-126142800D03*
X133948200Y-127642800D03*
D16*
X142668800Y-126219000D03*
X142668800Y-128119000D03*
D15*
X135573800Y-130095800D03*
X135573800Y-132095800D03*
D13*
X130424200Y-130476000D03*
X130424200Y-132376000D03*
X132424200Y-131426000D03*
D15*
X144571800Y-128346000D03*
X144571800Y-126346000D03*
D12*
X128946400Y-126403800D03*
X128946400Y-127903800D03*
D14*
X126988600Y-130206800D03*
X126988600Y-128936800D03*
X126988600Y-127666800D03*
X126988600Y-126396800D03*
X121588600Y-126396800D03*
X121588600Y-127666800D03*
X121588600Y-128936800D03*
X121588600Y-130206800D03*
D15*
X119571800Y-128346000D03*
X119571800Y-126346000D03*
D16*
X117668800Y-126219000D03*
X117668800Y-128119000D03*
D12*
X128946400Y-129959800D03*
X128946400Y-131459800D03*
D16*
X117666800Y-146925000D03*
X117666800Y-148825000D03*
X119548400Y-141457200D03*
X119548400Y-143357200D03*
D15*
X119546400Y-148672600D03*
X119546400Y-146672600D03*
D14*
X126972800Y-148647200D03*
X126972800Y-147377200D03*
X126972800Y-146107200D03*
X126972800Y-144837200D03*
X121572800Y-144837200D03*
X121572800Y-146107200D03*
X121572800Y-147377200D03*
X121572800Y-148647200D03*
D12*
X128944400Y-134245400D03*
X128944400Y-135745400D03*
X133922800Y-138333400D03*
X133922800Y-139833400D03*
X133973600Y-134270800D03*
X133973600Y-135770800D03*
D13*
X130424200Y-134565400D03*
X130424200Y-136465400D03*
X132424200Y-135515400D03*
X130424200Y-138629400D03*
X130424200Y-140529400D03*
X132424200Y-139579400D03*
D12*
X128944400Y-138321400D03*
X128944400Y-139821400D03*
X103946400Y-129959800D03*
X103946400Y-131459800D03*
X103946400Y-126403800D03*
X103946400Y-127903800D03*
D16*
X94548400Y-133756000D03*
X94548400Y-131856000D03*
X92668800Y-126219000D03*
X92668800Y-128119000D03*
D15*
X94571800Y-128346000D03*
X94571800Y-126346000D03*
D14*
X101988600Y-136302800D03*
X101988600Y-135032800D03*
X101988600Y-133762800D03*
X101988600Y-132492800D03*
X96588600Y-132492800D03*
X96588600Y-133762800D03*
X96588600Y-135032800D03*
X96588600Y-136302800D03*
X101988600Y-130206800D03*
X101988600Y-128936800D03*
X101988600Y-127666800D03*
X101988600Y-126396800D03*
X96588600Y-126396800D03*
X96588600Y-127666800D03*
X96588600Y-128936800D03*
X96588600Y-130206800D03*
D12*
X103944400Y-134245400D03*
X103944400Y-135745400D03*
X108973600Y-134270800D03*
X108973600Y-135770800D03*
D13*
X105424200Y-138629400D03*
X105424200Y-140529400D03*
X107424200Y-139579400D03*
D15*
X110548400Y-142303800D03*
X110548400Y-144303800D03*
D12*
X103944400Y-138321400D03*
X103944400Y-139821400D03*
D13*
X105424200Y-134565400D03*
X105424200Y-136465400D03*
X107424200Y-135515400D03*
D17*
X113393200Y-142169200D03*
D18*
X113393200Y-140169200D03*
X113393200Y-138169200D03*
X113393200Y-136169200D03*
X113393200Y-134169200D03*
X113393200Y-132169200D03*
D12*
X108922800Y-138333400D03*
X108922800Y-139833400D03*
X108922800Y-146424000D03*
X108922800Y-147924000D03*
X103919000Y-142398800D03*
X103919000Y-143898800D03*
D13*
X105424200Y-142693400D03*
X105424200Y-144593400D03*
X107424200Y-143643400D03*
X105424200Y-146732000D03*
X105424200Y-148632000D03*
X107424200Y-147682000D03*
D12*
X108922800Y-142398800D03*
X108922800Y-143898800D03*
X103868200Y-146551000D03*
X103868200Y-148051000D03*
X108948200Y-130156000D03*
X108948200Y-131656000D03*
D13*
X105424200Y-130476000D03*
X105424200Y-132376000D03*
X107424200Y-131426000D03*
D15*
X110573800Y-130095800D03*
X110573800Y-132095800D03*
D13*
X105426200Y-126437400D03*
X105426200Y-128337400D03*
X107426200Y-127387400D03*
D12*
X108948200Y-126142800D03*
X108948200Y-127642800D03*
D17*
X91600000Y-142773200D03*
D18*
X91600000Y-140773200D03*
X91600000Y-138773200D03*
X91600000Y-136773200D03*
X91600000Y-134773200D03*
X91600000Y-132773200D03*
D14*
X101988600Y-142424200D03*
X101988600Y-141154200D03*
X101988600Y-139884200D03*
X101988600Y-138614200D03*
X96588600Y-138614200D03*
X96588600Y-139884200D03*
X96588600Y-141154200D03*
X96588600Y-142424200D03*
D15*
X94546400Y-148672600D03*
X94546400Y-146672600D03*
D16*
X94548400Y-136956400D03*
X94548400Y-135056400D03*
D14*
X101972800Y-148647200D03*
X101972800Y-147377200D03*
X101972800Y-146107200D03*
X101972800Y-144837200D03*
X96572800Y-144837200D03*
X96572800Y-146107200D03*
X96572800Y-147377200D03*
X96572800Y-148647200D03*
D16*
X92666800Y-146925000D03*
X92666800Y-148825000D03*
X94548400Y-141457200D03*
X94548400Y-143357200D03*
X94548400Y-140156800D03*
X94548400Y-138256800D03*
D12*
X153919000Y-117398800D03*
X153919000Y-118898800D03*
X153944400Y-113321400D03*
X153944400Y-114821400D03*
D13*
X155424200Y-113629400D03*
X155424200Y-115529400D03*
X157424200Y-114579400D03*
X155424200Y-109565400D03*
X155424200Y-111465400D03*
X157424200Y-110515400D03*
D14*
X151988600Y-111302800D03*
X151988600Y-110032800D03*
X151988600Y-108762800D03*
X151988600Y-107492800D03*
X146588600Y-107492800D03*
X146588600Y-108762800D03*
X146588600Y-110032800D03*
X146588600Y-111302800D03*
D12*
X153946400Y-101403800D03*
X153946400Y-102903800D03*
D14*
X151988600Y-105206800D03*
X151988600Y-103936800D03*
X151988600Y-102666800D03*
X151988600Y-101396800D03*
X146588600Y-101396800D03*
X146588600Y-102666800D03*
X146588600Y-103936800D03*
X146588600Y-105206800D03*
D12*
X153944400Y-109245400D03*
X153944400Y-110745400D03*
X153946400Y-104959800D03*
X153946400Y-106459800D03*
D15*
X160548400Y-117303800D03*
X160548400Y-119303800D03*
D12*
X158922800Y-117398800D03*
X158922800Y-118898800D03*
X158922800Y-113333400D03*
X158922800Y-114833400D03*
D16*
X167666800Y-121925000D03*
X167666800Y-123825000D03*
D17*
X166600000Y-117773200D03*
D18*
X166600000Y-115773200D03*
X166600000Y-113773200D03*
X166600000Y-111773200D03*
X166600000Y-109773200D03*
X166600000Y-107773200D03*
D17*
X163393200Y-117169200D03*
D18*
X163393200Y-115169200D03*
X163393200Y-113169200D03*
X163393200Y-111169200D03*
X163393200Y-109169200D03*
X163393200Y-107169200D03*
D12*
X158973600Y-109270800D03*
X158973600Y-110770800D03*
X158922800Y-121424000D03*
X158922800Y-122924000D03*
D15*
X160573800Y-105095800D03*
X160573800Y-107095800D03*
D13*
X155426200Y-101437400D03*
X155426200Y-103337400D03*
X157426200Y-102387400D03*
D12*
X158948200Y-101142800D03*
X158948200Y-102642800D03*
D16*
X167668800Y-101219000D03*
X167668800Y-103119000D03*
D12*
X158948200Y-105156000D03*
X158948200Y-106656000D03*
D13*
X155424200Y-105476000D03*
X155424200Y-107376000D03*
X157424200Y-106426000D03*
D15*
X169571800Y-103346000D03*
X169571800Y-101346000D03*
D14*
X151972800Y-123647200D03*
X151972800Y-122377200D03*
X151972800Y-121107200D03*
X151972800Y-119837200D03*
X146572800Y-119837200D03*
X146572800Y-121107200D03*
X146572800Y-122377200D03*
X146572800Y-123647200D03*
D12*
X153868200Y-121551000D03*
X153868200Y-123051000D03*
D13*
X155424200Y-121732000D03*
X155424200Y-123632000D03*
X157424200Y-122682000D03*
D14*
X151988600Y-117424200D03*
X151988600Y-116154200D03*
X151988600Y-114884200D03*
X151988600Y-113614200D03*
X146588600Y-113614200D03*
X146588600Y-114884200D03*
X146588600Y-116154200D03*
X146588600Y-117424200D03*
D13*
X155424200Y-117693400D03*
X155424200Y-119593400D03*
X157424200Y-118643400D03*
D15*
X185573800Y-105095800D03*
X185573800Y-107095800D03*
D12*
X183948200Y-101142800D03*
X183948200Y-102642800D03*
X183948200Y-105156000D03*
X183948200Y-106656000D03*
D13*
X180426200Y-101437400D03*
X180426200Y-103337400D03*
X182426200Y-102387400D03*
X180424200Y-105476000D03*
X180424200Y-107376000D03*
X182424200Y-106426000D03*
D14*
X176988600Y-117424200D03*
X176988600Y-116154200D03*
X176988600Y-114884200D03*
X176988600Y-113614200D03*
X171588600Y-113614200D03*
X171588600Y-114884200D03*
X171588600Y-116154200D03*
X171588600Y-117424200D03*
X176972800Y-123647200D03*
X176972800Y-122377200D03*
X176972800Y-121107200D03*
X176972800Y-119837200D03*
X171572800Y-119837200D03*
X171572800Y-121107200D03*
X171572800Y-122377200D03*
X171572800Y-123647200D03*
D16*
X169548400Y-115156800D03*
X169548400Y-113256800D03*
X169548400Y-116457200D03*
X169548400Y-118357200D03*
D15*
X169546400Y-123672600D03*
X169546400Y-121672600D03*
D12*
X178944400Y-113321400D03*
X178944400Y-114821400D03*
D17*
X188393200Y-117169200D03*
D18*
X188393200Y-115169200D03*
X188393200Y-113169200D03*
X188393200Y-111169200D03*
X188393200Y-109169200D03*
X188393200Y-107169200D03*
D12*
X183973600Y-109270800D03*
X183973600Y-110770800D03*
D13*
X180424200Y-109565400D03*
X180424200Y-111465400D03*
X182424200Y-110515400D03*
X180424200Y-113629400D03*
X180424200Y-115529400D03*
X182424200Y-114579400D03*
D12*
X178944400Y-109245400D03*
X178944400Y-110745400D03*
X183922800Y-113333400D03*
X183922800Y-114833400D03*
D16*
X169548400Y-111956400D03*
X169548400Y-110056400D03*
D14*
X176988600Y-105206800D03*
X176988600Y-103936800D03*
X176988600Y-102666800D03*
X176988600Y-101396800D03*
X171588600Y-101396800D03*
X171588600Y-102666800D03*
X171588600Y-103936800D03*
X171588600Y-105206800D03*
X176988600Y-111302800D03*
X176988600Y-110032800D03*
X176988600Y-108762800D03*
X176988600Y-107492800D03*
X171588600Y-107492800D03*
X171588600Y-108762800D03*
X171588600Y-110032800D03*
X171588600Y-111302800D03*
D12*
X178946400Y-101403800D03*
X178946400Y-102903800D03*
X178946400Y-104959800D03*
X178946400Y-106459800D03*
D16*
X169548400Y-108756000D03*
X169548400Y-106856000D03*
D12*
X183922800Y-121424000D03*
X183922800Y-122924000D03*
D15*
X185548400Y-117303800D03*
X185548400Y-119303800D03*
D12*
X178919000Y-117398800D03*
X178919000Y-118898800D03*
D13*
X180424200Y-121732000D03*
X180424200Y-123632000D03*
X182424200Y-122682000D03*
D12*
X183922800Y-117398800D03*
X183922800Y-118898800D03*
D13*
X180424200Y-117693400D03*
X180424200Y-119593400D03*
X182424200Y-118643400D03*
D12*
X178868200Y-121551000D03*
X178868200Y-123051000D03*
X128919000Y-117398800D03*
X128919000Y-118898800D03*
X133922800Y-121424000D03*
X133922800Y-122924000D03*
D13*
X130424200Y-117693400D03*
X130424200Y-119593400D03*
X132424200Y-118643400D03*
D15*
X135548400Y-117303800D03*
X135548400Y-119303800D03*
D13*
X130424200Y-121732000D03*
X130424200Y-123632000D03*
X132424200Y-122682000D03*
D12*
X133922800Y-117398800D03*
X133922800Y-118898800D03*
X128868200Y-121551000D03*
X128868200Y-123051000D03*
D15*
X144546400Y-123672600D03*
X144546400Y-121672600D03*
D16*
X144548400Y-111956400D03*
X144548400Y-110056400D03*
X144548400Y-115156800D03*
X144548400Y-113256800D03*
D17*
X138393200Y-117169200D03*
D18*
X138393200Y-115169200D03*
X138393200Y-113169200D03*
X138393200Y-111169200D03*
X138393200Y-109169200D03*
X138393200Y-107169200D03*
D16*
X144548400Y-108756000D03*
X144548400Y-106856000D03*
D17*
X141600000Y-117773200D03*
D18*
X141600000Y-115773200D03*
X141600000Y-113773200D03*
X141600000Y-111773200D03*
X141600000Y-109773200D03*
X141600000Y-107773200D03*
D16*
X142666800Y-121925000D03*
X142666800Y-123825000D03*
X144548400Y-116457200D03*
X144548400Y-118357200D03*
D14*
X126988600Y-111302800D03*
X126988600Y-110032800D03*
X126988600Y-108762800D03*
X126988600Y-107492800D03*
X121588600Y-107492800D03*
X121588600Y-108762800D03*
X121588600Y-110032800D03*
X121588600Y-111302800D03*
D16*
X119548400Y-115156800D03*
X119548400Y-113256800D03*
D14*
X126988600Y-117424200D03*
X126988600Y-116154200D03*
X126988600Y-114884200D03*
X126988600Y-113614200D03*
X121588600Y-113614200D03*
X121588600Y-114884200D03*
X121588600Y-116154200D03*
X121588600Y-117424200D03*
D16*
X119548400Y-111956400D03*
X119548400Y-110056400D03*
D17*
X116600000Y-117773200D03*
D18*
X116600000Y-115773200D03*
X116600000Y-113773200D03*
X116600000Y-111773200D03*
X116600000Y-109773200D03*
X116600000Y-107773200D03*
D16*
X119548400Y-108756000D03*
X119548400Y-106856000D03*
D12*
X133948200Y-105156000D03*
X133948200Y-106656000D03*
D13*
X130426200Y-101437400D03*
X130426200Y-103337400D03*
X132426200Y-102387400D03*
D12*
X133948200Y-101142800D03*
X133948200Y-102642800D03*
D16*
X142668800Y-101219000D03*
X142668800Y-103119000D03*
D15*
X135573800Y-105095800D03*
X135573800Y-107095800D03*
D13*
X130424200Y-105476000D03*
X130424200Y-107376000D03*
X132424200Y-106426000D03*
D15*
X144571800Y-103346000D03*
X144571800Y-101346000D03*
D12*
X128946400Y-101403800D03*
X128946400Y-102903800D03*
D14*
X126988600Y-105206800D03*
X126988600Y-103936800D03*
X126988600Y-102666800D03*
X126988600Y-101396800D03*
X121588600Y-101396800D03*
X121588600Y-102666800D03*
X121588600Y-103936800D03*
X121588600Y-105206800D03*
D15*
X119571800Y-103346000D03*
X119571800Y-101346000D03*
D16*
X117668800Y-101219000D03*
X117668800Y-103119000D03*
D12*
X128946400Y-104959800D03*
X128946400Y-106459800D03*
D16*
X117666800Y-121925000D03*
X117666800Y-123825000D03*
X119548400Y-116457200D03*
X119548400Y-118357200D03*
D15*
X119546400Y-123672600D03*
X119546400Y-121672600D03*
D14*
X126972800Y-123647200D03*
X126972800Y-122377200D03*
X126972800Y-121107200D03*
X126972800Y-119837200D03*
X121572800Y-119837200D03*
X121572800Y-121107200D03*
X121572800Y-122377200D03*
X121572800Y-123647200D03*
D12*
X128944400Y-109245400D03*
X128944400Y-110745400D03*
X133922800Y-113333400D03*
X133922800Y-114833400D03*
X133973600Y-109270800D03*
X133973600Y-110770800D03*
D13*
X130424200Y-109565400D03*
X130424200Y-111465400D03*
X132424200Y-110515400D03*
X130424200Y-113629400D03*
X130424200Y-115529400D03*
X132424200Y-114579400D03*
D12*
X128944400Y-113321400D03*
X128944400Y-114821400D03*
X103946400Y-104959800D03*
X103946400Y-106459800D03*
X103946400Y-101403800D03*
X103946400Y-102903800D03*
D16*
X94548400Y-108756000D03*
X94548400Y-106856000D03*
X92668800Y-101219000D03*
X92668800Y-103119000D03*
D15*
X94571800Y-103346000D03*
X94571800Y-101346000D03*
D14*
X101988600Y-111302800D03*
X101988600Y-110032800D03*
X101988600Y-108762800D03*
X101988600Y-107492800D03*
X96588600Y-107492800D03*
X96588600Y-108762800D03*
X96588600Y-110032800D03*
X96588600Y-111302800D03*
X101988600Y-105206800D03*
X101988600Y-103936800D03*
X101988600Y-102666800D03*
X101988600Y-101396800D03*
X96588600Y-101396800D03*
X96588600Y-102666800D03*
X96588600Y-103936800D03*
X96588600Y-105206800D03*
D12*
X103944400Y-109245400D03*
X103944400Y-110745400D03*
X108973600Y-109270800D03*
X108973600Y-110770800D03*
D13*
X105424200Y-113629400D03*
X105424200Y-115529400D03*
X107424200Y-114579400D03*
D15*
X110548400Y-117303800D03*
X110548400Y-119303800D03*
D12*
X103944400Y-113321400D03*
X103944400Y-114821400D03*
D13*
X105424200Y-109565400D03*
X105424200Y-111465400D03*
X107424200Y-110515400D03*
D17*
X113393200Y-117169200D03*
D18*
X113393200Y-115169200D03*
X113393200Y-113169200D03*
X113393200Y-111169200D03*
X113393200Y-109169200D03*
X113393200Y-107169200D03*
D12*
X108922800Y-113333400D03*
X108922800Y-114833400D03*
X108922800Y-121424000D03*
X108922800Y-122924000D03*
X103919000Y-117398800D03*
X103919000Y-118898800D03*
D13*
X105424200Y-117693400D03*
X105424200Y-119593400D03*
X107424200Y-118643400D03*
X105424200Y-121732000D03*
X105424200Y-123632000D03*
X107424200Y-122682000D03*
D12*
X108922800Y-117398800D03*
X108922800Y-118898800D03*
X103868200Y-121551000D03*
X103868200Y-123051000D03*
X108948200Y-105156000D03*
X108948200Y-106656000D03*
D13*
X105424200Y-105476000D03*
X105424200Y-107376000D03*
X107424200Y-106426000D03*
D15*
X110573800Y-105095800D03*
X110573800Y-107095800D03*
D13*
X105426200Y-101437400D03*
X105426200Y-103337400D03*
X107426200Y-102387400D03*
D12*
X108948200Y-101142800D03*
X108948200Y-102642800D03*
D17*
X91600000Y-117773200D03*
D18*
X91600000Y-115773200D03*
X91600000Y-113773200D03*
X91600000Y-111773200D03*
X91600000Y-109773200D03*
X91600000Y-107773200D03*
D14*
X101988600Y-117424200D03*
X101988600Y-116154200D03*
X101988600Y-114884200D03*
X101988600Y-113614200D03*
X96588600Y-113614200D03*
X96588600Y-114884200D03*
X96588600Y-116154200D03*
X96588600Y-117424200D03*
D15*
X94546400Y-123672600D03*
X94546400Y-121672600D03*
D16*
X94548400Y-111956400D03*
X94548400Y-110056400D03*
D14*
X101972800Y-123647200D03*
X101972800Y-122377200D03*
X101972800Y-121107200D03*
X101972800Y-119837200D03*
X96572800Y-119837200D03*
X96572800Y-121107200D03*
X96572800Y-122377200D03*
X96572800Y-123647200D03*
D16*
X92666800Y-121925000D03*
X92666800Y-123825000D03*
X94548400Y-116457200D03*
X94548400Y-118357200D03*
X94548400Y-115156800D03*
X94548400Y-113256800D03*
D12*
X153919000Y-92398800D03*
X153919000Y-93898800D03*
X153944400Y-88321400D03*
X153944400Y-89821400D03*
D13*
X155424200Y-88629400D03*
X155424200Y-90529400D03*
X157424200Y-89579400D03*
X155424200Y-84565400D03*
X155424200Y-86465400D03*
X157424200Y-85515400D03*
D14*
X151988600Y-86302800D03*
X151988600Y-85032800D03*
X151988600Y-83762800D03*
X151988600Y-82492800D03*
X146588600Y-82492800D03*
X146588600Y-83762800D03*
X146588600Y-85032800D03*
X146588600Y-86302800D03*
D12*
X153946400Y-76403800D03*
X153946400Y-77903800D03*
D14*
X151988600Y-80206800D03*
X151988600Y-78936800D03*
X151988600Y-77666800D03*
X151988600Y-76396800D03*
X146588600Y-76396800D03*
X146588600Y-77666800D03*
X146588600Y-78936800D03*
X146588600Y-80206800D03*
D12*
X153944400Y-84245400D03*
X153944400Y-85745400D03*
X153946400Y-79959800D03*
X153946400Y-81459800D03*
D15*
X160548400Y-92303800D03*
X160548400Y-94303800D03*
D12*
X158922800Y-92398800D03*
X158922800Y-93898800D03*
X158922800Y-88333400D03*
X158922800Y-89833400D03*
D16*
X167666800Y-96925000D03*
X167666800Y-98825000D03*
D17*
X166600000Y-92773200D03*
D18*
X166600000Y-90773200D03*
X166600000Y-88773200D03*
X166600000Y-86773200D03*
X166600000Y-84773200D03*
X166600000Y-82773200D03*
D17*
X163393200Y-92169200D03*
D18*
X163393200Y-90169200D03*
X163393200Y-88169200D03*
X163393200Y-86169200D03*
X163393200Y-84169200D03*
X163393200Y-82169200D03*
D12*
X158973600Y-84270800D03*
X158973600Y-85770800D03*
X158922800Y-96424000D03*
X158922800Y-97924000D03*
D15*
X160573800Y-80095800D03*
X160573800Y-82095800D03*
D13*
X155426200Y-76437400D03*
X155426200Y-78337400D03*
X157426200Y-77387400D03*
D12*
X158948200Y-76142800D03*
X158948200Y-77642800D03*
D16*
X167668800Y-76219000D03*
X167668800Y-78119000D03*
D12*
X158948200Y-80156000D03*
X158948200Y-81656000D03*
D13*
X155424200Y-80476000D03*
X155424200Y-82376000D03*
X157424200Y-81426000D03*
D15*
X169571800Y-78346000D03*
X169571800Y-76346000D03*
D14*
X151972800Y-98647200D03*
X151972800Y-97377200D03*
X151972800Y-96107200D03*
X151972800Y-94837200D03*
X146572800Y-94837200D03*
X146572800Y-96107200D03*
X146572800Y-97377200D03*
X146572800Y-98647200D03*
D12*
X153868200Y-96551000D03*
X153868200Y-98051000D03*
D13*
X155424200Y-96732000D03*
X155424200Y-98632000D03*
X157424200Y-97682000D03*
D14*
X151988600Y-92424200D03*
X151988600Y-91154200D03*
X151988600Y-89884200D03*
X151988600Y-88614200D03*
X146588600Y-88614200D03*
X146588600Y-89884200D03*
X146588600Y-91154200D03*
X146588600Y-92424200D03*
D13*
X155424200Y-92693400D03*
X155424200Y-94593400D03*
X157424200Y-93643400D03*
D15*
X185573800Y-80095800D03*
X185573800Y-82095800D03*
D12*
X183948200Y-76142800D03*
X183948200Y-77642800D03*
X183948200Y-80156000D03*
X183948200Y-81656000D03*
D13*
X180426200Y-76437400D03*
X180426200Y-78337400D03*
X182426200Y-77387400D03*
X180424200Y-80476000D03*
X180424200Y-82376000D03*
X182424200Y-81426000D03*
D14*
X176988600Y-92424200D03*
X176988600Y-91154200D03*
X176988600Y-89884200D03*
X176988600Y-88614200D03*
X171588600Y-88614200D03*
X171588600Y-89884200D03*
X171588600Y-91154200D03*
X171588600Y-92424200D03*
X176972800Y-98647200D03*
X176972800Y-97377200D03*
X176972800Y-96107200D03*
X176972800Y-94837200D03*
X171572800Y-94837200D03*
X171572800Y-96107200D03*
X171572800Y-97377200D03*
X171572800Y-98647200D03*
D16*
X169548400Y-90156800D03*
X169548400Y-88256800D03*
X169548400Y-91457200D03*
X169548400Y-93357200D03*
D15*
X169546400Y-98672600D03*
X169546400Y-96672600D03*
D12*
X178944400Y-88321400D03*
X178944400Y-89821400D03*
D17*
X188393200Y-92169200D03*
D18*
X188393200Y-90169200D03*
X188393200Y-88169200D03*
X188393200Y-86169200D03*
X188393200Y-84169200D03*
X188393200Y-82169200D03*
D12*
X183973600Y-84270800D03*
X183973600Y-85770800D03*
D13*
X180424200Y-84565400D03*
X180424200Y-86465400D03*
X182424200Y-85515400D03*
X180424200Y-88629400D03*
X180424200Y-90529400D03*
X182424200Y-89579400D03*
D12*
X178944400Y-84245400D03*
X178944400Y-85745400D03*
X183922800Y-88333400D03*
X183922800Y-89833400D03*
D16*
X169548400Y-86956400D03*
X169548400Y-85056400D03*
D14*
X176988600Y-80206800D03*
X176988600Y-78936800D03*
X176988600Y-77666800D03*
X176988600Y-76396800D03*
X171588600Y-76396800D03*
X171588600Y-77666800D03*
X171588600Y-78936800D03*
X171588600Y-80206800D03*
X176988600Y-86302800D03*
X176988600Y-85032800D03*
X176988600Y-83762800D03*
X176988600Y-82492800D03*
X171588600Y-82492800D03*
X171588600Y-83762800D03*
X171588600Y-85032800D03*
X171588600Y-86302800D03*
D12*
X178946400Y-76403800D03*
X178946400Y-77903800D03*
X178946400Y-79959800D03*
X178946400Y-81459800D03*
D16*
X169548400Y-83756000D03*
X169548400Y-81856000D03*
D12*
X183922800Y-96424000D03*
X183922800Y-97924000D03*
D15*
X185548400Y-92303800D03*
X185548400Y-94303800D03*
D12*
X178919000Y-92398800D03*
X178919000Y-93898800D03*
D13*
X180424200Y-96732000D03*
X180424200Y-98632000D03*
X182424200Y-97682000D03*
D12*
X183922800Y-92398800D03*
X183922800Y-93898800D03*
D13*
X180424200Y-92693400D03*
X180424200Y-94593400D03*
X182424200Y-93643400D03*
D12*
X178868200Y-96551000D03*
X178868200Y-98051000D03*
X128919000Y-92398800D03*
X128919000Y-93898800D03*
X133922800Y-96424000D03*
X133922800Y-97924000D03*
D13*
X130424200Y-92693400D03*
X130424200Y-94593400D03*
X132424200Y-93643400D03*
D15*
X135548400Y-92303800D03*
X135548400Y-94303800D03*
D13*
X130424200Y-96732000D03*
X130424200Y-98632000D03*
X132424200Y-97682000D03*
D12*
X133922800Y-92398800D03*
X133922800Y-93898800D03*
X128868200Y-96551000D03*
X128868200Y-98051000D03*
D15*
X144546400Y-98672600D03*
X144546400Y-96672600D03*
D16*
X144548400Y-86956400D03*
X144548400Y-85056400D03*
X144548400Y-90156800D03*
X144548400Y-88256800D03*
D17*
X138393200Y-92169200D03*
D18*
X138393200Y-90169200D03*
X138393200Y-88169200D03*
X138393200Y-86169200D03*
X138393200Y-84169200D03*
X138393200Y-82169200D03*
D16*
X144548400Y-83756000D03*
X144548400Y-81856000D03*
D17*
X141600000Y-92773200D03*
D18*
X141600000Y-90773200D03*
X141600000Y-88773200D03*
X141600000Y-86773200D03*
X141600000Y-84773200D03*
X141600000Y-82773200D03*
D16*
X142666800Y-96925000D03*
X142666800Y-98825000D03*
X144548400Y-91457200D03*
X144548400Y-93357200D03*
D14*
X126988600Y-86302800D03*
X126988600Y-85032800D03*
X126988600Y-83762800D03*
X126988600Y-82492800D03*
X121588600Y-82492800D03*
X121588600Y-83762800D03*
X121588600Y-85032800D03*
X121588600Y-86302800D03*
D16*
X119548400Y-90156800D03*
X119548400Y-88256800D03*
D14*
X126988600Y-92424200D03*
X126988600Y-91154200D03*
X126988600Y-89884200D03*
X126988600Y-88614200D03*
X121588600Y-88614200D03*
X121588600Y-89884200D03*
X121588600Y-91154200D03*
X121588600Y-92424200D03*
D16*
X119548400Y-86956400D03*
X119548400Y-85056400D03*
D17*
X116600000Y-92773200D03*
D18*
X116600000Y-90773200D03*
X116600000Y-88773200D03*
X116600000Y-86773200D03*
X116600000Y-84773200D03*
X116600000Y-82773200D03*
D16*
X119548400Y-83756000D03*
X119548400Y-81856000D03*
D12*
X133948200Y-80156000D03*
X133948200Y-81656000D03*
D13*
X130426200Y-76437400D03*
X130426200Y-78337400D03*
X132426200Y-77387400D03*
D12*
X133948200Y-76142800D03*
X133948200Y-77642800D03*
D16*
X142668800Y-76219000D03*
X142668800Y-78119000D03*
D15*
X135573800Y-80095800D03*
X135573800Y-82095800D03*
D13*
X130424200Y-80476000D03*
X130424200Y-82376000D03*
X132424200Y-81426000D03*
D15*
X144571800Y-78346000D03*
X144571800Y-76346000D03*
D12*
X128946400Y-76403800D03*
X128946400Y-77903800D03*
D14*
X126988600Y-80206800D03*
X126988600Y-78936800D03*
X126988600Y-77666800D03*
X126988600Y-76396800D03*
X121588600Y-76396800D03*
X121588600Y-77666800D03*
X121588600Y-78936800D03*
X121588600Y-80206800D03*
D15*
X119571800Y-78346000D03*
X119571800Y-76346000D03*
D16*
X117668800Y-76219000D03*
X117668800Y-78119000D03*
D12*
X128946400Y-79959800D03*
X128946400Y-81459800D03*
D16*
X117666800Y-96925000D03*
X117666800Y-98825000D03*
X119548400Y-91457200D03*
X119548400Y-93357200D03*
D15*
X119546400Y-98672600D03*
X119546400Y-96672600D03*
D14*
X126972800Y-98647200D03*
X126972800Y-97377200D03*
X126972800Y-96107200D03*
X126972800Y-94837200D03*
X121572800Y-94837200D03*
X121572800Y-96107200D03*
X121572800Y-97377200D03*
X121572800Y-98647200D03*
D12*
X128944400Y-84245400D03*
X128944400Y-85745400D03*
X133922800Y-88333400D03*
X133922800Y-89833400D03*
X133973600Y-84270800D03*
X133973600Y-85770800D03*
D13*
X130424200Y-84565400D03*
X130424200Y-86465400D03*
X132424200Y-85515400D03*
X130424200Y-88629400D03*
X130424200Y-90529400D03*
X132424200Y-89579400D03*
D12*
X128944400Y-88321400D03*
X128944400Y-89821400D03*
X103946400Y-79959800D03*
X103946400Y-81459800D03*
X103946400Y-76403800D03*
X103946400Y-77903800D03*
D16*
X94548400Y-83756000D03*
X94548400Y-81856000D03*
X92668800Y-76219000D03*
X92668800Y-78119000D03*
D15*
X94571800Y-78346000D03*
X94571800Y-76346000D03*
D14*
X101988600Y-86302800D03*
X101988600Y-85032800D03*
X101988600Y-83762800D03*
X101988600Y-82492800D03*
X96588600Y-82492800D03*
X96588600Y-83762800D03*
X96588600Y-85032800D03*
X96588600Y-86302800D03*
X101988600Y-80206800D03*
X101988600Y-78936800D03*
X101988600Y-77666800D03*
X101988600Y-76396800D03*
X96588600Y-76396800D03*
X96588600Y-77666800D03*
X96588600Y-78936800D03*
X96588600Y-80206800D03*
D12*
X103944400Y-84245400D03*
X103944400Y-85745400D03*
X108973600Y-84270800D03*
X108973600Y-85770800D03*
D13*
X105424200Y-88629400D03*
X105424200Y-90529400D03*
X107424200Y-89579400D03*
D15*
X110548400Y-92303800D03*
X110548400Y-94303800D03*
D12*
X103944400Y-88321400D03*
X103944400Y-89821400D03*
D13*
X105424200Y-84565400D03*
X105424200Y-86465400D03*
X107424200Y-85515400D03*
D17*
X113393200Y-92169200D03*
D18*
X113393200Y-90169200D03*
X113393200Y-88169200D03*
X113393200Y-86169200D03*
X113393200Y-84169200D03*
X113393200Y-82169200D03*
D12*
X108922800Y-88333400D03*
X108922800Y-89833400D03*
X108922800Y-96424000D03*
X108922800Y-97924000D03*
X103919000Y-92398800D03*
X103919000Y-93898800D03*
D13*
X105424200Y-92693400D03*
X105424200Y-94593400D03*
X107424200Y-93643400D03*
X105424200Y-96732000D03*
X105424200Y-98632000D03*
X107424200Y-97682000D03*
D12*
X108922800Y-92398800D03*
X108922800Y-93898800D03*
X103868200Y-96551000D03*
X103868200Y-98051000D03*
X108948200Y-80156000D03*
X108948200Y-81656000D03*
D13*
X105424200Y-80476000D03*
X105424200Y-82376000D03*
X107424200Y-81426000D03*
D15*
X110573800Y-80095800D03*
X110573800Y-82095800D03*
D13*
X105426200Y-76437400D03*
X105426200Y-78337400D03*
X107426200Y-77387400D03*
D12*
X108948200Y-76142800D03*
X108948200Y-77642800D03*
D17*
X91600000Y-92773200D03*
D18*
X91600000Y-90773200D03*
X91600000Y-88773200D03*
X91600000Y-86773200D03*
X91600000Y-84773200D03*
X91600000Y-82773200D03*
D14*
X101988600Y-92424200D03*
X101988600Y-91154200D03*
X101988600Y-89884200D03*
X101988600Y-88614200D03*
X96588600Y-88614200D03*
X96588600Y-89884200D03*
X96588600Y-91154200D03*
X96588600Y-92424200D03*
D15*
X94546400Y-98672600D03*
X94546400Y-96672600D03*
D16*
X94548400Y-86956400D03*
X94548400Y-85056400D03*
D14*
X101972800Y-98647200D03*
X101972800Y-97377200D03*
X101972800Y-96107200D03*
X101972800Y-94837200D03*
X96572800Y-94837200D03*
X96572800Y-96107200D03*
X96572800Y-97377200D03*
X96572800Y-98647200D03*
D16*
X92666800Y-96925000D03*
X92666800Y-98825000D03*
X94548400Y-91457200D03*
X94548400Y-93357200D03*
X94548400Y-90156800D03*
X94548400Y-88256800D03*
D12*
X178944400Y-63321400D03*
X178944400Y-64821400D03*
D14*
X176988600Y-67424200D03*
X176988600Y-66154200D03*
X176988600Y-64884200D03*
X176988600Y-63614200D03*
X171588600Y-63614200D03*
X171588600Y-64884200D03*
X171588600Y-66154200D03*
X171588600Y-67424200D03*
D12*
X178919000Y-67398800D03*
X178919000Y-68898800D03*
X178868200Y-71551000D03*
X178868200Y-73051000D03*
D14*
X176972800Y-73647200D03*
X176972800Y-72377200D03*
X176972800Y-71107200D03*
X176972800Y-69837200D03*
X171572800Y-69837200D03*
X171572800Y-71107200D03*
X171572800Y-72377200D03*
X171572800Y-73647200D03*
D13*
X180424200Y-59565400D03*
X180424200Y-61465400D03*
X182424200Y-60515400D03*
D12*
X183973600Y-59270800D03*
X183973600Y-60770800D03*
X183922800Y-63333400D03*
X183922800Y-64833400D03*
D17*
X188393200Y-67169200D03*
D18*
X188393200Y-65169200D03*
X188393200Y-63169200D03*
X188393200Y-61169200D03*
X188393200Y-59169200D03*
X188393200Y-57169200D03*
D13*
X180424200Y-63629400D03*
X180424200Y-65529400D03*
X182424200Y-64579400D03*
X180424200Y-67693400D03*
X180424200Y-69593400D03*
X182424200Y-68643400D03*
D12*
X183922800Y-71424000D03*
X183922800Y-72924000D03*
D15*
X185548400Y-67303800D03*
X185548400Y-69303800D03*
D13*
X180424200Y-71732000D03*
X180424200Y-73632000D03*
X182424200Y-72682000D03*
D12*
X183922800Y-67398800D03*
X183922800Y-68898800D03*
D16*
X169548400Y-58756000D03*
X169548400Y-56856000D03*
X169548400Y-65156800D03*
X169548400Y-63256800D03*
D15*
X169546400Y-73672600D03*
X169546400Y-71672600D03*
D16*
X169548400Y-61956400D03*
X169548400Y-60056400D03*
X167666800Y-71925000D03*
X167666800Y-73825000D03*
D17*
X166600000Y-67773200D03*
D18*
X166600000Y-65773200D03*
X166600000Y-63773200D03*
X166600000Y-61773200D03*
X166600000Y-59773200D03*
X166600000Y-57773200D03*
D17*
X163393200Y-67169200D03*
D18*
X163393200Y-65169200D03*
X163393200Y-63169200D03*
X163393200Y-61169200D03*
X163393200Y-59169200D03*
X163393200Y-57169200D03*
D16*
X169548400Y-66457200D03*
X169548400Y-68357200D03*
D12*
X183948200Y-55156000D03*
X183948200Y-56656000D03*
X183948200Y-51142800D03*
X183948200Y-52642800D03*
D15*
X185573800Y-55095800D03*
X185573800Y-57095800D03*
D13*
X180424200Y-55476000D03*
X180424200Y-57376000D03*
X182424200Y-56426000D03*
X180426200Y-51437400D03*
X180426200Y-53337400D03*
X182426200Y-52387400D03*
D12*
X178944400Y-59245400D03*
X178944400Y-60745400D03*
D15*
X169571800Y-53346000D03*
X169571800Y-51346000D03*
D12*
X178946400Y-54959800D03*
X178946400Y-56459800D03*
X178946400Y-51403800D03*
X178946400Y-52903800D03*
D14*
X176988600Y-61302800D03*
X176988600Y-60032800D03*
X176988600Y-58762800D03*
X176988600Y-57492800D03*
X171588600Y-57492800D03*
X171588600Y-58762800D03*
X171588600Y-60032800D03*
X171588600Y-61302800D03*
X176988600Y-55206800D03*
X176988600Y-53936800D03*
X176988600Y-52666800D03*
X176988600Y-51396800D03*
X171588600Y-51396800D03*
X171588600Y-52666800D03*
X171588600Y-53936800D03*
X171588600Y-55206800D03*
D16*
X167668800Y-51219000D03*
X167668800Y-53119000D03*
D12*
X158922800Y-63333400D03*
X158922800Y-64833400D03*
X153944400Y-59245400D03*
X153944400Y-60745400D03*
X153944400Y-63321400D03*
X153944400Y-64821400D03*
X158973600Y-59270800D03*
X158973600Y-60770800D03*
D13*
X155424200Y-59565400D03*
X155424200Y-61465400D03*
X157424200Y-60515400D03*
D16*
X144548400Y-58756000D03*
X144548400Y-56856000D03*
X144548400Y-61956400D03*
X144548400Y-60056400D03*
X144548400Y-65156800D03*
X144548400Y-63256800D03*
D14*
X151988600Y-61302800D03*
X151988600Y-60032800D03*
X151988600Y-58762800D03*
X151988600Y-57492800D03*
X146588600Y-57492800D03*
X146588600Y-58762800D03*
X146588600Y-60032800D03*
X146588600Y-61302800D03*
D12*
X153946400Y-54959800D03*
X153946400Y-56459800D03*
X153946400Y-51403800D03*
X153946400Y-52903800D03*
D13*
X155426200Y-51437400D03*
X155426200Y-53337400D03*
X157426200Y-52387400D03*
D12*
X158948200Y-51142800D03*
X158948200Y-52642800D03*
D13*
X155424200Y-55476000D03*
X155424200Y-57376000D03*
X157424200Y-56426000D03*
D15*
X160573800Y-55095800D03*
X160573800Y-57095800D03*
D12*
X158948200Y-55156000D03*
X158948200Y-56656000D03*
D15*
X144571800Y-53346000D03*
X144571800Y-51346000D03*
D14*
X151988600Y-55206800D03*
X151988600Y-53936800D03*
X151988600Y-52666800D03*
X151988600Y-51396800D03*
X146588600Y-51396800D03*
X146588600Y-52666800D03*
X146588600Y-53936800D03*
X146588600Y-55206800D03*
D16*
X144548400Y-66457200D03*
X144548400Y-68357200D03*
D17*
X141600000Y-67773200D03*
D18*
X141600000Y-65773200D03*
X141600000Y-63773200D03*
X141600000Y-61773200D03*
X141600000Y-59773200D03*
X141600000Y-57773200D03*
D16*
X142666800Y-71925000D03*
X142666800Y-73825000D03*
X142668800Y-51219000D03*
X142668800Y-53119000D03*
D14*
X151988600Y-67424200D03*
X151988600Y-66154200D03*
X151988600Y-64884200D03*
X151988600Y-63614200D03*
X146588600Y-63614200D03*
X146588600Y-64884200D03*
X146588600Y-66154200D03*
X146588600Y-67424200D03*
D13*
X155424200Y-71732000D03*
X155424200Y-73632000D03*
X157424200Y-72682000D03*
D12*
X158922800Y-67398800D03*
X158922800Y-68898800D03*
X158922800Y-71424000D03*
X158922800Y-72924000D03*
D13*
X155424200Y-63629400D03*
X155424200Y-65529400D03*
X157424200Y-64579400D03*
X155424200Y-67693400D03*
X155424200Y-69593400D03*
X157424200Y-68643400D03*
D15*
X160548400Y-67303800D03*
X160548400Y-69303800D03*
D14*
X151972800Y-73647200D03*
X151972800Y-72377200D03*
X151972800Y-71107200D03*
X151972800Y-69837200D03*
X146572800Y-69837200D03*
X146572800Y-71107200D03*
X146572800Y-72377200D03*
X146572800Y-73647200D03*
D12*
X153919000Y-67398800D03*
X153919000Y-68898800D03*
D15*
X144546400Y-73672600D03*
X144546400Y-71672600D03*
D12*
X153868200Y-71551000D03*
X153868200Y-73051000D03*
X128944400Y-59245400D03*
X128944400Y-60745400D03*
D14*
X126988600Y-67424200D03*
X126988600Y-66154200D03*
X126988600Y-64884200D03*
X126988600Y-63614200D03*
X121588600Y-63614200D03*
X121588600Y-64884200D03*
X121588600Y-66154200D03*
X121588600Y-67424200D03*
X126988600Y-61302800D03*
X126988600Y-60032800D03*
X126988600Y-58762800D03*
X126988600Y-57492800D03*
X121588600Y-57492800D03*
X121588600Y-58762800D03*
X121588600Y-60032800D03*
X121588600Y-61302800D03*
D12*
X128944400Y-63321400D03*
X128944400Y-64821400D03*
X128919000Y-67398800D03*
X128919000Y-68898800D03*
D15*
X135573800Y-55095800D03*
X135573800Y-57095800D03*
D13*
X130426200Y-51437400D03*
X130426200Y-53337400D03*
X132426200Y-52387400D03*
D12*
X133948200Y-55156000D03*
X133948200Y-56656000D03*
X128946400Y-51403800D03*
X128946400Y-52903800D03*
D13*
X130424200Y-55476000D03*
X130424200Y-57376000D03*
X132424200Y-56426000D03*
D12*
X128946400Y-54959800D03*
X128946400Y-56459800D03*
X133948200Y-51142800D03*
X133948200Y-52642800D03*
X133973600Y-59270800D03*
X133973600Y-60770800D03*
X133922800Y-63333400D03*
X133922800Y-64833400D03*
D13*
X130424200Y-59565400D03*
X130424200Y-61465400D03*
X132424200Y-60515400D03*
D17*
X138393200Y-67169200D03*
D18*
X138393200Y-65169200D03*
X138393200Y-63169200D03*
X138393200Y-61169200D03*
X138393200Y-59169200D03*
X138393200Y-57169200D03*
D13*
X130424200Y-63629400D03*
X130424200Y-65529400D03*
X132424200Y-64579400D03*
D15*
X135548400Y-67303800D03*
X135548400Y-69303800D03*
D12*
X133922800Y-71424000D03*
X133922800Y-72924000D03*
D13*
X130424200Y-67693400D03*
X130424200Y-69593400D03*
X132424200Y-68643400D03*
X130424200Y-71732000D03*
X130424200Y-73632000D03*
X132424200Y-72682000D03*
D12*
X133922800Y-67398800D03*
X133922800Y-68898800D03*
D14*
X126988600Y-55206800D03*
X126988600Y-53936800D03*
X126988600Y-52666800D03*
X126988600Y-51396800D03*
X121588600Y-51396800D03*
X121588600Y-52666800D03*
X121588600Y-53936800D03*
X121588600Y-55206800D03*
D16*
X119548400Y-66457200D03*
X119548400Y-68357200D03*
D17*
X116600000Y-67773200D03*
D18*
X116600000Y-65773200D03*
X116600000Y-63773200D03*
X116600000Y-61773200D03*
X116600000Y-59773200D03*
X116600000Y-57773200D03*
D16*
X119548400Y-58756000D03*
X119548400Y-56856000D03*
X117668800Y-51219000D03*
X117668800Y-53119000D03*
X119548400Y-65156800D03*
X119548400Y-63256800D03*
X119548400Y-61956400D03*
X119548400Y-60056400D03*
D15*
X119571800Y-53346000D03*
X119571800Y-51346000D03*
D12*
X128868200Y-71551000D03*
X128868200Y-73051000D03*
D14*
X126972800Y-73647200D03*
X126972800Y-72377200D03*
X126972800Y-71107200D03*
X126972800Y-69837200D03*
X121572800Y-69837200D03*
X121572800Y-71107200D03*
X121572800Y-72377200D03*
X121572800Y-73647200D03*
D16*
X117666800Y-71925000D03*
X117666800Y-73825000D03*
D15*
X119546400Y-73672600D03*
X119546400Y-71672600D03*
D13*
X105424200Y-63629400D03*
X105424200Y-65529400D03*
X107424200Y-64579400D03*
D15*
X94546400Y-73672600D03*
X94546400Y-71672600D03*
X94571800Y-53346000D03*
X94571800Y-51346000D03*
D17*
X91600000Y-67773200D03*
D18*
X91600000Y-65773200D03*
X91600000Y-63773200D03*
X91600000Y-61773200D03*
X91600000Y-59773200D03*
X91600000Y-57773200D03*
D17*
X113393200Y-67169200D03*
D18*
X113393200Y-65169200D03*
X113393200Y-63169200D03*
X113393200Y-61169200D03*
X113393200Y-59169200D03*
X113393200Y-57169200D03*
D16*
X94548400Y-61956400D03*
X94548400Y-60056400D03*
X94548400Y-65156800D03*
X94548400Y-63256800D03*
X92666800Y-71925000D03*
X92666800Y-73825000D03*
X92668800Y-51219000D03*
X92668800Y-53119000D03*
X94548400Y-58756000D03*
X94548400Y-56856000D03*
X94548400Y-66457200D03*
X94548400Y-68357200D03*
D14*
X101988600Y-61302800D03*
X101988600Y-60032800D03*
X101988600Y-58762800D03*
X101988600Y-57492800D03*
X96588600Y-57492800D03*
X96588600Y-58762800D03*
X96588600Y-60032800D03*
X96588600Y-61302800D03*
X101972800Y-73647200D03*
X101972800Y-72377200D03*
X101972800Y-71107200D03*
X101972800Y-69837200D03*
X96572800Y-69837200D03*
X96572800Y-71107200D03*
X96572800Y-72377200D03*
X96572800Y-73647200D03*
X101988600Y-55206800D03*
X101988600Y-53936800D03*
X101988600Y-52666800D03*
X101988600Y-51396800D03*
X96588600Y-51396800D03*
X96588600Y-52666800D03*
X96588600Y-53936800D03*
X96588600Y-55206800D03*
X101988600Y-67424200D03*
X101988600Y-66154200D03*
X101988600Y-64884200D03*
X101988600Y-63614200D03*
X96588600Y-63614200D03*
X96588600Y-64884200D03*
X96588600Y-66154200D03*
X96588600Y-67424200D03*
D13*
X105424200Y-71732000D03*
X105424200Y-73632000D03*
X107424200Y-72682000D03*
X105424200Y-67693400D03*
X105424200Y-69593400D03*
X107424200Y-68643400D03*
X105424200Y-59565400D03*
X105424200Y-61465400D03*
X107424200Y-60515400D03*
X105424200Y-55476000D03*
X105424200Y-57376000D03*
X107424200Y-56426000D03*
X105426200Y-51437400D03*
X105426200Y-53337400D03*
X107426200Y-52387400D03*
D12*
X103868200Y-71551000D03*
X103868200Y-73051000D03*
X108922800Y-71424000D03*
X108922800Y-72924000D03*
X103919000Y-67398800D03*
X103919000Y-68898800D03*
X108922800Y-67398800D03*
X108922800Y-68898800D03*
X103944400Y-63321400D03*
X103944400Y-64821400D03*
X108922800Y-63333400D03*
X108922800Y-64833400D03*
X103944400Y-59245400D03*
X103944400Y-60745400D03*
X108973600Y-59270800D03*
X108973600Y-60770800D03*
X103946400Y-54959800D03*
X103946400Y-56459800D03*
X108948200Y-55156000D03*
X108948200Y-56656000D03*
X103946400Y-51403800D03*
X103946400Y-52903800D03*
X108948200Y-51142800D03*
X108948200Y-52642800D03*
D15*
X110548400Y-67303800D03*
X110548400Y-69303800D03*
X110573800Y-55095800D03*
X110573800Y-57095800D03*
M02*
