M48
;DRILL file {KiCad 4.0.2-stable} date 11/9/2017 2:12:22 PM
;FORMAT={3:3/ absolute / metric / suppress leading zeros}
FMAT,2
METRIC,TZ
T1C0.400
%
G90
G05
M71
T1
X101143Y-52286
X101143Y-77286
X101143Y-102286
X101143Y-127286
X101270Y-51194
X101270Y-76194
X101270Y-101194
X101270Y-126194
X101600Y-55600
X101600Y-69202
X101600Y-80600
X101600Y-94202
X101600Y-105600
X101600Y-119202
X101600Y-130600
X101600Y-144202
X104521Y-70421
X104521Y-95421
X104521Y-120421
X104521Y-145421
X104546Y-61049
X104546Y-64300
X104546Y-86049
X104546Y-89300
X104546Y-111049
X104546Y-114300
X104546Y-136049
X104546Y-139300
X104548Y-57770
X104548Y-82770
X104548Y-107770
X104548Y-132770
X106197Y-56375
X106197Y-81375
X106197Y-106375
X106197Y-131375
X107681Y-72975
X107681Y-97975
X107681Y-122975
X107681Y-147975
X107772Y-63259
X107772Y-88259
X107772Y-113259
X107772Y-138259
X107823Y-53937
X107823Y-78937
X107823Y-103937
X107823Y-128937
X108433Y-66078
X108433Y-68364
X108433Y-91078
X108433Y-93364
X108433Y-116078
X108433Y-118364
X108433Y-141078
X108433Y-143364
X110033Y-65240
X110033Y-68643
X110033Y-90240
X110033Y-93643
X110033Y-115240
X110033Y-118643
X110033Y-140240
X110033Y-143643
X110160Y-51829
X110160Y-76829
X110160Y-101829
X110160Y-126829
X110312Y-70294
X110312Y-95294
X110312Y-120294
X110312Y-145294
X110549Y-58433
X110549Y-83433
X110549Y-108433
X110549Y-133433
X111989Y-62928
X111989Y-87928
X111989Y-112928
X111989Y-137928
X113347Y-58518
X113347Y-83518
X113347Y-108518
X113347Y-133518
X114097Y-66157
X114097Y-91157
X114097Y-116157
X114097Y-141157
X114122Y-53941
X114122Y-78941
X114122Y-103941
X114122Y-128941
X114252Y-61938
X114252Y-86938
X114252Y-111938
X114252Y-136938
X114325Y-57290
X114325Y-82290
X114325Y-107290
X114325Y-132290
X114554Y-70193
X114554Y-95193
X114554Y-120193
X114554Y-145193
X116561Y-73749
X116561Y-98749
X116561Y-123749
X116561Y-148749
X120244Y-70802
X120244Y-95802
X120244Y-120802
X120244Y-145802
X120421Y-58585
X120421Y-83585
X120421Y-108585
X120421Y-133585
X126143Y-52286
X126143Y-77286
X126143Y-102286
X126143Y-127286
X126270Y-51194
X126270Y-76194
X126270Y-101194
X126270Y-126194
X126600Y-55600
X126600Y-69202
X126600Y-80600
X126600Y-94202
X126600Y-105600
X126600Y-119202
X126600Y-130600
X126600Y-144202
X129521Y-70421
X129521Y-95421
X129521Y-120421
X129521Y-145421
X129546Y-61049
X129546Y-64300
X129546Y-86049
X129546Y-89300
X129546Y-111049
X129546Y-114300
X129546Y-136049
X129546Y-139300
X129548Y-57770
X129548Y-82770
X129548Y-107770
X129548Y-132770
X131197Y-56375
X131197Y-81375
X131197Y-106375
X131197Y-131375
X132681Y-72975
X132681Y-97975
X132681Y-122975
X132681Y-147975
X132772Y-63259
X132772Y-88259
X132772Y-113259
X132772Y-138259
X132823Y-53937
X132823Y-78937
X132823Y-103937
X132823Y-128937
X133433Y-66078
X133433Y-68364
X133433Y-91078
X133433Y-93364
X133433Y-116078
X133433Y-118364
X133433Y-141078
X133433Y-143364
X135033Y-65240
X135033Y-68643
X135033Y-90240
X135033Y-93643
X135033Y-115240
X135033Y-118643
X135033Y-140240
X135033Y-143643
X135160Y-51829
X135160Y-76829
X135160Y-101829
X135160Y-126829
X135312Y-70294
X135312Y-95294
X135312Y-120294
X135312Y-145294
X135549Y-58433
X135549Y-83433
X135549Y-108433
X135549Y-133433
X136989Y-62928
X136989Y-87928
X136989Y-112928
X136989Y-137928
X138347Y-58518
X138347Y-83518
X138347Y-108518
X138347Y-133518
X139097Y-66157
X139097Y-91157
X139097Y-116157
X139097Y-141157
X139122Y-53941
X139122Y-78941
X139122Y-103941
X139122Y-128941
X139252Y-61938
X139252Y-86938
X139252Y-111938
X139252Y-136938
X139325Y-57290
X139325Y-82290
X139325Y-107290
X139325Y-132290
X139554Y-70193
X139554Y-95193
X139554Y-120193
X139554Y-145193
X141561Y-73749
X141561Y-98749
X141561Y-123749
X141561Y-148749
X145244Y-70802
X145244Y-95802
X145244Y-120802
X145244Y-145802
X145421Y-58585
X145421Y-83585
X145421Y-108585
X145421Y-133585
X151143Y-52286
X151143Y-77286
X151143Y-102286
X151143Y-127286
X151270Y-51194
X151270Y-76194
X151270Y-101194
X151270Y-126194
X151600Y-55600
X151600Y-69202
X151600Y-80600
X151600Y-94202
X151600Y-105600
X151600Y-119202
X151600Y-130600
X151600Y-144202
X154521Y-70421
X154521Y-95421
X154521Y-120421
X154521Y-145421
X154546Y-61049
X154546Y-64300
X154546Y-86049
X154546Y-89300
X154546Y-111049
X154546Y-114300
X154546Y-136049
X154546Y-139300
X154548Y-57770
X154548Y-82770
X154548Y-107770
X154548Y-132770
X156197Y-56375
X156197Y-81375
X156197Y-106375
X156197Y-131375
X157681Y-72975
X157681Y-97975
X157681Y-122975
X157681Y-147975
X157772Y-63259
X157772Y-88259
X157772Y-113259
X157772Y-138259
X157823Y-53937
X157823Y-78937
X157823Y-103937
X157823Y-128937
X158433Y-66078
X158433Y-68364
X158433Y-91078
X158433Y-93364
X158433Y-116078
X158433Y-118364
X158433Y-141078
X158433Y-143364
X160033Y-65240
X160033Y-68643
X160033Y-90240
X160033Y-93643
X160033Y-115240
X160033Y-118643
X160033Y-140240
X160033Y-143643
X160160Y-51829
X160160Y-76829
X160160Y-101829
X160160Y-126829
X160312Y-70294
X160312Y-95294
X160312Y-120294
X160312Y-145294
X160549Y-58433
X160549Y-83433
X160549Y-108433
X160549Y-133433
X161989Y-62928
X161989Y-87928
X161989Y-112928
X161989Y-137928
X163347Y-58518
X163347Y-83518
X163347Y-108518
X163347Y-133518
X164097Y-66157
X164097Y-91157
X164097Y-116157
X164097Y-141157
X164122Y-53941
X164122Y-78941
X164122Y-103941
X164122Y-128941
X164252Y-61938
X164252Y-86938
X164252Y-111938
X164252Y-136938
X164325Y-57290
X164325Y-82290
X164325Y-107290
X164325Y-132290
X164554Y-70193
X164554Y-95193
X164554Y-120193
X164554Y-145193
X166561Y-73749
X166561Y-98749
X166561Y-123749
X166561Y-148749
X170244Y-70802
X170244Y-95802
X170244Y-120802
X170244Y-145802
X170421Y-58585
X170421Y-83585
X170421Y-108585
X170421Y-133585
X176143Y-52286
X176143Y-77286
X176143Y-102286
X176143Y-127286
X176270Y-51194
X176270Y-76194
X176270Y-101194
X176270Y-126194
X176600Y-55600
X176600Y-69202
X176600Y-80600
X176600Y-94202
X176600Y-105600
X176600Y-119202
X176600Y-130600
X176600Y-144202
X179521Y-70421
X179521Y-95421
X179521Y-120421
X179521Y-145421
X179546Y-61049
X179546Y-64300
X179546Y-86049
X179546Y-89300
X179546Y-111049
X179546Y-114300
X179546Y-136049
X179546Y-139300
X179548Y-57770
X179548Y-82770
X179548Y-107770
X179548Y-132770
X181197Y-56375
X181197Y-81375
X181197Y-106375
X181197Y-131375
X182681Y-72975
X182681Y-97975
X182681Y-122975
X182681Y-147975
X182772Y-63259
X182772Y-88259
X182772Y-113259
X182772Y-138259
X182823Y-53937
X182823Y-78937
X182823Y-103937
X182823Y-128937
X183433Y-66078
X183433Y-68364
X183433Y-91078
X183433Y-93364
X183433Y-116078
X183433Y-118364
X183433Y-141078
X183433Y-143364
X185033Y-65240
X185033Y-68643
X185033Y-90240
X185033Y-93643
X185033Y-115240
X185033Y-118643
X185033Y-140240
X185033Y-143643
X185160Y-51829
X185160Y-76829
X185160Y-101829
X185160Y-126829
X185312Y-70294
X185312Y-95294
X185312Y-120294
X185312Y-145294
X185549Y-58433
X185549Y-83433
X185549Y-108433
X185549Y-133433
X186989Y-62928
X186989Y-87928
X186989Y-112928
X186989Y-137928
X188347Y-58518
X188347Y-83518
X188347Y-108518
X188347Y-133518
X189097Y-66157
X189097Y-91157
X189097Y-116157
X189097Y-141157
X189122Y-53941
X189122Y-78941
X189122Y-103941
X189122Y-128941
X189252Y-61938
X189252Y-86938
X189252Y-111938
X189252Y-136938
X189325Y-57290
X189325Y-82290
X189325Y-107290
X189325Y-132290
X189554Y-70193
X189554Y-95193
X189554Y-120193
X189554Y-145193
X191561Y-73749
X191561Y-98749
X191561Y-123749
X191561Y-148749
X195244Y-70802
X195244Y-95802
X195244Y-120802
X195244Y-145802
X195421Y-58585
X195421Y-83585
X195421Y-108585
X195421Y-133585
T0
M30
