M48
;DRILL file {KiCad 4.0.2-stable} date 11/12/2017 1:17:55 PM
;FORMAT={3:3/ absolute / metric / suppress leading zeros}
FMAT,2
METRIC,TZ
T1C0.400
%
G90
G05
M71
T1
X91143Y-52286
X91143Y-77286
X91143Y-102286
X91143Y-127286
X91270Y-51194
X91270Y-76194
X91270Y-101194
X91270Y-126194
X91600Y-55600
X91600Y-69202
X91600Y-80600
X91600Y-94202
X91600Y-105600
X91600Y-119202
X91600Y-130600
X91600Y-144202
X94521Y-70421
X94521Y-95421
X94521Y-120421
X94521Y-145421
X94546Y-61049
X94546Y-64300
X94546Y-86049
X94546Y-89300
X94546Y-111049
X94546Y-114300
X94546Y-136049
X94546Y-139300
X94548Y-57770
X94548Y-82770
X94548Y-107770
X94548Y-132770
X96197Y-56375
X96197Y-81375
X96197Y-106375
X96197Y-131375
X97681Y-72975
X97681Y-97975
X97681Y-122975
X97681Y-147975
X97772Y-63259
X97772Y-88259
X97772Y-113259
X97772Y-138259
X97823Y-53937
X97823Y-78937
X97823Y-103937
X97823Y-128937
X98433Y-66078
X98433Y-68364
X98433Y-91078
X98433Y-93364
X98433Y-116078
X98433Y-118364
X98433Y-141078
X98433Y-143364
X100033Y-65240
X100033Y-68643
X100033Y-90240
X100033Y-93643
X100033Y-115240
X100033Y-118643
X100033Y-140240
X100033Y-143643
X100160Y-51829
X100160Y-76829
X100160Y-101829
X100160Y-126829
X100312Y-70294
X100312Y-95294
X100312Y-120294
X100312Y-145294
X100549Y-58433
X100549Y-83433
X100549Y-108433
X100549Y-133433
X101989Y-62928
X101989Y-87928
X101989Y-112928
X101989Y-137928
X103347Y-58518
X103347Y-83518
X103347Y-108518
X103347Y-133518
X104097Y-66157
X104097Y-91157
X104097Y-116157
X104097Y-141157
X104122Y-53941
X104122Y-78941
X104122Y-103941
X104122Y-128941
X104252Y-61938
X104252Y-86938
X104252Y-111938
X104252Y-136938
X104325Y-57290
X104325Y-82290
X104325Y-107290
X104325Y-132290
X104554Y-70193
X104554Y-95193
X104554Y-120193
X104554Y-145193
X106561Y-73749
X106561Y-98749
X106561Y-123749
X106561Y-148749
X110244Y-70802
X110244Y-95802
X110244Y-120802
X110244Y-145802
X110421Y-58585
X110421Y-83585
X110421Y-108585
X110421Y-133585
X116143Y-52286
X116143Y-77286
X116143Y-102286
X116143Y-127286
X116270Y-51194
X116270Y-76194
X116270Y-101194
X116270Y-126194
X116600Y-55600
X116600Y-69202
X116600Y-80600
X116600Y-94202
X116600Y-105600
X116600Y-119202
X116600Y-130600
X116600Y-144202
X119521Y-70421
X119521Y-95421
X119521Y-120421
X119521Y-145421
X119546Y-61049
X119546Y-64300
X119546Y-86049
X119546Y-89300
X119546Y-111049
X119546Y-114300
X119546Y-136049
X119546Y-139300
X119548Y-57770
X119548Y-82770
X119548Y-107770
X119548Y-132770
X121197Y-56375
X121197Y-81375
X121197Y-106375
X121197Y-131375
X122681Y-72975
X122681Y-97975
X122681Y-122975
X122681Y-147975
X122772Y-63259
X122772Y-88259
X122772Y-113259
X122772Y-138259
X122823Y-53937
X122823Y-78937
X122823Y-103937
X122823Y-128937
X123433Y-66078
X123433Y-68364
X123433Y-91078
X123433Y-93364
X123433Y-116078
X123433Y-118364
X123433Y-141078
X123433Y-143364
X125033Y-65240
X125033Y-68643
X125033Y-90240
X125033Y-93643
X125033Y-115240
X125033Y-118643
X125033Y-140240
X125033Y-143643
X125160Y-51829
X125160Y-76829
X125160Y-101829
X125160Y-126829
X125312Y-70294
X125312Y-95294
X125312Y-120294
X125312Y-145294
X125549Y-58433
X125549Y-83433
X125549Y-108433
X125549Y-133433
X126989Y-62928
X126989Y-87928
X126989Y-112928
X126989Y-137928
X128347Y-58518
X128347Y-83518
X128347Y-108518
X128347Y-133518
X129097Y-66157
X129097Y-91157
X129097Y-116157
X129097Y-141157
X129122Y-53941
X129122Y-78941
X129122Y-103941
X129122Y-128941
X129252Y-61938
X129252Y-86938
X129252Y-111938
X129252Y-136938
X129325Y-57290
X129325Y-82290
X129325Y-107290
X129325Y-132290
X129554Y-70193
X129554Y-95193
X129554Y-120193
X129554Y-145193
X131561Y-73749
X131561Y-98749
X131561Y-123749
X131561Y-148749
X135244Y-70802
X135244Y-95802
X135244Y-120802
X135244Y-145802
X135421Y-58585
X135421Y-83585
X135421Y-108585
X135421Y-133585
X141143Y-52286
X141143Y-77286
X141143Y-102286
X141143Y-127286
X141270Y-51194
X141270Y-76194
X141270Y-101194
X141270Y-126194
X141600Y-55600
X141600Y-69202
X141600Y-80600
X141600Y-94202
X141600Y-105600
X141600Y-119202
X141600Y-130600
X141600Y-144202
X144521Y-70421
X144521Y-95421
X144521Y-120421
X144521Y-145421
X144546Y-61049
X144546Y-64300
X144546Y-86049
X144546Y-89300
X144546Y-111049
X144546Y-114300
X144546Y-136049
X144546Y-139300
X144548Y-57770
X144548Y-82770
X144548Y-107770
X144548Y-132770
X146197Y-56375
X146197Y-81375
X146197Y-106375
X146197Y-131375
X147681Y-72975
X147681Y-97975
X147681Y-122975
X147681Y-147975
X147772Y-63259
X147772Y-88259
X147772Y-113259
X147772Y-138259
X147823Y-53937
X147823Y-78937
X147823Y-103937
X147823Y-128937
X148433Y-66078
X148433Y-68364
X148433Y-91078
X148433Y-93364
X148433Y-116078
X148433Y-118364
X148433Y-141078
X148433Y-143364
X150033Y-65240
X150033Y-68643
X150033Y-90240
X150033Y-93643
X150033Y-115240
X150033Y-118643
X150033Y-140240
X150033Y-143643
X150160Y-51829
X150160Y-76829
X150160Y-101829
X150160Y-126829
X150312Y-70294
X150312Y-95294
X150312Y-120294
X150312Y-145294
X150549Y-58433
X150549Y-83433
X150549Y-108433
X150549Y-133433
X151989Y-62928
X151989Y-87928
X151989Y-112928
X151989Y-137928
X153347Y-58518
X153347Y-83518
X153347Y-108518
X153347Y-133518
X154097Y-66157
X154097Y-91157
X154097Y-116157
X154097Y-141157
X154122Y-53941
X154122Y-78941
X154122Y-103941
X154122Y-128941
X154252Y-61938
X154252Y-86938
X154252Y-111938
X154252Y-136938
X154325Y-57290
X154325Y-82290
X154325Y-107290
X154325Y-132290
X154554Y-70193
X154554Y-95193
X154554Y-120193
X154554Y-145193
X156561Y-73749
X156561Y-98749
X156561Y-123749
X156561Y-148749
X160244Y-70802
X160244Y-95802
X160244Y-120802
X160244Y-145802
X160421Y-58585
X160421Y-83585
X160421Y-108585
X160421Y-133585
X166143Y-52286
X166143Y-77286
X166143Y-102286
X166143Y-127286
X166270Y-51194
X166270Y-76194
X166270Y-101194
X166270Y-126194
X166600Y-55600
X166600Y-69202
X166600Y-80600
X166600Y-94202
X166600Y-105600
X166600Y-119202
X166600Y-130600
X166600Y-144202
X169521Y-70421
X169521Y-95421
X169521Y-120421
X169521Y-145421
X169546Y-61049
X169546Y-64300
X169546Y-86049
X169546Y-89300
X169546Y-111049
X169546Y-114300
X169546Y-136049
X169546Y-139300
X169548Y-57770
X169548Y-82770
X169548Y-107770
X169548Y-132770
X171197Y-56375
X171197Y-81375
X171197Y-106375
X171197Y-131375
X172681Y-72975
X172681Y-97975
X172681Y-122975
X172681Y-147975
X172772Y-63259
X172772Y-88259
X172772Y-113259
X172772Y-138259
X172823Y-53937
X172823Y-78937
X172823Y-103937
X172823Y-128937
X173433Y-66078
X173433Y-68364
X173433Y-91078
X173433Y-93364
X173433Y-116078
X173433Y-118364
X173433Y-141078
X173433Y-143364
X175033Y-65240
X175033Y-68643
X175033Y-90240
X175033Y-93643
X175033Y-115240
X175033Y-118643
X175033Y-140240
X175033Y-143643
X175160Y-51829
X175160Y-76829
X175160Y-101829
X175160Y-126829
X175312Y-70294
X175312Y-95294
X175312Y-120294
X175312Y-145294
X175549Y-58433
X175549Y-83433
X175549Y-108433
X175549Y-133433
X176989Y-62928
X176989Y-87928
X176989Y-112928
X176989Y-137928
X178347Y-58518
X178347Y-83518
X178347Y-108518
X178347Y-133518
X179097Y-66157
X179097Y-91157
X179097Y-116157
X179097Y-141157
X179122Y-53941
X179122Y-78941
X179122Y-103941
X179122Y-128941
X179252Y-61938
X179252Y-86938
X179252Y-111938
X179252Y-136938
X179325Y-57290
X179325Y-82290
X179325Y-107290
X179325Y-132290
X179554Y-70193
X179554Y-95193
X179554Y-120193
X179554Y-145193
X181561Y-73749
X181561Y-98749
X181561Y-123749
X181561Y-148749
X185244Y-70802
X185244Y-95802
X185244Y-120802
X185244Y-145802
X185421Y-58585
X185421Y-83585
X185421Y-108585
X185421Y-133585
T0
M30
