G04 #@! TF.FileFunction,Profile,NP*
%FSLAX46Y46*%
G04 Gerber Fmt 4.6, Leading zero omitted, Abs format (unit mm)*
G04 Created by KiCad (PCBNEW 4.0.2-stable) date 11/12/2017 1:18:09 PM*
%MOMM*%
G01*
G04 APERTURE LIST*
%ADD10C,0.100000*%
%ADD11C,0.150000*%
G04 APERTURE END LIST*
D10*
D11*
X165000000Y-125000000D02*
X190000000Y-125000000D01*
X165000000Y-125000000D02*
X165000000Y-150000000D01*
X190000000Y-150000000D02*
X165000000Y-150000000D01*
X190000000Y-125000000D02*
X190000000Y-150000000D01*
X165000000Y-150000000D02*
X165000000Y-125000000D01*
X90000000Y-150000000D02*
X90000000Y-125000000D01*
X115000000Y-125000000D02*
X115000000Y-150000000D01*
X115000000Y-150000000D02*
X90000000Y-150000000D01*
X90000000Y-125000000D02*
X115000000Y-125000000D01*
X115000000Y-150000000D02*
X115000000Y-125000000D01*
X140000000Y-125000000D02*
X165000000Y-125000000D01*
X140000000Y-125000000D02*
X140000000Y-150000000D01*
X115000000Y-125000000D02*
X140000000Y-125000000D01*
X140000000Y-150000000D02*
X140000000Y-125000000D01*
X140000000Y-150000000D02*
X115000000Y-150000000D01*
X165000000Y-150000000D02*
X140000000Y-150000000D01*
X165000000Y-100000000D02*
X190000000Y-100000000D01*
X165000000Y-100000000D02*
X165000000Y-125000000D01*
X190000000Y-125000000D02*
X165000000Y-125000000D01*
X190000000Y-100000000D02*
X190000000Y-125000000D01*
X165000000Y-125000000D02*
X165000000Y-100000000D01*
X90000000Y-125000000D02*
X90000000Y-100000000D01*
X115000000Y-100000000D02*
X115000000Y-125000000D01*
X115000000Y-125000000D02*
X90000000Y-125000000D01*
X90000000Y-100000000D02*
X115000000Y-100000000D01*
X115000000Y-125000000D02*
X115000000Y-100000000D01*
X140000000Y-100000000D02*
X165000000Y-100000000D01*
X140000000Y-100000000D02*
X140000000Y-125000000D01*
X115000000Y-100000000D02*
X140000000Y-100000000D01*
X140000000Y-125000000D02*
X140000000Y-100000000D01*
X140000000Y-125000000D02*
X115000000Y-125000000D01*
X165000000Y-125000000D02*
X140000000Y-125000000D01*
X165000000Y-75000000D02*
X190000000Y-75000000D01*
X165000000Y-75000000D02*
X165000000Y-100000000D01*
X190000000Y-100000000D02*
X165000000Y-100000000D01*
X190000000Y-75000000D02*
X190000000Y-100000000D01*
X165000000Y-100000000D02*
X165000000Y-75000000D01*
X90000000Y-100000000D02*
X90000000Y-75000000D01*
X115000000Y-75000000D02*
X115000000Y-100000000D01*
X115000000Y-100000000D02*
X90000000Y-100000000D01*
X90000000Y-75000000D02*
X115000000Y-75000000D01*
X115000000Y-100000000D02*
X115000000Y-75000000D01*
X140000000Y-75000000D02*
X165000000Y-75000000D01*
X140000000Y-75000000D02*
X140000000Y-100000000D01*
X115000000Y-75000000D02*
X140000000Y-75000000D01*
X140000000Y-100000000D02*
X140000000Y-75000000D01*
X140000000Y-100000000D02*
X115000000Y-100000000D01*
X165000000Y-100000000D02*
X140000000Y-100000000D01*
X190000000Y-75000000D02*
X165000000Y-75000000D01*
X165000000Y-75000000D02*
X140000000Y-75000000D01*
X140000000Y-75000000D02*
X140000000Y-50000000D01*
X165000000Y-50000000D02*
X165000000Y-75000000D01*
X165000000Y-50000000D02*
X190000000Y-50000000D01*
X190000000Y-50000000D02*
X190000000Y-75000000D01*
X165000000Y-75000000D02*
X165000000Y-50000000D01*
X140000000Y-50000000D02*
X165000000Y-50000000D01*
X115000000Y-50000000D02*
X140000000Y-50000000D01*
X140000000Y-75000000D02*
X115000000Y-75000000D01*
X115000000Y-75000000D02*
X115000000Y-50000000D01*
X140000000Y-50000000D02*
X140000000Y-75000000D01*
X90000000Y-75000000D02*
X90000000Y-50000000D01*
X115000000Y-75000000D02*
X90000000Y-75000000D01*
X115000000Y-50000000D02*
X115000000Y-75000000D01*
X90000000Y-50000000D02*
X115000000Y-50000000D01*
M02*
