G04 #@! TF.FileFunction,Soldermask,Bot*
%FSLAX46Y46*%
G04 Gerber Fmt 4.6, Leading zero omitted, Abs format (unit mm)*
G04 Created by KiCad (PCBNEW 4.0.2-stable) date 11/12/2017 1:18:08 PM*
%MOMM*%
G01*
G04 APERTURE LIST*
%ADD10C,0.100000*%
%ADD11C,0.150000*%
%ADD12R,1.700000X1.350000*%
%ADD13O,1.700000X1.350000*%
G04 APERTURE END LIST*
D10*
D11*
X165000000Y-125000000D02*
X190000000Y-125000000D01*
X165000000Y-125000000D02*
X165000000Y-150000000D01*
X190000000Y-150000000D02*
X165000000Y-150000000D01*
X190000000Y-125000000D02*
X190000000Y-150000000D01*
X165000000Y-150000000D02*
X165000000Y-125000000D01*
X90000000Y-150000000D02*
X90000000Y-125000000D01*
X115000000Y-125000000D02*
X115000000Y-150000000D01*
X115000000Y-150000000D02*
X90000000Y-150000000D01*
X90000000Y-125000000D02*
X115000000Y-125000000D01*
X115000000Y-150000000D02*
X115000000Y-125000000D01*
X140000000Y-125000000D02*
X165000000Y-125000000D01*
X140000000Y-125000000D02*
X140000000Y-150000000D01*
X115000000Y-125000000D02*
X140000000Y-125000000D01*
X140000000Y-150000000D02*
X140000000Y-125000000D01*
X140000000Y-150000000D02*
X115000000Y-150000000D01*
X165000000Y-150000000D02*
X140000000Y-150000000D01*
X165000000Y-100000000D02*
X190000000Y-100000000D01*
X165000000Y-100000000D02*
X165000000Y-125000000D01*
X190000000Y-125000000D02*
X165000000Y-125000000D01*
X190000000Y-100000000D02*
X190000000Y-125000000D01*
X165000000Y-125000000D02*
X165000000Y-100000000D01*
X90000000Y-125000000D02*
X90000000Y-100000000D01*
X115000000Y-100000000D02*
X115000000Y-125000000D01*
X115000000Y-125000000D02*
X90000000Y-125000000D01*
X90000000Y-100000000D02*
X115000000Y-100000000D01*
X115000000Y-125000000D02*
X115000000Y-100000000D01*
X140000000Y-100000000D02*
X165000000Y-100000000D01*
X140000000Y-100000000D02*
X140000000Y-125000000D01*
X115000000Y-100000000D02*
X140000000Y-100000000D01*
X140000000Y-125000000D02*
X140000000Y-100000000D01*
X140000000Y-125000000D02*
X115000000Y-125000000D01*
X165000000Y-125000000D02*
X140000000Y-125000000D01*
X165000000Y-75000000D02*
X190000000Y-75000000D01*
X165000000Y-75000000D02*
X165000000Y-100000000D01*
X190000000Y-100000000D02*
X165000000Y-100000000D01*
X190000000Y-75000000D02*
X190000000Y-100000000D01*
X165000000Y-100000000D02*
X165000000Y-75000000D01*
X90000000Y-100000000D02*
X90000000Y-75000000D01*
X115000000Y-75000000D02*
X115000000Y-100000000D01*
X115000000Y-100000000D02*
X90000000Y-100000000D01*
X90000000Y-75000000D02*
X115000000Y-75000000D01*
X115000000Y-100000000D02*
X115000000Y-75000000D01*
X140000000Y-75000000D02*
X165000000Y-75000000D01*
X140000000Y-75000000D02*
X140000000Y-100000000D01*
X115000000Y-75000000D02*
X140000000Y-75000000D01*
X140000000Y-100000000D02*
X140000000Y-75000000D01*
X140000000Y-100000000D02*
X115000000Y-100000000D01*
X165000000Y-100000000D02*
X140000000Y-100000000D01*
X190000000Y-75000000D02*
X165000000Y-75000000D01*
X165000000Y-75000000D02*
X140000000Y-75000000D01*
X140000000Y-75000000D02*
X140000000Y-50000000D01*
X165000000Y-50000000D02*
X165000000Y-75000000D01*
X165000000Y-50000000D02*
X190000000Y-50000000D01*
X190000000Y-50000000D02*
X190000000Y-75000000D01*
X165000000Y-75000000D02*
X165000000Y-50000000D01*
X140000000Y-50000000D02*
X165000000Y-50000000D01*
X115000000Y-50000000D02*
X140000000Y-50000000D01*
X140000000Y-75000000D02*
X115000000Y-75000000D01*
X115000000Y-75000000D02*
X115000000Y-50000000D01*
X140000000Y-50000000D02*
X140000000Y-75000000D01*
X90000000Y-75000000D02*
X90000000Y-50000000D01*
X115000000Y-75000000D02*
X90000000Y-75000000D01*
X115000000Y-50000000D02*
X115000000Y-75000000D01*
X90000000Y-50000000D02*
X115000000Y-50000000D01*
X168606600Y-126269800D02*
X168606600Y-128327200D01*
X168454200Y-126244400D02*
X168454200Y-128327200D01*
X168733600Y-126244400D02*
X168454200Y-126244400D01*
X168733600Y-128327200D02*
X168733600Y-126244400D01*
X168454200Y-128327200D02*
X168733600Y-128327200D01*
X168632000Y-146767600D02*
X168632000Y-148825000D01*
X168479600Y-146742200D02*
X168479600Y-148825000D01*
X168759000Y-146742200D02*
X168479600Y-146742200D01*
X168759000Y-148825000D02*
X168759000Y-146742200D01*
X168479600Y-148825000D02*
X168759000Y-148825000D01*
X147111800Y-138334800D02*
X145054400Y-138334800D01*
X147137200Y-138182400D02*
X145054400Y-138182400D01*
X147137200Y-138461800D02*
X147137200Y-138182400D01*
X145054400Y-138461800D02*
X147137200Y-138461800D01*
X145054400Y-138182400D02*
X145054400Y-138461800D01*
X147061000Y-134321600D02*
X145003600Y-134321600D01*
X147086400Y-134169200D02*
X145003600Y-134169200D01*
X147086400Y-134448600D02*
X147086400Y-134169200D01*
X145003600Y-134448600D02*
X147086400Y-134448600D01*
X145003600Y-134169200D02*
X145003600Y-134448600D01*
X143606600Y-126269800D02*
X143606600Y-128327200D01*
X143454200Y-126244400D02*
X143454200Y-128327200D01*
X143733600Y-126244400D02*
X143454200Y-126244400D01*
X143733600Y-128327200D02*
X143733600Y-126244400D01*
X143454200Y-128327200D02*
X143733600Y-128327200D01*
X143632000Y-146767600D02*
X143632000Y-148825000D01*
X143479600Y-146742200D02*
X143479600Y-148825000D01*
X143759000Y-146742200D02*
X143479600Y-146742200D01*
X143759000Y-148825000D02*
X143759000Y-146742200D01*
X143479600Y-148825000D02*
X143759000Y-148825000D01*
X172111800Y-138334800D02*
X170054400Y-138334800D01*
X172137200Y-138182400D02*
X170054400Y-138182400D01*
X172137200Y-138461800D02*
X172137200Y-138182400D01*
X170054400Y-138461800D02*
X172137200Y-138461800D01*
X170054400Y-138182400D02*
X170054400Y-138461800D01*
X172061000Y-134321600D02*
X170003600Y-134321600D01*
X172086400Y-134169200D02*
X170003600Y-134169200D01*
X172086400Y-134448600D02*
X172086400Y-134169200D01*
X170003600Y-134448600D02*
X172086400Y-134448600D01*
X170003600Y-134169200D02*
X170003600Y-134448600D01*
X93632000Y-146767600D02*
X93632000Y-148825000D01*
X93479600Y-146742200D02*
X93479600Y-148825000D01*
X93759000Y-146742200D02*
X93479600Y-146742200D01*
X93759000Y-148825000D02*
X93759000Y-146742200D01*
X93479600Y-148825000D02*
X93759000Y-148825000D01*
X93606600Y-126269800D02*
X93606600Y-128327200D01*
X93454200Y-126244400D02*
X93454200Y-128327200D01*
X93733600Y-126244400D02*
X93454200Y-126244400D01*
X93733600Y-128327200D02*
X93733600Y-126244400D01*
X93454200Y-128327200D02*
X93733600Y-128327200D01*
X97061000Y-134321600D02*
X95003600Y-134321600D01*
X97086400Y-134169200D02*
X95003600Y-134169200D01*
X97086400Y-134448600D02*
X97086400Y-134169200D01*
X95003600Y-134448600D02*
X97086400Y-134448600D01*
X95003600Y-134169200D02*
X95003600Y-134448600D01*
X97111800Y-138334800D02*
X95054400Y-138334800D01*
X97137200Y-138182400D02*
X95054400Y-138182400D01*
X97137200Y-138461800D02*
X97137200Y-138182400D01*
X95054400Y-138461800D02*
X97137200Y-138461800D01*
X95054400Y-138182400D02*
X95054400Y-138461800D01*
X122061000Y-134321600D02*
X120003600Y-134321600D01*
X122086400Y-134169200D02*
X120003600Y-134169200D01*
X122086400Y-134448600D02*
X122086400Y-134169200D01*
X120003600Y-134448600D02*
X122086400Y-134448600D01*
X120003600Y-134169200D02*
X120003600Y-134448600D01*
X118632000Y-146767600D02*
X118632000Y-148825000D01*
X118479600Y-146742200D02*
X118479600Y-148825000D01*
X118759000Y-146742200D02*
X118479600Y-146742200D01*
X118759000Y-148825000D02*
X118759000Y-146742200D01*
X118479600Y-148825000D02*
X118759000Y-148825000D01*
X118606600Y-126269800D02*
X118606600Y-128327200D01*
X118454200Y-126244400D02*
X118454200Y-128327200D01*
X118733600Y-126244400D02*
X118454200Y-126244400D01*
X118733600Y-128327200D02*
X118733600Y-126244400D01*
X118454200Y-128327200D02*
X118733600Y-128327200D01*
X122111800Y-138334800D02*
X120054400Y-138334800D01*
X122137200Y-138182400D02*
X120054400Y-138182400D01*
X122137200Y-138461800D02*
X122137200Y-138182400D01*
X120054400Y-138461800D02*
X122137200Y-138461800D01*
X120054400Y-138182400D02*
X120054400Y-138461800D01*
X168606600Y-101269800D02*
X168606600Y-103327200D01*
X168454200Y-101244400D02*
X168454200Y-103327200D01*
X168733600Y-101244400D02*
X168454200Y-101244400D01*
X168733600Y-103327200D02*
X168733600Y-101244400D01*
X168454200Y-103327200D02*
X168733600Y-103327200D01*
X168632000Y-121767600D02*
X168632000Y-123825000D01*
X168479600Y-121742200D02*
X168479600Y-123825000D01*
X168759000Y-121742200D02*
X168479600Y-121742200D01*
X168759000Y-123825000D02*
X168759000Y-121742200D01*
X168479600Y-123825000D02*
X168759000Y-123825000D01*
X147111800Y-113334800D02*
X145054400Y-113334800D01*
X147137200Y-113182400D02*
X145054400Y-113182400D01*
X147137200Y-113461800D02*
X147137200Y-113182400D01*
X145054400Y-113461800D02*
X147137200Y-113461800D01*
X145054400Y-113182400D02*
X145054400Y-113461800D01*
X147061000Y-109321600D02*
X145003600Y-109321600D01*
X147086400Y-109169200D02*
X145003600Y-109169200D01*
X147086400Y-109448600D02*
X147086400Y-109169200D01*
X145003600Y-109448600D02*
X147086400Y-109448600D01*
X145003600Y-109169200D02*
X145003600Y-109448600D01*
X143606600Y-101269800D02*
X143606600Y-103327200D01*
X143454200Y-101244400D02*
X143454200Y-103327200D01*
X143733600Y-101244400D02*
X143454200Y-101244400D01*
X143733600Y-103327200D02*
X143733600Y-101244400D01*
X143454200Y-103327200D02*
X143733600Y-103327200D01*
X143632000Y-121767600D02*
X143632000Y-123825000D01*
X143479600Y-121742200D02*
X143479600Y-123825000D01*
X143759000Y-121742200D02*
X143479600Y-121742200D01*
X143759000Y-123825000D02*
X143759000Y-121742200D01*
X143479600Y-123825000D02*
X143759000Y-123825000D01*
X172111800Y-113334800D02*
X170054400Y-113334800D01*
X172137200Y-113182400D02*
X170054400Y-113182400D01*
X172137200Y-113461800D02*
X172137200Y-113182400D01*
X170054400Y-113461800D02*
X172137200Y-113461800D01*
X170054400Y-113182400D02*
X170054400Y-113461800D01*
X172061000Y-109321600D02*
X170003600Y-109321600D01*
X172086400Y-109169200D02*
X170003600Y-109169200D01*
X172086400Y-109448600D02*
X172086400Y-109169200D01*
X170003600Y-109448600D02*
X172086400Y-109448600D01*
X170003600Y-109169200D02*
X170003600Y-109448600D01*
X93632000Y-121767600D02*
X93632000Y-123825000D01*
X93479600Y-121742200D02*
X93479600Y-123825000D01*
X93759000Y-121742200D02*
X93479600Y-121742200D01*
X93759000Y-123825000D02*
X93759000Y-121742200D01*
X93479600Y-123825000D02*
X93759000Y-123825000D01*
X93606600Y-101269800D02*
X93606600Y-103327200D01*
X93454200Y-101244400D02*
X93454200Y-103327200D01*
X93733600Y-101244400D02*
X93454200Y-101244400D01*
X93733600Y-103327200D02*
X93733600Y-101244400D01*
X93454200Y-103327200D02*
X93733600Y-103327200D01*
X97061000Y-109321600D02*
X95003600Y-109321600D01*
X97086400Y-109169200D02*
X95003600Y-109169200D01*
X97086400Y-109448600D02*
X97086400Y-109169200D01*
X95003600Y-109448600D02*
X97086400Y-109448600D01*
X95003600Y-109169200D02*
X95003600Y-109448600D01*
X97111800Y-113334800D02*
X95054400Y-113334800D01*
X97137200Y-113182400D02*
X95054400Y-113182400D01*
X97137200Y-113461800D02*
X97137200Y-113182400D01*
X95054400Y-113461800D02*
X97137200Y-113461800D01*
X95054400Y-113182400D02*
X95054400Y-113461800D01*
X122061000Y-109321600D02*
X120003600Y-109321600D01*
X122086400Y-109169200D02*
X120003600Y-109169200D01*
X122086400Y-109448600D02*
X122086400Y-109169200D01*
X120003600Y-109448600D02*
X122086400Y-109448600D01*
X120003600Y-109169200D02*
X120003600Y-109448600D01*
X118632000Y-121767600D02*
X118632000Y-123825000D01*
X118479600Y-121742200D02*
X118479600Y-123825000D01*
X118759000Y-121742200D02*
X118479600Y-121742200D01*
X118759000Y-123825000D02*
X118759000Y-121742200D01*
X118479600Y-123825000D02*
X118759000Y-123825000D01*
X118606600Y-101269800D02*
X118606600Y-103327200D01*
X118454200Y-101244400D02*
X118454200Y-103327200D01*
X118733600Y-101244400D02*
X118454200Y-101244400D01*
X118733600Y-103327200D02*
X118733600Y-101244400D01*
X118454200Y-103327200D02*
X118733600Y-103327200D01*
X122111800Y-113334800D02*
X120054400Y-113334800D01*
X122137200Y-113182400D02*
X120054400Y-113182400D01*
X122137200Y-113461800D02*
X122137200Y-113182400D01*
X120054400Y-113461800D02*
X122137200Y-113461800D01*
X120054400Y-113182400D02*
X120054400Y-113461800D01*
X168606600Y-76269800D02*
X168606600Y-78327200D01*
X168454200Y-76244400D02*
X168454200Y-78327200D01*
X168733600Y-76244400D02*
X168454200Y-76244400D01*
X168733600Y-78327200D02*
X168733600Y-76244400D01*
X168454200Y-78327200D02*
X168733600Y-78327200D01*
X168632000Y-96767600D02*
X168632000Y-98825000D01*
X168479600Y-96742200D02*
X168479600Y-98825000D01*
X168759000Y-96742200D02*
X168479600Y-96742200D01*
X168759000Y-98825000D02*
X168759000Y-96742200D01*
X168479600Y-98825000D02*
X168759000Y-98825000D01*
X147111800Y-88334800D02*
X145054400Y-88334800D01*
X147137200Y-88182400D02*
X145054400Y-88182400D01*
X147137200Y-88461800D02*
X147137200Y-88182400D01*
X145054400Y-88461800D02*
X147137200Y-88461800D01*
X145054400Y-88182400D02*
X145054400Y-88461800D01*
X147061000Y-84321600D02*
X145003600Y-84321600D01*
X147086400Y-84169200D02*
X145003600Y-84169200D01*
X147086400Y-84448600D02*
X147086400Y-84169200D01*
X145003600Y-84448600D02*
X147086400Y-84448600D01*
X145003600Y-84169200D02*
X145003600Y-84448600D01*
X143606600Y-76269800D02*
X143606600Y-78327200D01*
X143454200Y-76244400D02*
X143454200Y-78327200D01*
X143733600Y-76244400D02*
X143454200Y-76244400D01*
X143733600Y-78327200D02*
X143733600Y-76244400D01*
X143454200Y-78327200D02*
X143733600Y-78327200D01*
X143632000Y-96767600D02*
X143632000Y-98825000D01*
X143479600Y-96742200D02*
X143479600Y-98825000D01*
X143759000Y-96742200D02*
X143479600Y-96742200D01*
X143759000Y-98825000D02*
X143759000Y-96742200D01*
X143479600Y-98825000D02*
X143759000Y-98825000D01*
X172111800Y-88334800D02*
X170054400Y-88334800D01*
X172137200Y-88182400D02*
X170054400Y-88182400D01*
X172137200Y-88461800D02*
X172137200Y-88182400D01*
X170054400Y-88461800D02*
X172137200Y-88461800D01*
X170054400Y-88182400D02*
X170054400Y-88461800D01*
X172061000Y-84321600D02*
X170003600Y-84321600D01*
X172086400Y-84169200D02*
X170003600Y-84169200D01*
X172086400Y-84448600D02*
X172086400Y-84169200D01*
X170003600Y-84448600D02*
X172086400Y-84448600D01*
X170003600Y-84169200D02*
X170003600Y-84448600D01*
X93632000Y-96767600D02*
X93632000Y-98825000D01*
X93479600Y-96742200D02*
X93479600Y-98825000D01*
X93759000Y-96742200D02*
X93479600Y-96742200D01*
X93759000Y-98825000D02*
X93759000Y-96742200D01*
X93479600Y-98825000D02*
X93759000Y-98825000D01*
X93606600Y-76269800D02*
X93606600Y-78327200D01*
X93454200Y-76244400D02*
X93454200Y-78327200D01*
X93733600Y-76244400D02*
X93454200Y-76244400D01*
X93733600Y-78327200D02*
X93733600Y-76244400D01*
X93454200Y-78327200D02*
X93733600Y-78327200D01*
X97061000Y-84321600D02*
X95003600Y-84321600D01*
X97086400Y-84169200D02*
X95003600Y-84169200D01*
X97086400Y-84448600D02*
X97086400Y-84169200D01*
X95003600Y-84448600D02*
X97086400Y-84448600D01*
X95003600Y-84169200D02*
X95003600Y-84448600D01*
X97111800Y-88334800D02*
X95054400Y-88334800D01*
X97137200Y-88182400D02*
X95054400Y-88182400D01*
X97137200Y-88461800D02*
X97137200Y-88182400D01*
X95054400Y-88461800D02*
X97137200Y-88461800D01*
X95054400Y-88182400D02*
X95054400Y-88461800D01*
X122061000Y-84321600D02*
X120003600Y-84321600D01*
X122086400Y-84169200D02*
X120003600Y-84169200D01*
X122086400Y-84448600D02*
X122086400Y-84169200D01*
X120003600Y-84448600D02*
X122086400Y-84448600D01*
X120003600Y-84169200D02*
X120003600Y-84448600D01*
X118632000Y-96767600D02*
X118632000Y-98825000D01*
X118479600Y-96742200D02*
X118479600Y-98825000D01*
X118759000Y-96742200D02*
X118479600Y-96742200D01*
X118759000Y-98825000D02*
X118759000Y-96742200D01*
X118479600Y-98825000D02*
X118759000Y-98825000D01*
X118606600Y-76269800D02*
X118606600Y-78327200D01*
X118454200Y-76244400D02*
X118454200Y-78327200D01*
X118733600Y-76244400D02*
X118454200Y-76244400D01*
X118733600Y-78327200D02*
X118733600Y-76244400D01*
X118454200Y-78327200D02*
X118733600Y-78327200D01*
X122111800Y-88334800D02*
X120054400Y-88334800D01*
X122137200Y-88182400D02*
X120054400Y-88182400D01*
X122137200Y-88461800D02*
X122137200Y-88182400D01*
X120054400Y-88461800D02*
X122137200Y-88461800D01*
X120054400Y-88182400D02*
X120054400Y-88461800D01*
X143606600Y-51269800D02*
X143606600Y-53327200D01*
X143454200Y-51244400D02*
X143454200Y-53327200D01*
X143733600Y-51244400D02*
X143454200Y-51244400D01*
X143733600Y-53327200D02*
X143733600Y-51244400D01*
X143454200Y-53327200D02*
X143733600Y-53327200D01*
X147061000Y-59321600D02*
X145003600Y-59321600D01*
X147086400Y-59169200D02*
X145003600Y-59169200D01*
X147086400Y-59448600D02*
X147086400Y-59169200D01*
X145003600Y-59448600D02*
X147086400Y-59448600D01*
X145003600Y-59169200D02*
X145003600Y-59448600D01*
X143632000Y-71767600D02*
X143632000Y-73825000D01*
X143479600Y-71742200D02*
X143479600Y-73825000D01*
X143759000Y-71742200D02*
X143479600Y-71742200D01*
X143759000Y-73825000D02*
X143759000Y-71742200D01*
X143479600Y-73825000D02*
X143759000Y-73825000D01*
X147111800Y-63334800D02*
X145054400Y-63334800D01*
X147137200Y-63182400D02*
X145054400Y-63182400D01*
X147137200Y-63461800D02*
X147137200Y-63182400D01*
X145054400Y-63461800D02*
X147137200Y-63461800D01*
X145054400Y-63182400D02*
X145054400Y-63461800D01*
X172061000Y-59321600D02*
X170003600Y-59321600D01*
X172086400Y-59169200D02*
X170003600Y-59169200D01*
X172086400Y-59448600D02*
X172086400Y-59169200D01*
X170003600Y-59448600D02*
X172086400Y-59448600D01*
X170003600Y-59169200D02*
X170003600Y-59448600D01*
X168606600Y-51269800D02*
X168606600Y-53327200D01*
X168454200Y-51244400D02*
X168454200Y-53327200D01*
X168733600Y-51244400D02*
X168454200Y-51244400D01*
X168733600Y-53327200D02*
X168733600Y-51244400D01*
X168454200Y-53327200D02*
X168733600Y-53327200D01*
X172111800Y-63334800D02*
X170054400Y-63334800D01*
X172137200Y-63182400D02*
X170054400Y-63182400D01*
X172137200Y-63461800D02*
X172137200Y-63182400D01*
X170054400Y-63461800D02*
X172137200Y-63461800D01*
X170054400Y-63182400D02*
X170054400Y-63461800D01*
X168632000Y-71767600D02*
X168632000Y-73825000D01*
X168479600Y-71742200D02*
X168479600Y-73825000D01*
X168759000Y-71742200D02*
X168479600Y-71742200D01*
X168759000Y-73825000D02*
X168759000Y-71742200D01*
X168479600Y-73825000D02*
X168759000Y-73825000D01*
X122111800Y-63334800D02*
X120054400Y-63334800D01*
X122137200Y-63182400D02*
X120054400Y-63182400D01*
X122137200Y-63461800D02*
X122137200Y-63182400D01*
X120054400Y-63461800D02*
X122137200Y-63461800D01*
X120054400Y-63182400D02*
X120054400Y-63461800D01*
X118606600Y-51269800D02*
X118606600Y-53327200D01*
X118454200Y-51244400D02*
X118454200Y-53327200D01*
X118733600Y-51244400D02*
X118454200Y-51244400D01*
X118733600Y-53327200D02*
X118733600Y-51244400D01*
X118454200Y-53327200D02*
X118733600Y-53327200D01*
X118632000Y-71767600D02*
X118632000Y-73825000D01*
X118479600Y-71742200D02*
X118479600Y-73825000D01*
X118759000Y-71742200D02*
X118479600Y-71742200D01*
X118759000Y-73825000D02*
X118759000Y-71742200D01*
X118479600Y-73825000D02*
X118759000Y-73825000D01*
X122061000Y-59321600D02*
X120003600Y-59321600D01*
X122086400Y-59169200D02*
X120003600Y-59169200D01*
X122086400Y-59448600D02*
X122086400Y-59169200D01*
X120003600Y-59448600D02*
X122086400Y-59448600D01*
X120003600Y-59169200D02*
X120003600Y-59448600D01*
X93632000Y-71767600D02*
X93632000Y-73825000D01*
X93479600Y-71742200D02*
X93479600Y-73825000D01*
X93759000Y-71742200D02*
X93479600Y-71742200D01*
X93759000Y-73825000D02*
X93759000Y-71742200D01*
X93479600Y-73825000D02*
X93759000Y-73825000D01*
X93606600Y-51269800D02*
X93606600Y-53327200D01*
X93454200Y-51244400D02*
X93454200Y-53327200D01*
X93733600Y-51244400D02*
X93454200Y-51244400D01*
X93733600Y-53327200D02*
X93733600Y-51244400D01*
X93454200Y-53327200D02*
X93733600Y-53327200D01*
X97061000Y-59321600D02*
X95003600Y-59321600D01*
X97086400Y-59169200D02*
X95003600Y-59169200D01*
X97086400Y-59448600D02*
X97086400Y-59169200D01*
X95003600Y-59448600D02*
X97086400Y-59448600D01*
X95003600Y-59169200D02*
X95003600Y-59448600D01*
X97111800Y-63334800D02*
X95054400Y-63334800D01*
X97137200Y-63182400D02*
X95054400Y-63182400D01*
X97137200Y-63461800D02*
X97137200Y-63182400D01*
X95054400Y-63461800D02*
X97137200Y-63461800D01*
X95054400Y-63182400D02*
X95054400Y-63461800D01*
D10*
G36*
X168771600Y-128322400D02*
X168771600Y-126198400D01*
X170041600Y-126798400D01*
X170041600Y-127722400D01*
X168771600Y-128322400D01*
X168771600Y-128322400D01*
G37*
G36*
X167171600Y-127722400D02*
X167171600Y-126798400D01*
X168441600Y-126198400D01*
X168441600Y-128322400D01*
X167171600Y-127722400D01*
X167171600Y-127722400D01*
G37*
D12*
X163393200Y-142175800D03*
D13*
X163393200Y-140175800D03*
X163393200Y-138175800D03*
X163393200Y-136175800D03*
X163393200Y-134175800D03*
X163393200Y-132175800D03*
D10*
G36*
X168797000Y-148820200D02*
X168797000Y-146696200D01*
X170067000Y-147296200D01*
X170067000Y-148220200D01*
X168797000Y-148820200D01*
X168797000Y-148820200D01*
G37*
G36*
X167197000Y-148220200D02*
X167197000Y-147296200D01*
X168467000Y-146696200D01*
X168467000Y-148820200D01*
X167197000Y-148220200D01*
X167197000Y-148220200D01*
G37*
D12*
X138393200Y-142175800D03*
D13*
X138393200Y-140175800D03*
X138393200Y-138175800D03*
X138393200Y-136175800D03*
X138393200Y-134175800D03*
X138393200Y-132175800D03*
D10*
G36*
X145059200Y-138499800D02*
X147183200Y-138499800D01*
X146583200Y-139769800D01*
X145659200Y-139769800D01*
X145059200Y-138499800D01*
X145059200Y-138499800D01*
G37*
G36*
X145659200Y-136899800D02*
X146583200Y-136899800D01*
X147183200Y-138169800D01*
X145059200Y-138169800D01*
X145659200Y-136899800D01*
X145659200Y-136899800D01*
G37*
G36*
X145008400Y-134486600D02*
X147132400Y-134486600D01*
X146532400Y-135756600D01*
X145608400Y-135756600D01*
X145008400Y-134486600D01*
X145008400Y-134486600D01*
G37*
G36*
X145608400Y-132886600D02*
X146532400Y-132886600D01*
X147132400Y-134156600D01*
X145008400Y-134156600D01*
X145608400Y-132886600D01*
X145608400Y-132886600D01*
G37*
G36*
X143771600Y-128322400D02*
X143771600Y-126198400D01*
X145041600Y-126798400D01*
X145041600Y-127722400D01*
X143771600Y-128322400D01*
X143771600Y-128322400D01*
G37*
G36*
X142171600Y-127722400D02*
X142171600Y-126798400D01*
X143441600Y-126198400D01*
X143441600Y-128322400D01*
X142171600Y-127722400D01*
X142171600Y-127722400D01*
G37*
G36*
X143797000Y-148820200D02*
X143797000Y-146696200D01*
X145067000Y-147296200D01*
X145067000Y-148220200D01*
X143797000Y-148820200D01*
X143797000Y-148820200D01*
G37*
G36*
X142197000Y-148220200D02*
X142197000Y-147296200D01*
X143467000Y-146696200D01*
X143467000Y-148820200D01*
X142197000Y-148220200D01*
X142197000Y-148220200D01*
G37*
D12*
X188393200Y-142175800D03*
D13*
X188393200Y-140175800D03*
X188393200Y-138175800D03*
X188393200Y-136175800D03*
X188393200Y-134175800D03*
X188393200Y-132175800D03*
D10*
G36*
X170059200Y-138499800D02*
X172183200Y-138499800D01*
X171583200Y-139769800D01*
X170659200Y-139769800D01*
X170059200Y-138499800D01*
X170059200Y-138499800D01*
G37*
G36*
X170659200Y-136899800D02*
X171583200Y-136899800D01*
X172183200Y-138169800D01*
X170059200Y-138169800D01*
X170659200Y-136899800D01*
X170659200Y-136899800D01*
G37*
G36*
X170008400Y-134486600D02*
X172132400Y-134486600D01*
X171532400Y-135756600D01*
X170608400Y-135756600D01*
X170008400Y-134486600D01*
X170008400Y-134486600D01*
G37*
G36*
X170608400Y-132886600D02*
X171532400Y-132886600D01*
X172132400Y-134156600D01*
X170008400Y-134156600D01*
X170608400Y-132886600D01*
X170608400Y-132886600D01*
G37*
G36*
X93797000Y-148820200D02*
X93797000Y-146696200D01*
X95067000Y-147296200D01*
X95067000Y-148220200D01*
X93797000Y-148820200D01*
X93797000Y-148820200D01*
G37*
G36*
X92197000Y-148220200D02*
X92197000Y-147296200D01*
X93467000Y-146696200D01*
X93467000Y-148820200D01*
X92197000Y-148220200D01*
X92197000Y-148220200D01*
G37*
G36*
X93771600Y-128322400D02*
X93771600Y-126198400D01*
X95041600Y-126798400D01*
X95041600Y-127722400D01*
X93771600Y-128322400D01*
X93771600Y-128322400D01*
G37*
G36*
X92171600Y-127722400D02*
X92171600Y-126798400D01*
X93441600Y-126198400D01*
X93441600Y-128322400D01*
X92171600Y-127722400D01*
X92171600Y-127722400D01*
G37*
G36*
X95008400Y-134486600D02*
X97132400Y-134486600D01*
X96532400Y-135756600D01*
X95608400Y-135756600D01*
X95008400Y-134486600D01*
X95008400Y-134486600D01*
G37*
G36*
X95608400Y-132886600D02*
X96532400Y-132886600D01*
X97132400Y-134156600D01*
X95008400Y-134156600D01*
X95608400Y-132886600D01*
X95608400Y-132886600D01*
G37*
G36*
X95059200Y-138499800D02*
X97183200Y-138499800D01*
X96583200Y-139769800D01*
X95659200Y-139769800D01*
X95059200Y-138499800D01*
X95059200Y-138499800D01*
G37*
G36*
X95659200Y-136899800D02*
X96583200Y-136899800D01*
X97183200Y-138169800D01*
X95059200Y-138169800D01*
X95659200Y-136899800D01*
X95659200Y-136899800D01*
G37*
G36*
X120008400Y-134486600D02*
X122132400Y-134486600D01*
X121532400Y-135756600D01*
X120608400Y-135756600D01*
X120008400Y-134486600D01*
X120008400Y-134486600D01*
G37*
G36*
X120608400Y-132886600D02*
X121532400Y-132886600D01*
X122132400Y-134156600D01*
X120008400Y-134156600D01*
X120608400Y-132886600D01*
X120608400Y-132886600D01*
G37*
G36*
X118797000Y-148820200D02*
X118797000Y-146696200D01*
X120067000Y-147296200D01*
X120067000Y-148220200D01*
X118797000Y-148820200D01*
X118797000Y-148820200D01*
G37*
G36*
X117197000Y-148220200D02*
X117197000Y-147296200D01*
X118467000Y-146696200D01*
X118467000Y-148820200D01*
X117197000Y-148220200D01*
X117197000Y-148220200D01*
G37*
G36*
X118771600Y-128322400D02*
X118771600Y-126198400D01*
X120041600Y-126798400D01*
X120041600Y-127722400D01*
X118771600Y-128322400D01*
X118771600Y-128322400D01*
G37*
G36*
X117171600Y-127722400D02*
X117171600Y-126798400D01*
X118441600Y-126198400D01*
X118441600Y-128322400D01*
X117171600Y-127722400D01*
X117171600Y-127722400D01*
G37*
D12*
X113393200Y-142175800D03*
D13*
X113393200Y-140175800D03*
X113393200Y-138175800D03*
X113393200Y-136175800D03*
X113393200Y-134175800D03*
X113393200Y-132175800D03*
D10*
G36*
X120059200Y-138499800D02*
X122183200Y-138499800D01*
X121583200Y-139769800D01*
X120659200Y-139769800D01*
X120059200Y-138499800D01*
X120059200Y-138499800D01*
G37*
G36*
X120659200Y-136899800D02*
X121583200Y-136899800D01*
X122183200Y-138169800D01*
X120059200Y-138169800D01*
X120659200Y-136899800D01*
X120659200Y-136899800D01*
G37*
G36*
X168771600Y-103322400D02*
X168771600Y-101198400D01*
X170041600Y-101798400D01*
X170041600Y-102722400D01*
X168771600Y-103322400D01*
X168771600Y-103322400D01*
G37*
G36*
X167171600Y-102722400D02*
X167171600Y-101798400D01*
X168441600Y-101198400D01*
X168441600Y-103322400D01*
X167171600Y-102722400D01*
X167171600Y-102722400D01*
G37*
D12*
X163393200Y-117175800D03*
D13*
X163393200Y-115175800D03*
X163393200Y-113175800D03*
X163393200Y-111175800D03*
X163393200Y-109175800D03*
X163393200Y-107175800D03*
D10*
G36*
X168797000Y-123820200D02*
X168797000Y-121696200D01*
X170067000Y-122296200D01*
X170067000Y-123220200D01*
X168797000Y-123820200D01*
X168797000Y-123820200D01*
G37*
G36*
X167197000Y-123220200D02*
X167197000Y-122296200D01*
X168467000Y-121696200D01*
X168467000Y-123820200D01*
X167197000Y-123220200D01*
X167197000Y-123220200D01*
G37*
D12*
X138393200Y-117175800D03*
D13*
X138393200Y-115175800D03*
X138393200Y-113175800D03*
X138393200Y-111175800D03*
X138393200Y-109175800D03*
X138393200Y-107175800D03*
D10*
G36*
X145059200Y-113499800D02*
X147183200Y-113499800D01*
X146583200Y-114769800D01*
X145659200Y-114769800D01*
X145059200Y-113499800D01*
X145059200Y-113499800D01*
G37*
G36*
X145659200Y-111899800D02*
X146583200Y-111899800D01*
X147183200Y-113169800D01*
X145059200Y-113169800D01*
X145659200Y-111899800D01*
X145659200Y-111899800D01*
G37*
G36*
X145008400Y-109486600D02*
X147132400Y-109486600D01*
X146532400Y-110756600D01*
X145608400Y-110756600D01*
X145008400Y-109486600D01*
X145008400Y-109486600D01*
G37*
G36*
X145608400Y-107886600D02*
X146532400Y-107886600D01*
X147132400Y-109156600D01*
X145008400Y-109156600D01*
X145608400Y-107886600D01*
X145608400Y-107886600D01*
G37*
G36*
X143771600Y-103322400D02*
X143771600Y-101198400D01*
X145041600Y-101798400D01*
X145041600Y-102722400D01*
X143771600Y-103322400D01*
X143771600Y-103322400D01*
G37*
G36*
X142171600Y-102722400D02*
X142171600Y-101798400D01*
X143441600Y-101198400D01*
X143441600Y-103322400D01*
X142171600Y-102722400D01*
X142171600Y-102722400D01*
G37*
G36*
X143797000Y-123820200D02*
X143797000Y-121696200D01*
X145067000Y-122296200D01*
X145067000Y-123220200D01*
X143797000Y-123820200D01*
X143797000Y-123820200D01*
G37*
G36*
X142197000Y-123220200D02*
X142197000Y-122296200D01*
X143467000Y-121696200D01*
X143467000Y-123820200D01*
X142197000Y-123220200D01*
X142197000Y-123220200D01*
G37*
D12*
X188393200Y-117175800D03*
D13*
X188393200Y-115175800D03*
X188393200Y-113175800D03*
X188393200Y-111175800D03*
X188393200Y-109175800D03*
X188393200Y-107175800D03*
D10*
G36*
X170059200Y-113499800D02*
X172183200Y-113499800D01*
X171583200Y-114769800D01*
X170659200Y-114769800D01*
X170059200Y-113499800D01*
X170059200Y-113499800D01*
G37*
G36*
X170659200Y-111899800D02*
X171583200Y-111899800D01*
X172183200Y-113169800D01*
X170059200Y-113169800D01*
X170659200Y-111899800D01*
X170659200Y-111899800D01*
G37*
G36*
X170008400Y-109486600D02*
X172132400Y-109486600D01*
X171532400Y-110756600D01*
X170608400Y-110756600D01*
X170008400Y-109486600D01*
X170008400Y-109486600D01*
G37*
G36*
X170608400Y-107886600D02*
X171532400Y-107886600D01*
X172132400Y-109156600D01*
X170008400Y-109156600D01*
X170608400Y-107886600D01*
X170608400Y-107886600D01*
G37*
G36*
X93797000Y-123820200D02*
X93797000Y-121696200D01*
X95067000Y-122296200D01*
X95067000Y-123220200D01*
X93797000Y-123820200D01*
X93797000Y-123820200D01*
G37*
G36*
X92197000Y-123220200D02*
X92197000Y-122296200D01*
X93467000Y-121696200D01*
X93467000Y-123820200D01*
X92197000Y-123220200D01*
X92197000Y-123220200D01*
G37*
G36*
X93771600Y-103322400D02*
X93771600Y-101198400D01*
X95041600Y-101798400D01*
X95041600Y-102722400D01*
X93771600Y-103322400D01*
X93771600Y-103322400D01*
G37*
G36*
X92171600Y-102722400D02*
X92171600Y-101798400D01*
X93441600Y-101198400D01*
X93441600Y-103322400D01*
X92171600Y-102722400D01*
X92171600Y-102722400D01*
G37*
G36*
X95008400Y-109486600D02*
X97132400Y-109486600D01*
X96532400Y-110756600D01*
X95608400Y-110756600D01*
X95008400Y-109486600D01*
X95008400Y-109486600D01*
G37*
G36*
X95608400Y-107886600D02*
X96532400Y-107886600D01*
X97132400Y-109156600D01*
X95008400Y-109156600D01*
X95608400Y-107886600D01*
X95608400Y-107886600D01*
G37*
G36*
X95059200Y-113499800D02*
X97183200Y-113499800D01*
X96583200Y-114769800D01*
X95659200Y-114769800D01*
X95059200Y-113499800D01*
X95059200Y-113499800D01*
G37*
G36*
X95659200Y-111899800D02*
X96583200Y-111899800D01*
X97183200Y-113169800D01*
X95059200Y-113169800D01*
X95659200Y-111899800D01*
X95659200Y-111899800D01*
G37*
G36*
X120008400Y-109486600D02*
X122132400Y-109486600D01*
X121532400Y-110756600D01*
X120608400Y-110756600D01*
X120008400Y-109486600D01*
X120008400Y-109486600D01*
G37*
G36*
X120608400Y-107886600D02*
X121532400Y-107886600D01*
X122132400Y-109156600D01*
X120008400Y-109156600D01*
X120608400Y-107886600D01*
X120608400Y-107886600D01*
G37*
G36*
X118797000Y-123820200D02*
X118797000Y-121696200D01*
X120067000Y-122296200D01*
X120067000Y-123220200D01*
X118797000Y-123820200D01*
X118797000Y-123820200D01*
G37*
G36*
X117197000Y-123220200D02*
X117197000Y-122296200D01*
X118467000Y-121696200D01*
X118467000Y-123820200D01*
X117197000Y-123220200D01*
X117197000Y-123220200D01*
G37*
G36*
X118771600Y-103322400D02*
X118771600Y-101198400D01*
X120041600Y-101798400D01*
X120041600Y-102722400D01*
X118771600Y-103322400D01*
X118771600Y-103322400D01*
G37*
G36*
X117171600Y-102722400D02*
X117171600Y-101798400D01*
X118441600Y-101198400D01*
X118441600Y-103322400D01*
X117171600Y-102722400D01*
X117171600Y-102722400D01*
G37*
D12*
X113393200Y-117175800D03*
D13*
X113393200Y-115175800D03*
X113393200Y-113175800D03*
X113393200Y-111175800D03*
X113393200Y-109175800D03*
X113393200Y-107175800D03*
D10*
G36*
X120059200Y-113499800D02*
X122183200Y-113499800D01*
X121583200Y-114769800D01*
X120659200Y-114769800D01*
X120059200Y-113499800D01*
X120059200Y-113499800D01*
G37*
G36*
X120659200Y-111899800D02*
X121583200Y-111899800D01*
X122183200Y-113169800D01*
X120059200Y-113169800D01*
X120659200Y-111899800D01*
X120659200Y-111899800D01*
G37*
G36*
X168771600Y-78322400D02*
X168771600Y-76198400D01*
X170041600Y-76798400D01*
X170041600Y-77722400D01*
X168771600Y-78322400D01*
X168771600Y-78322400D01*
G37*
G36*
X167171600Y-77722400D02*
X167171600Y-76798400D01*
X168441600Y-76198400D01*
X168441600Y-78322400D01*
X167171600Y-77722400D01*
X167171600Y-77722400D01*
G37*
D12*
X163393200Y-92175800D03*
D13*
X163393200Y-90175800D03*
X163393200Y-88175800D03*
X163393200Y-86175800D03*
X163393200Y-84175800D03*
X163393200Y-82175800D03*
D10*
G36*
X168797000Y-98820200D02*
X168797000Y-96696200D01*
X170067000Y-97296200D01*
X170067000Y-98220200D01*
X168797000Y-98820200D01*
X168797000Y-98820200D01*
G37*
G36*
X167197000Y-98220200D02*
X167197000Y-97296200D01*
X168467000Y-96696200D01*
X168467000Y-98820200D01*
X167197000Y-98220200D01*
X167197000Y-98220200D01*
G37*
D12*
X138393200Y-92175800D03*
D13*
X138393200Y-90175800D03*
X138393200Y-88175800D03*
X138393200Y-86175800D03*
X138393200Y-84175800D03*
X138393200Y-82175800D03*
D10*
G36*
X145059200Y-88499800D02*
X147183200Y-88499800D01*
X146583200Y-89769800D01*
X145659200Y-89769800D01*
X145059200Y-88499800D01*
X145059200Y-88499800D01*
G37*
G36*
X145659200Y-86899800D02*
X146583200Y-86899800D01*
X147183200Y-88169800D01*
X145059200Y-88169800D01*
X145659200Y-86899800D01*
X145659200Y-86899800D01*
G37*
G36*
X145008400Y-84486600D02*
X147132400Y-84486600D01*
X146532400Y-85756600D01*
X145608400Y-85756600D01*
X145008400Y-84486600D01*
X145008400Y-84486600D01*
G37*
G36*
X145608400Y-82886600D02*
X146532400Y-82886600D01*
X147132400Y-84156600D01*
X145008400Y-84156600D01*
X145608400Y-82886600D01*
X145608400Y-82886600D01*
G37*
G36*
X143771600Y-78322400D02*
X143771600Y-76198400D01*
X145041600Y-76798400D01*
X145041600Y-77722400D01*
X143771600Y-78322400D01*
X143771600Y-78322400D01*
G37*
G36*
X142171600Y-77722400D02*
X142171600Y-76798400D01*
X143441600Y-76198400D01*
X143441600Y-78322400D01*
X142171600Y-77722400D01*
X142171600Y-77722400D01*
G37*
G36*
X143797000Y-98820200D02*
X143797000Y-96696200D01*
X145067000Y-97296200D01*
X145067000Y-98220200D01*
X143797000Y-98820200D01*
X143797000Y-98820200D01*
G37*
G36*
X142197000Y-98220200D02*
X142197000Y-97296200D01*
X143467000Y-96696200D01*
X143467000Y-98820200D01*
X142197000Y-98220200D01*
X142197000Y-98220200D01*
G37*
D12*
X188393200Y-92175800D03*
D13*
X188393200Y-90175800D03*
X188393200Y-88175800D03*
X188393200Y-86175800D03*
X188393200Y-84175800D03*
X188393200Y-82175800D03*
D10*
G36*
X170059200Y-88499800D02*
X172183200Y-88499800D01*
X171583200Y-89769800D01*
X170659200Y-89769800D01*
X170059200Y-88499800D01*
X170059200Y-88499800D01*
G37*
G36*
X170659200Y-86899800D02*
X171583200Y-86899800D01*
X172183200Y-88169800D01*
X170059200Y-88169800D01*
X170659200Y-86899800D01*
X170659200Y-86899800D01*
G37*
G36*
X170008400Y-84486600D02*
X172132400Y-84486600D01*
X171532400Y-85756600D01*
X170608400Y-85756600D01*
X170008400Y-84486600D01*
X170008400Y-84486600D01*
G37*
G36*
X170608400Y-82886600D02*
X171532400Y-82886600D01*
X172132400Y-84156600D01*
X170008400Y-84156600D01*
X170608400Y-82886600D01*
X170608400Y-82886600D01*
G37*
G36*
X93797000Y-98820200D02*
X93797000Y-96696200D01*
X95067000Y-97296200D01*
X95067000Y-98220200D01*
X93797000Y-98820200D01*
X93797000Y-98820200D01*
G37*
G36*
X92197000Y-98220200D02*
X92197000Y-97296200D01*
X93467000Y-96696200D01*
X93467000Y-98820200D01*
X92197000Y-98220200D01*
X92197000Y-98220200D01*
G37*
G36*
X93771600Y-78322400D02*
X93771600Y-76198400D01*
X95041600Y-76798400D01*
X95041600Y-77722400D01*
X93771600Y-78322400D01*
X93771600Y-78322400D01*
G37*
G36*
X92171600Y-77722400D02*
X92171600Y-76798400D01*
X93441600Y-76198400D01*
X93441600Y-78322400D01*
X92171600Y-77722400D01*
X92171600Y-77722400D01*
G37*
G36*
X95008400Y-84486600D02*
X97132400Y-84486600D01*
X96532400Y-85756600D01*
X95608400Y-85756600D01*
X95008400Y-84486600D01*
X95008400Y-84486600D01*
G37*
G36*
X95608400Y-82886600D02*
X96532400Y-82886600D01*
X97132400Y-84156600D01*
X95008400Y-84156600D01*
X95608400Y-82886600D01*
X95608400Y-82886600D01*
G37*
G36*
X95059200Y-88499800D02*
X97183200Y-88499800D01*
X96583200Y-89769800D01*
X95659200Y-89769800D01*
X95059200Y-88499800D01*
X95059200Y-88499800D01*
G37*
G36*
X95659200Y-86899800D02*
X96583200Y-86899800D01*
X97183200Y-88169800D01*
X95059200Y-88169800D01*
X95659200Y-86899800D01*
X95659200Y-86899800D01*
G37*
G36*
X120008400Y-84486600D02*
X122132400Y-84486600D01*
X121532400Y-85756600D01*
X120608400Y-85756600D01*
X120008400Y-84486600D01*
X120008400Y-84486600D01*
G37*
G36*
X120608400Y-82886600D02*
X121532400Y-82886600D01*
X122132400Y-84156600D01*
X120008400Y-84156600D01*
X120608400Y-82886600D01*
X120608400Y-82886600D01*
G37*
G36*
X118797000Y-98820200D02*
X118797000Y-96696200D01*
X120067000Y-97296200D01*
X120067000Y-98220200D01*
X118797000Y-98820200D01*
X118797000Y-98820200D01*
G37*
G36*
X117197000Y-98220200D02*
X117197000Y-97296200D01*
X118467000Y-96696200D01*
X118467000Y-98820200D01*
X117197000Y-98220200D01*
X117197000Y-98220200D01*
G37*
G36*
X118771600Y-78322400D02*
X118771600Y-76198400D01*
X120041600Y-76798400D01*
X120041600Y-77722400D01*
X118771600Y-78322400D01*
X118771600Y-78322400D01*
G37*
G36*
X117171600Y-77722400D02*
X117171600Y-76798400D01*
X118441600Y-76198400D01*
X118441600Y-78322400D01*
X117171600Y-77722400D01*
X117171600Y-77722400D01*
G37*
D12*
X113393200Y-92175800D03*
D13*
X113393200Y-90175800D03*
X113393200Y-88175800D03*
X113393200Y-86175800D03*
X113393200Y-84175800D03*
X113393200Y-82175800D03*
D10*
G36*
X120059200Y-88499800D02*
X122183200Y-88499800D01*
X121583200Y-89769800D01*
X120659200Y-89769800D01*
X120059200Y-88499800D01*
X120059200Y-88499800D01*
G37*
G36*
X120659200Y-86899800D02*
X121583200Y-86899800D01*
X122183200Y-88169800D01*
X120059200Y-88169800D01*
X120659200Y-86899800D01*
X120659200Y-86899800D01*
G37*
D12*
X163393200Y-67175800D03*
D13*
X163393200Y-65175800D03*
X163393200Y-63175800D03*
X163393200Y-61175800D03*
X163393200Y-59175800D03*
X163393200Y-57175800D03*
D10*
G36*
X143771600Y-53322400D02*
X143771600Y-51198400D01*
X145041600Y-51798400D01*
X145041600Y-52722400D01*
X143771600Y-53322400D01*
X143771600Y-53322400D01*
G37*
G36*
X142171600Y-52722400D02*
X142171600Y-51798400D01*
X143441600Y-51198400D01*
X143441600Y-53322400D01*
X142171600Y-52722400D01*
X142171600Y-52722400D01*
G37*
G36*
X145008400Y-59486600D02*
X147132400Y-59486600D01*
X146532400Y-60756600D01*
X145608400Y-60756600D01*
X145008400Y-59486600D01*
X145008400Y-59486600D01*
G37*
G36*
X145608400Y-57886600D02*
X146532400Y-57886600D01*
X147132400Y-59156600D01*
X145008400Y-59156600D01*
X145608400Y-57886600D01*
X145608400Y-57886600D01*
G37*
G36*
X143797000Y-73820200D02*
X143797000Y-71696200D01*
X145067000Y-72296200D01*
X145067000Y-73220200D01*
X143797000Y-73820200D01*
X143797000Y-73820200D01*
G37*
G36*
X142197000Y-73220200D02*
X142197000Y-72296200D01*
X143467000Y-71696200D01*
X143467000Y-73820200D01*
X142197000Y-73220200D01*
X142197000Y-73220200D01*
G37*
G36*
X145059200Y-63499800D02*
X147183200Y-63499800D01*
X146583200Y-64769800D01*
X145659200Y-64769800D01*
X145059200Y-63499800D01*
X145059200Y-63499800D01*
G37*
G36*
X145659200Y-61899800D02*
X146583200Y-61899800D01*
X147183200Y-63169800D01*
X145059200Y-63169800D01*
X145659200Y-61899800D01*
X145659200Y-61899800D01*
G37*
G36*
X170008400Y-59486600D02*
X172132400Y-59486600D01*
X171532400Y-60756600D01*
X170608400Y-60756600D01*
X170008400Y-59486600D01*
X170008400Y-59486600D01*
G37*
G36*
X170608400Y-57886600D02*
X171532400Y-57886600D01*
X172132400Y-59156600D01*
X170008400Y-59156600D01*
X170608400Y-57886600D01*
X170608400Y-57886600D01*
G37*
G36*
X168771600Y-53322400D02*
X168771600Y-51198400D01*
X170041600Y-51798400D01*
X170041600Y-52722400D01*
X168771600Y-53322400D01*
X168771600Y-53322400D01*
G37*
G36*
X167171600Y-52722400D02*
X167171600Y-51798400D01*
X168441600Y-51198400D01*
X168441600Y-53322400D01*
X167171600Y-52722400D01*
X167171600Y-52722400D01*
G37*
G36*
X170059200Y-63499800D02*
X172183200Y-63499800D01*
X171583200Y-64769800D01*
X170659200Y-64769800D01*
X170059200Y-63499800D01*
X170059200Y-63499800D01*
G37*
G36*
X170659200Y-61899800D02*
X171583200Y-61899800D01*
X172183200Y-63169800D01*
X170059200Y-63169800D01*
X170659200Y-61899800D01*
X170659200Y-61899800D01*
G37*
D12*
X188393200Y-67175800D03*
D13*
X188393200Y-65175800D03*
X188393200Y-63175800D03*
X188393200Y-61175800D03*
X188393200Y-59175800D03*
X188393200Y-57175800D03*
D10*
G36*
X168797000Y-73820200D02*
X168797000Y-71696200D01*
X170067000Y-72296200D01*
X170067000Y-73220200D01*
X168797000Y-73820200D01*
X168797000Y-73820200D01*
G37*
G36*
X167197000Y-73220200D02*
X167197000Y-72296200D01*
X168467000Y-71696200D01*
X168467000Y-73820200D01*
X167197000Y-73220200D01*
X167197000Y-73220200D01*
G37*
G36*
X120059200Y-63499800D02*
X122183200Y-63499800D01*
X121583200Y-64769800D01*
X120659200Y-64769800D01*
X120059200Y-63499800D01*
X120059200Y-63499800D01*
G37*
G36*
X120659200Y-61899800D02*
X121583200Y-61899800D01*
X122183200Y-63169800D01*
X120059200Y-63169800D01*
X120659200Y-61899800D01*
X120659200Y-61899800D01*
G37*
G36*
X118771600Y-53322400D02*
X118771600Y-51198400D01*
X120041600Y-51798400D01*
X120041600Y-52722400D01*
X118771600Y-53322400D01*
X118771600Y-53322400D01*
G37*
G36*
X117171600Y-52722400D02*
X117171600Y-51798400D01*
X118441600Y-51198400D01*
X118441600Y-53322400D01*
X117171600Y-52722400D01*
X117171600Y-52722400D01*
G37*
G36*
X118797000Y-73820200D02*
X118797000Y-71696200D01*
X120067000Y-72296200D01*
X120067000Y-73220200D01*
X118797000Y-73820200D01*
X118797000Y-73820200D01*
G37*
G36*
X117197000Y-73220200D02*
X117197000Y-72296200D01*
X118467000Y-71696200D01*
X118467000Y-73820200D01*
X117197000Y-73220200D01*
X117197000Y-73220200D01*
G37*
D12*
X138393200Y-67175800D03*
D13*
X138393200Y-65175800D03*
X138393200Y-63175800D03*
X138393200Y-61175800D03*
X138393200Y-59175800D03*
X138393200Y-57175800D03*
D10*
G36*
X120008400Y-59486600D02*
X122132400Y-59486600D01*
X121532400Y-60756600D01*
X120608400Y-60756600D01*
X120008400Y-59486600D01*
X120008400Y-59486600D01*
G37*
G36*
X120608400Y-57886600D02*
X121532400Y-57886600D01*
X122132400Y-59156600D01*
X120008400Y-59156600D01*
X120608400Y-57886600D01*
X120608400Y-57886600D01*
G37*
D12*
X113393200Y-67175800D03*
D13*
X113393200Y-65175800D03*
X113393200Y-63175800D03*
X113393200Y-61175800D03*
X113393200Y-59175800D03*
X113393200Y-57175800D03*
D10*
G36*
X93797000Y-73820200D02*
X93797000Y-71696200D01*
X95067000Y-72296200D01*
X95067000Y-73220200D01*
X93797000Y-73820200D01*
X93797000Y-73820200D01*
G37*
G36*
X92197000Y-73220200D02*
X92197000Y-72296200D01*
X93467000Y-71696200D01*
X93467000Y-73820200D01*
X92197000Y-73220200D01*
X92197000Y-73220200D01*
G37*
G36*
X93771600Y-53322400D02*
X93771600Y-51198400D01*
X95041600Y-51798400D01*
X95041600Y-52722400D01*
X93771600Y-53322400D01*
X93771600Y-53322400D01*
G37*
G36*
X92171600Y-52722400D02*
X92171600Y-51798400D01*
X93441600Y-51198400D01*
X93441600Y-53322400D01*
X92171600Y-52722400D01*
X92171600Y-52722400D01*
G37*
G36*
X95008400Y-59486600D02*
X97132400Y-59486600D01*
X96532400Y-60756600D01*
X95608400Y-60756600D01*
X95008400Y-59486600D01*
X95008400Y-59486600D01*
G37*
G36*
X95608400Y-57886600D02*
X96532400Y-57886600D01*
X97132400Y-59156600D01*
X95008400Y-59156600D01*
X95608400Y-57886600D01*
X95608400Y-57886600D01*
G37*
G36*
X95059200Y-63499800D02*
X97183200Y-63499800D01*
X96583200Y-64769800D01*
X95659200Y-64769800D01*
X95059200Y-63499800D01*
X95059200Y-63499800D01*
G37*
G36*
X95659200Y-61899800D02*
X96583200Y-61899800D01*
X97183200Y-63169800D01*
X95059200Y-63169800D01*
X95659200Y-61899800D01*
X95659200Y-61899800D01*
G37*
M02*
